<?xml version="1.0" encoding="UTF-8"?>
<svg width="93px" height="30px" viewBox="0 0 93 30" version="1.1" xmlns="http://www.w3.org/2000/svg" xmlns:xlink="http://www.w3.org/1999/xlink">
    <!-- Generator: Sketch 57.1 (83088) - https://sketch.com -->
    <title>Group 11</title>
    <desc>Created with Sketch.</desc>
    <defs>
        <path d="M9.6,13 L13.4,9.46666667 C13.6666667,9.2 13.8666667,8.86666667 13.9333333,8.46666667 C14,8.26666667 14,8.13333333 14,8 C14,7.86666667 14,7.73333333 13.9333333,7.6 C13.8666667,7.2 13.6666667,6.86666667 13.4,6.6 L9.6,3.06666667 C9.06666667,2.53333333 8.2,2.6 7.73333333,3.13333333 C7.2,3.66666667 7.26666667,4.53333333 7.8,5 L9.6,6.66666667 L3.33333333,6.66666667 C2.6,6.66666667 2,7.26666667 2,8 C2,8.73333333 2.6,9.33333333 3.33333333,9.33333333 L9.6,9.33333333 L7.8,11 C7.46666667,11.2666667 7.33333333,11.6666667 7.33333333,12 C7.33333333,12.3333333 7.46666667,12.6666667 7.66666667,12.9333333 C8.2,13.4666667 9.06666667,13.4666667 9.6,13 Z" id="path-1"></path>
    </defs>
    <g id="UI" stroke="none" stroke-width="1" fill="none" fill-rule="evenodd">
        <g id="Group-11" transform="translate(-1.000000, -1.000000)">
            <g id="emojione-monotone:digit-one" fill-rule="nonzero">
                <g id="Icon" fill="#00A698">
                    <path d="M16,1 C7.716,1 1,7.716 1,16 C1,24.284 7.716,31 16,31 C24.284,31 31,24.284 31,16 C31,7.716 24.284,1 16,1 Z M19,24 L15.9465,24 L15.9465,12.4895 C14.8305,13.5325 13.515,14.304 12,14.804 L12,12.0325 C12.797,11.772 13.663,11.2765 14.5975,10.549 C15.533,9.8215 16.1735,8.971 16.5215,8 L19,8 L19,24 Z" id="Icon-Shape"></path>
                </g>
                <rect id="ViewBox" x="0" y="0" width="32" height="32"></rect>
            </g>
            <g id="emojione-monotone:digit-two" transform="translate(63.000000, 0.000000)" fill-rule="nonzero">
                <g id="Icon" fill="#00A698">
                    <path d="M16,1 C7.716,1 1,7.716 1,16 C1,24.284 7.716,31 16,31 C24.284,31 31,24.284 31,16 C31,7.716 24.284,1 16,1 L16,1 Z M21,21.163 L21,24 L11,24 C11.1079734,22.9266882 11.4399595,21.8879755 11.9745,20.951 C12.516,19.99 13.585,18.7175 15.1825,17.1295 C16.468,15.8475 17.2565,14.978 17.548,14.521 C17.94,13.891 18.1365,13.267 18.1365,12.652 C18.1365,11.9705 17.9655,11.447 17.624,11.0805 C17.2825,10.714 16.8105,10.5315 16.208,10.5315 C15.6125,10.5315 15.138,10.724 14.7865,11.1075 C14.4345,11.4915 14.2315,12.13 14.1775,13.0205 L11.3345,12.716 C11.5035,11.0355 12.035,9.8295 12.9285,9.097 C13.8225,8.366 14.939,8 16.2795,8 C17.7475,8 18.9025,8.424 19.7415,9.2715 C20.5805,10.119 21,11.174 21,12.4345 C21,13.1515 20.88,13.835 20.6395,14.4835 C20.3995,15.133 20.0185,15.8115 19.4975,16.5215 C19.152,16.992 18.529,17.67 17.629,18.5535 C16.7295,19.4385 16.159,20.025 15.919,20.315 C15.6969938,20.5776512 15.5013838,20.8615202 15.335,21.1625 L21,21.1625 L21,21.163 Z" id="Icon-Shape"></path>
                </g>
                <rect id="ViewBox" x="0" y="0" width="32" height="32"></rect>
            </g>
            <g id="sm/long-arrow-right" transform="translate(39.000000, 8.000000)">
                <mask id="mask-2" fill="white">
                    <use xlink:href="#path-1"></use>
                </mask>
                <g id="long-arrow-right" fill-rule="nonzero"></g>
                <g id="_Color/Sky-grey" mask="url(#mask-2)" fill="#111236" fill-rule="evenodd">
                    <rect x="-154.5" y="-27.5" width="325" height="71"></rect>
                </g>
            </g>
        </g>
    </g>
</svg>