<?xml version="1.0" encoding="UTF-8"?>
<svg width="93px" height="30px" viewBox="0 0 93 30" version="1.1" xmlns="http://www.w3.org/2000/svg" xmlns:xlink="http://www.w3.org/1999/xlink">
    <!-- Generator: Sketch 57.1 (83088) - https://sketch.com -->
    <title>Group 12</title>
    <desc>Created with Sketch.</desc>
    <defs>
        <path d="M9.6,13 L13.4,9.46666667 C13.6666667,9.2 13.8666667,8.86666667 13.9333333,8.46666667 C14,8.26666667 14,8.13333333 14,8 C14,7.86666667 14,7.73333333 13.9333333,7.6 C13.8666667,7.2 13.6666667,6.86666667 13.4,6.6 L9.6,3.06666667 C9.06666667,2.53333333 8.2,2.6 7.73333333,3.13333333 C7.2,3.66666667 7.26666667,4.53333333 7.8,5 L9.6,6.66666667 L3.33333333,6.66666667 C2.6,6.66666667 2,7.26666667 2,8 C2,8.73333333 2.6,9.33333333 3.33333333,9.33333333 L9.6,9.33333333 L7.8,11 C7.46666667,11.2666667 7.33333333,11.6666667 7.33333333,12 C7.33333333,12.3333333 7.46666667,12.6666667 7.66666667,12.9333333 C8.2,13.4666667 9.06666667,13.4666667 9.6,13 Z" id="path-1"></path>
    </defs>
    <g id="UI" stroke="none" stroke-width="1" fill="none" fill-rule="evenodd">
        <g id="Group-12" transform="translate(-1.000000, -1.000000)">
            <g id="emojione-monotone:digit-two" fill-rule="nonzero">
                <g id="Icon" fill="#00A698">
                    <path d="M16,1 C7.716,1 1,7.716 1,16 C1,24.284 7.716,31 16,31 C24.284,31 31,24.284 31,16 C31,7.716 24.284,1 16,1 L16,1 Z M21,21.163 L21,24 L11,24 C11.1079734,22.9266882 11.4399595,21.8879755 11.9745,20.951 C12.516,19.99 13.585,18.7175 15.1825,17.1295 C16.468,15.8475 17.2565,14.978 17.548,14.521 C17.94,13.891 18.1365,13.267 18.1365,12.652 C18.1365,11.9705 17.9655,11.447 17.624,11.0805 C17.2825,10.714 16.8105,10.5315 16.208,10.5315 C15.6125,10.5315 15.138,10.724 14.7865,11.1075 C14.4345,11.4915 14.2315,12.13 14.1775,13.0205 L11.3345,12.716 C11.5035,11.0355 12.035,9.8295 12.9285,9.097 C13.8225,8.366 14.939,8 16.2795,8 C17.7475,8 18.9025,8.424 19.7415,9.2715 C20.5805,10.119 21,11.174 21,12.4345 C21,13.1515 20.88,13.835 20.6395,14.4835 C20.3995,15.133 20.0185,15.8115 19.4975,16.5215 C19.152,16.992 18.529,17.67 17.629,18.5535 C16.7295,19.4385 16.159,20.025 15.919,20.315 C15.6969938,20.5776512 15.5013838,20.8615202 15.335,21.1625 L21,21.1625 L21,21.163 Z" id="Icon-Shape"></path>
                </g>
                <rect id="ViewBox" x="0" y="0" width="32" height="32"></rect>
            </g>
            <g id="sm/long-arrow-right" transform="translate(39.000000, 8.000000)">
                <mask id="mask-2" fill="white">
                    <use xlink:href="#path-1"></use>
                </mask>
                <g id="long-arrow-right" fill-rule="nonzero"></g>
                <g id="_Color/Sky-grey" mask="url(#mask-2)" fill="#111236" fill-rule="evenodd">
                    <rect x="-154.5" y="-27.5" width="325" height="71"></rect>
                </g>
            </g>
            <g id="emojione-monotone:digit-three" transform="translate(63.000000, 0.000000)" fill-rule="nonzero">
                <g id="Icon" fill="#00A698">
                    <path d="M16,1 C7.716,1 1,7.716 1,16 C1,24.284 7.716,31 16,31 C24.284,31 31,24.284 31,16 C31,7.716 24.284,1 16,1 M19.5525,22.546 C18.587,23.5145 17.3855,24 15.9485,24 C14.5865,24 13.457,23.592 12.5605,22.7765 C11.664,21.96 11.144,20.8925 11,19.575 L13.7925,19.2215 C13.882,19.9625 14.121,20.53 14.5115,20.9215 C14.902,21.313 15.374,21.5095 15.9285,21.5095 C16.5235,21.5095 17.025,21.274 17.433,20.8045 C17.84,20.334 18.0445,19.7 18.0445,18.901 C18.0445,18.146 17.849,17.5475 17.4585,17.106 C17.068,16.6635 16.593,16.444 16.0315,16.444 C15.6615,16.444 15.22,16.518 14.7065,16.6675 L15.025,14.22 C15.8055,14.2415 16.401,14.0645 16.8115,13.6905 C17.222,13.3165 17.4275,12.8195 17.4275,12.1995 C17.4275,11.672 17.277,11.2515 16.976,10.939 C16.6745,10.6255 16.274,10.4685 15.7745,10.4685 C15.282,10.4685 14.861,10.646 14.512,11.0025 C14.163,11.359 13.951,11.8785 13.8755,12.563 L11.217,12.0935 C11.4015,11.1455 11.681,10.3885 12.054,9.822 C12.4265,9.2555 12.9465,8.8105 13.6145,8.486 C14.2805,8.162 15.0285,8 15.8565,8 C17.273,8 18.4095,8.4695 19.2645,9.411 C19.9695,10.1805 20.322,11.0485 20.322,12.0185 C20.322,13.3935 19.6,14.491 18.156,15.3105 C19.0185,15.503 19.708,15.9335 20.225,16.6035 C20.7415,17.2735 21,18.082 21,19.0305 C21,20.4055 20.5175,21.577 19.5525,22.546" id="Icon-Shape"></path>
                </g>
                <rect id="ViewBox" x="0" y="0" width="32" height="32"></rect>
            </g>
        </g>
    </g>
</svg>