<?xml version="1.0" encoding="UTF-8"?>
<svg width="93px" height="30px" viewBox="0 0 93 30" version="1.1" xmlns="http://www.w3.org/2000/svg" xmlns:xlink="http://www.w3.org/1999/xlink">
    <!-- Generator: Sketch 57.1 (83088) - https://sketch.com -->
    <title>Group 13</title>
    <desc>Created with Sketch.</desc>
    <defs>
        <path d="M9.6,13 L13.4,9.46666667 C13.6666667,9.2 13.8666667,8.86666667 13.9333333,8.46666667 C14,8.26666667 14,8.13333333 14,8 C14,7.86666667 14,7.73333333 13.9333333,7.6 C13.8666667,7.2 13.6666667,6.86666667 13.4,6.6 L9.6,3.06666667 C9.06666667,2.53333333 8.2,2.6 7.73333333,3.13333333 C7.2,3.66666667 7.26666667,4.53333333 7.8,5 L9.6,6.66666667 L3.33333333,6.66666667 C2.6,6.66666667 2,7.26666667 2,8 C2,8.73333333 2.6,9.33333333 3.33333333,9.33333333 L9.6,9.33333333 L7.8,11 C7.46666667,11.2666667 7.33333333,11.6666667 7.33333333,12 C7.33333333,12.3333333 7.46666667,12.6666667 7.66666667,12.9333333 C8.2,13.4666667 9.06666667,13.4666667 9.6,13 Z" id="path-1"></path>
    </defs>
    <g id="UI" stroke="none" stroke-width="1" fill="none" fill-rule="evenodd">
        <g id="Group-13" transform="translate(-1.000000, -1.000000)">
            <g id="Group-2" transform="translate(39.000000, 8.000000)">
                <g id="sm/long-arrow-right">
                    <mask id="mask-2" fill="white">
                        <use xlink:href="#path-1"></use>
                    </mask>
                    <g id="long-arrow-right" fill-rule="nonzero"></g>
                    <g id="_Color/Sky-grey" mask="url(#mask-2)" fill="#111236" fill-rule="evenodd">
                        <rect x="-154.5" y="-27.5" width="325" height="71"></rect>
                    </g>
                </g>
            </g>
            <g id="Icon" fill="#00A698" fill-rule="nonzero">
                <path d="M16,1 C7.716,1 1,7.716 1,16 C1,24.284 7.716,31 16,31 C24.284,31 31,24.284 31,16 C31,7.716 24.284,1 16,1 M19.5525,22.546 C18.587,23.5145 17.3855,24 15.9485,24 C14.5865,24 13.457,23.592 12.5605,22.7765 C11.664,21.96 11.144,20.8925 11,19.575 L13.7925,19.2215 C13.882,19.9625 14.121,20.53 14.5115,20.9215 C14.902,21.313 15.374,21.5095 15.9285,21.5095 C16.5235,21.5095 17.025,21.274 17.433,20.8045 C17.84,20.334 18.0445,19.7 18.0445,18.901 C18.0445,18.146 17.849,17.5475 17.4585,17.106 C17.068,16.6635 16.593,16.444 16.0315,16.444 C15.6615,16.444 15.22,16.518 14.7065,16.6675 L15.025,14.22 C15.8055,14.2415 16.401,14.0645 16.8115,13.6905 C17.222,13.3165 17.4275,12.8195 17.4275,12.1995 C17.4275,11.672 17.277,11.2515 16.976,10.939 C16.6745,10.6255 16.274,10.4685 15.7745,10.4685 C15.282,10.4685 14.861,10.646 14.512,11.0025 C14.163,11.359 13.951,11.8785 13.8755,12.563 L11.217,12.0935 C11.4015,11.1455 11.681,10.3885 12.054,9.822 C12.4265,9.2555 12.9465,8.8105 13.6145,8.486 C14.2805,8.162 15.0285,8 15.8565,8 C17.273,8 18.4095,8.4695 19.2645,9.411 C19.9695,10.1805 20.322,11.0485 20.322,12.0185 C20.322,13.3935 19.6,14.491 18.156,15.3105 C19.0185,15.503 19.708,15.9335 20.225,16.6035 C20.7415,17.2735 21,18.082 21,19.0305 C21,20.4055 20.5175,21.577 19.5525,22.546" id="Icon-Shape"></path>
            </g>
            <rect id="ViewBox" fill-rule="nonzero" x="0" y="0" width="32" height="32"></rect>
            <g id="emojione-monotone:digit-four" transform="translate(63.000000, 0.000000)" fill-rule="nonzero">
                <g id="Icon" fill="#00A698">
                    <polygon id="Icon-Path" points="16.831 18.1085 16.831 12.663 12.994 18.1085"></polygon>
                    <path d="M16,1 C7.716,1 1,7.716 1,16 C1,24.284 7.716,31 16,31 C24.284,31 31,24.284 31,16 C31,7.716 24.284,1 16,1 Z M22,20.793 L19.9275,20.793 L19.9275,24 L16.831,24 L16.831,20.793 L10,20.793 L10,18.119 L17.24,8 L19.9275,8 L19.9275,18.1085 L22,18.1085 L22,20.793 Z" id="Icon-Shape"></path>
                </g>
                <rect id="ViewBox" x="0" y="0" width="32" height="32"></rect>
            </g>
        </g>
    </g>
</svg>