<?xml version="1.0" encoding="UTF-8"?>
<svg width="93px" height="30px" viewBox="0 0 93 30" version="1.1" xmlns="http://www.w3.org/2000/svg" xmlns:xlink="http://www.w3.org/1999/xlink">
    <!-- Generator: Sketch 57.1 (83088) - https://sketch.com -->
    <title>Group 10</title>
    <desc>Created with Sketch.</desc>
    <defs>
        <path d="M9.6,13 L13.4,9.46666667 C13.6666667,9.2 13.8666667,8.86666667 13.9333333,8.46666667 C14,8.26666667 14,8.13333333 14,8 C14,7.86666667 14,7.73333333 13.9333333,7.6 C13.8666667,7.2 13.6666667,6.86666667 13.4,6.6 L9.6,3.06666667 C9.06666667,2.53333333 8.2,2.6 7.73333333,3.13333333 C7.2,3.66666667 7.26666667,4.53333333 7.8,5 L9.6,6.66666667 L3.33333333,6.66666667 C2.6,6.66666667 2,7.26666667 2,8 C2,8.73333333 2.6,9.33333333 3.33333333,9.33333333 L9.6,9.33333333 L7.8,11 C7.46666667,11.2666667 7.33333333,11.6666667 7.33333333,12 C7.33333333,12.3333333 7.46666667,12.6666667 7.66666667,12.9333333 C8.2,13.4666667 9.06666667,13.4666667 9.6,13 Z" id="path-1"></path>
    </defs>
    <g id="UI" stroke="none" stroke-width="1" fill="none" fill-rule="evenodd">
        <g id="Group-10" transform="translate(-1.000000, -1.000000)">
            <g id="Group-2" transform="translate(39.000000, 8.000000)">
                <g id="sm/long-arrow-right">
                    <mask id="mask-2" fill="white">
                        <use xlink:href="#path-1"></use>
                    </mask>
                    <g id="long-arrow-right" fill-rule="nonzero"></g>
                    <g id="_Color/Sky-grey" mask="url(#mask-2)" fill="#111236" fill-rule="evenodd">
                        <rect x="-154.5" y="-27.5" width="325" height="71"></rect>
                    </g>
                </g>
            </g>
            <g id="emojione-monotone:digit-five" fill-rule="nonzero">
                <g id="Icon" fill="#00A698">
                    <path d="M16,1 C7.716,1 1,7.716 1,16 C1,24.284 7.716,31 16,31 C24.284,31 31,24.284 31,16 C31,7.716 24.284,1 16,1 M19.9355,21.8895 C18.9685,23.296 17.626,24 15.909,24 C14.536,24 13.417,23.6045 12.5515,22.8145 C11.6865,22.0235 11.1685,20.961 10.9995,19.627 L13.8395,19.3115 C13.9205,20.001 14.161,20.546 14.5595,20.948 C14.9585,21.3515 15.418,21.5525 15.939,21.5525 C16.5335,21.5525 17.0375,21.2925 17.4495,20.774 C17.862,20.2565 18.068,19.475 18.068,18.43 C18.068,17.4515 17.8635,16.717 17.454,16.228 C17.0455,15.7385 16.5125,15.4935 15.8575,15.4935 C15.039,15.4935 14.3055,15.882 13.6565,16.6575 L11.344,16.298 L12.8055,8 L20.3405,8 L20.3405,10.8605 L14.9655,10.8605 L14.519,13.5695 C15.1545,13.2285 15.803,13.058 16.4665,13.058 C17.73,13.058 18.8025,13.551 19.6815,14.5375 C20.5605,15.5225 21,16.8025 21,18.377 C21,19.6885 20.645,20.8605 19.9355,21.8895" id="Icon-Shape"></path>
                </g>
                <rect id="ViewBox" x="0" y="0" width="32" height="32"></rect>
            </g>
            <g id="emojione-monotone:digit-six" transform="translate(63.000000, 0.000000)" fill-rule="nonzero">
                <g id="Icon" fill="#00A698">
                    <path d="M16.1895,15.7705 C15.6375,15.7705 15.171,15.996 14.79,16.448 C14.408,16.9 14.2175,17.569 14.2175,18.452 C14.2175,19.4285 14.4325,20.1815 14.861,20.7125 C15.2895,21.2435 15.78,21.5095 16.3315,21.5095 C16.863,21.5095 17.305,21.2915 17.6595,20.857 C18.013,20.4225 18.191,19.7095 18.191,18.7195 C18.191,17.7 18.0005,16.955 17.6185,16.48 C17.2375,16.008 16.7615,15.7705 16.1895,15.7705" id="Icon-Path"></path>
                    <path d="M16,1 C7.716,1 1,7.716 1,16 C1,24.284 7.716,31 16,31 C24.284,31 31,24.284 31,16 C31,7.716 24.284,1 16,1 M19.6525,22.546 C18.753,23.5145 17.5985,24 16.1895,24 C14.678,24 13.4345,23.385 12.461,22.156 C11.4875,20.927 11,18.913 11,16.1125 C11,13.2405 11.508,11.17 12.5225,9.9025 C13.537,8.634 14.8545,8 16.4755,8 C17.612,8 18.5535,8.333 19.2995,8.999 C20.0445,9.666 20.52,10.634 20.7245,11.9005 L17.946,12.222 C17.8775,11.6235 17.701,11.181 17.4145,10.897 C17.1285,10.612 16.7575,10.4695 16.301,10.4695 C15.6945,10.4695 15.182,10.7545 14.764,11.324 C14.345,11.8945 14.0815,13.081 13.972,14.8845 C14.687,13.9995 15.5755,13.5575 16.638,13.5575 C17.836,13.5575 18.8635,14.036 19.717,14.991 C20.573,15.9455 21,17.1775 21,18.6875 C21,20.291 20.551,21.577 19.6525,22.546" id="Icon-Shape"></path>
                </g>
                <rect id="ViewBox" x="0" y="0" width="32" height="32"></rect>
            </g>
        </g>
    </g>
</svg>