<?xml version="1.0" encoding="UTF-8"?>
<svg width="254px" height="256px" viewBox="0 0 254 256" version="1.1" xmlns="http://www.w3.org/2000/svg" xmlns:xlink="http://www.w3.org/1999/xlink">
    <!-- Generator: Sketch 57.1 (83088) - https://sketch.com -->
    <title>Artboard</title>
    <desc>Created with Sketch.</desc>
    <g id="Artboard" stroke="none" stroke-width="1" fill="none" fill-rule="evenodd">
        <g id="Group-5" transform="translate(0.000000, 47.000000)">
            <g id="Background-Shape-2" opacity="0.345889137">
                <path d="M0.802686469,93.2382569 C4.05329288,51.9222866 178.462165,-27.8218889 210.840565,11.3117817 C243.218964,50.4454524 212.091149,123.889115 144.237984,142.696168 C76.3848184,161.503221 -2.44791994,134.554227 0.802686469,93.2382569 Z" id="Background-Shape" fill="#F2F2F2" transform="translate(112.205405, 74.800000) scale(-1, 1) translate(-112.205405, -74.800000) "></path>
                <path d="M69.0612085,95.2635378 C71.6796291,60.2830642 212.169042,-7.23293511 238.250412,25.8998782 C264.331782,59.0326915 257.730079,128.723725 203.073161,144.646857 C148.416243,160.569988 66.4427879,130.244011 69.0612085,95.2635378 Z" id="Background-Shape" fill="#DDE3E9"></path>
            </g>
            <g id="Humaaan" transform="translate(73.579365, 18.000000)">
                <g id="Head/Front/Pony" transform="translate(73.246746, 26.813793) rotate(32.000000) translate(-73.246746, -26.813793) translate(50.628651, 9.600000)">
                    <g id="Head" stroke-width="1" transform="translate(17.867647, 10.134615)" fill="#B28B67">
                        <path d="M12.6209585,2.98609345 C14.5383592,6.51722942 14.3105221,15.4742486 11.8324527,16.1053611 C10.8441367,16.3570646 8.73865586,15.7404346 6.59583785,14.4642316 L7.94117647,23.8653846 L0,23.8653846 L2.73387073,11.2756533 C1.20917826,9.50740141 0.177230966,7.34037965 0.34966864,4.91216762 C0.846506323,-2.08414134 10.7035579,-0.545042511 12.6209585,2.98609345 Z"></path>
                    </g>
                    <path d="M28.125,6.53846154 C29.9524128,6.53846154 31.4338235,8.00214601 31.4338235,9.80769231 C31.4338235,11.5509784 30.0528175,12.9755728 28.3127619,13.0717478 L28.3021765,13.0714615 L28.0055549,13.1585252 C27.0561199,13.4185586 25.8864688,13.6088631 24.6029295,13.6938809 C24.7410285,14.2055931 24.8161765,14.7886574 24.8161765,15.4476261 C24.8161765,16.0289537 24.7512348,16.645484 24.6316553,17.2714856 C24.3237044,16.9095685 23.9112655,16.6730769 23.4926471,16.6730769 C22.3221289,16.6730769 21.5073529,17.6244718 21.5073529,18.6346154 C21.5073529,19.9162436 22.2559639,20.8435191 23.3489159,20.9182105 C22.3650871,22.7860005 21.003197,24.1923077 19.6426119,24.1923077 C17.058184,24.1923077 15.2205882,20.7783414 15.2205882,17.1077436 C15.2205882,16.9791934 15.2231579,16.8514956 15.2282282,16.7247482 C12.4943231,18.5772685 10.3873807,22.2307692 6.77009962,22.2307692 C1.84871553,22.2307692 -0.105771259,12.4230769 6.77009962,12.4230769 C11.4468497,12.4230769 13.7469922,13.0968788 15.7294576,14.0932253 C16.1203253,13.001948 16.7177223,12.0852687 17.4482312,11.4457881 C17.6261179,11.2482579 17.9008546,11.059292 18.2554585,10.8844173 C18.4607671,10.7741882 18.6721421,10.6849136 18.8891683,10.6170358 C20.0841446,10.1825442 21.817627,9.87570521 23.7542436,9.80888524 C24.1157494,9.79641243 24.4707847,9.79277061 24.8171262,9.79738354 C24.8216705,7.99672396 26.3009751,6.53846154 28.125,6.53846154 Z" id="hair" fill="#191847"></path>
                </g>
                <g id="Bottom/Standing/Skirt" transform="translate(0.000000, 64.000000)">
                    <path d="M32.7939678,32.8328282 C40.8703816,35.0788031 47.8384674,36.2017906 53.6982251,36.2017906 C59.5579828,36.2017906 65.0007966,34.4724098 70.0266667,31.0136481 C62.1231611,28.7083592 55.6142722,27.5557148 50.5,27.5557148 C45.3857278,27.5557148 39.4837171,29.3147526 32.7939678,32.8328282 Z" id="Skirt-Shadow" fill="#1F28CF"></path>
                    <path d="M60.6898346,39.4391053 C60.6119587,39.3227063 60.5461923,39.1960875 60.4940279,39.0589294 C59.4144743,36.2204145 42.1226846,5.59850497 40.4,0 L59.8681161,0 C61.1778975,4.25662239 67.073096,30.9689572 67.9027445,36.2984617 C70.5204382,44.7051779 75.9100078,71.9314626 76.5980307,73.8176164 C77.3218191,75.8018182 73.249302,77.8688434 72.164072,75.4295134 C70.4372879,71.5481274 66.3228784,60.8084022 64.4909022,54.2508009 C62.7734285,48.1030638 61.3749463,42.572218 60.6898346,39.4391053 Z" id="Leg" fill="#997659"></path>
                    <path d="M44.7622108,43.1777725 C36.8566888,45.1643427 7.93995634,48.7557101 5.95556351,49.319007 C3.9142424,49.8984637 2.12439438,45.7150724 4.64757752,44.8088789 C8.66238792,43.3669722 19.7250078,40.0353848 26.4323142,38.6758298 C31.8272653,37.5822861 36.7502244,36.6899558 40.0553695,36.1674171 C39.7753653,26.9367164 38.4953944,4.78445039 39.3343448,1.42108547e-14 L56.56,1.42108547e-14 C55.755503,4.58796621 48.9547378,38.0645067 47.6907186,41.4154138 C47.2895808,42.6117101 46.0926693,43.1403848 44.7622108,43.1777725 L44.7622108,43.1777725 Z" id="Leg" fill="#B28B67"></path>
                    <g id="Accessories/Shoe/Flat-Sneaker" transform="translate(8.248333, 52.552301) rotate(80.000000) translate(-8.248333, -52.552301) translate(-2.020000, 45.857741)" fill="#E4E4E4">
                        <path d="M0.424253323,9.79492096 C0.370925971,10.0418971 0.344262295,10.2550378 0.344262295,10.434343 C0.344262295,11.020411 0.447683579,11.87563 0.654526146,13 C1.37470171,13 7.84704082,13 20.0715435,13 C20.5761229,11.4252149 20.2848504,10.575039 19.1977259,10.4494725 C18.1106014,10.323906 17.2075086,10.2105295 16.4884476,10.109343 L8.04959815,6.55775928 C7.54536007,6.34554507 6.96418804,6.57791441 6.74525679,7.07927258 L6.42504057,7.81257589 L6.42504057,7.81257589 C5.41864763,8.25586195 4.60084888,8.47750498 3.97164433,8.47750498 C3.68951698,8.47750498 3.34806673,8.41814128 2.94729357,8.29941387 L2.94729502,8.29940897 C1.88821863,7.98566193 0.775325348,8.58987075 0.461578305,9.64894714 C0.447307589,9.697119 0.434857096,9.74581148 0.424253323,9.79492096 Z" id="shoe"></path>
                    </g>
                    <g id="Accessories/Shoe/Flat-Sneaker" transform="translate(70.026667, 66.610879)" fill="#E4E4E4">
                        <path d="M0.424253323,9.79492096 C0.370925971,10.0418971 0.344262295,10.2550378 0.344262295,10.434343 C0.344262295,11.020411 0.447683579,11.87563 0.654526146,13 C1.37470171,13 7.84704082,13 20.0715435,13 C20.5761229,11.4252149 20.2848504,10.575039 19.1977259,10.4494725 C18.1106014,10.323906 17.2075086,10.2105295 16.4884476,10.109343 L8.04959815,6.55775928 C7.54536007,6.34554507 6.96418804,6.57791441 6.74525679,7.07927258 L6.42504057,7.81257589 L6.42504057,7.81257589 C5.41864763,8.25586195 4.60084888,8.47750498 3.97164433,8.47750498 C3.68951698,8.47750498 3.34806673,8.41814128 2.94729357,8.29941387 L2.94729502,8.29940897 C1.88821863,7.98566193 0.775325348,8.58987075 0.461578305,9.64894714 C0.447307589,9.697119 0.434857096,9.74581148 0.424253323,9.79492096 Z" id="shoe"></path>
                    </g>
                    <path d="M39.39,1.33226763e-15 C46.9807693,-2.1592432 54.1629915,-2.1592432 60.9366667,1.33226763e-15 C63.2933333,10.6903659 69.0196764,14.9333805 70.0266667,31.3234898 C58.58,36.9783177 44.44,27.2905296 32.6566667,32.805125 C29.29,25.091584 34.0033333,6.51531987 39.39,1.33226763e-15 Z" id="Skirt" fill="#2B44FF"></path>
                </g>
                <g id="Body/Jacket" transform="translate(55.617937, 65.379310) rotate(21.000000) translate(-55.617937, -65.379310) translate(13.042698, 34.427586)">
                    <path d="M22.6803667,30.8408196 L29.6189539,30.8680664 C25.3346965,44.6783733 23.0218341,52.0060357 22.6803667,52.8510535 C21.9120652,54.7523435 23.5378946,57.6479752 24.2331638,59.2040661 C21.9686952,60.2158821 22.2099768,56.4687144 19.3534106,57.7957675 C16.7460694,59.00704 14.7626715,61.2017848 11.7502656,59.3457274 C11.379908,59.1175361 10.9740564,58.2583545 11.9546452,57.5869495 C14.3976494,55.9142349 17.9181665,52.9866828 18.3938438,52.0230564 C19.0425148,50.7089797 20.4713558,43.6482341 22.6803667,30.8408196 L22.6803667,30.8408196 Z M64.4288079,29.5486402 L73.8345574,38.7110542 C76.5712837,39.8767241 78.8136411,41.1638591 80.5616297,42.5724591 C80.9547261,43.0459375 81.3826756,43.9531466 79.5331764,43.5471835 L79.1051295,43.4550022 C77.3911351,43.0938936 75.6932582,42.8434667 75.3723875,43.3978671 C75.0247775,43.9984675 76.0490387,44.9188008 75.4066123,45.7048321 C74.9783281,46.2288531 73.5379746,44.5620451 71.0855517,40.7044082 L61.3048162,34.9462724 L64.4288079,29.5486402 Z" id="Skin" fill="#B28B67"></path>
                    <path d="M40.5168887,3.06268902 L43.3342199,2.32258051 C49.3332088,14.1752882 58.907027,24.5842645 72.0556746,33.5495092 L63.767679,45.6091615 C50.2481917,32.3887024 41.3953691,18.3030063 40.5168887,3.06268902 Z" id="Coat-Back" fill="#191847" transform="translate(56.286282, 23.965871) rotate(5.000000) translate(-56.286282, -23.965871) "></path>
                    <path d="M29.8828125,37.7967914 L55.4492188,37.7967914 C49.52607,23.4158241 46.5644956,11.1993629 46.5644956,1.14740791 L38.8523738,0 C32.7913707,9.73380333 31.0797275,21.7180861 29.8828125,37.7967914 Z" id="Shirt" fill="#DDE3E9"></path>
                    <path d="M39.1955427,-4.26325641e-14 C39.7979231,0.0207130182 40.7154257,0.0580316333 41.9480506,0.111955845 L41.9480506,0.111955845 L43.8115759,5.42976772 C44.0086956,11.9134236 45.1598445,24.9797397 47.2650226,44.6287161 L47.2650226,44.6287161 L30.50572,44.6283994 C30.5496533,45.9855767 30.6220974,47.3554329 30.7230524,48.7379679 L30.7230524,48.7379679 L18.2617188,48.7379679 C20.1257144,27.7388541 26.9327936,11.4928648 38.6829564,1.42108547e-14 L38.6829564,1.42108547e-14 L38.6887188,0.005 L38.6921271,-4.26325641e-14 Z" id="Coat-Front" fill="#2F3676"></path>
                    <path d="M35.1953125,44.7593583 L30.5100095,44.7582638 C30.3050173,38.6737322 30.6723901,32.8437336 31.6121282,27.2682681 C32.0902544,35.7264166 33.2843317,41.5562273 35.1953125,44.7593583 Z" id="Shade" fill-opacity="0.1" fill="#000000"></path>
                    <polygon id="Light" fill-opacity="0.2" fill="#FFFFFF" points="34.2360407 34.4812834 42.5 30.6449992 42.5 34.4812834"></polygon>
                </g>
            </g>
            <g id="Plant" transform="translate(212.000000, 75.000000)">
                <g id="Succulents" transform="translate(5.000000, 0.000000)">
                    <path d="M1.2728185,0.0780701274 C4.59818352,7.94895937 10.2509932,13.4177002 13.2449487,21.6018312 C15.0203357,26.4552613 15.7603961,31.7323149 15.8052835,37.1369805 C15.8296705,40.0725957 15.7783705,43.0100954 15.7645739,45.9457105 C15.751166,48.8085006 15.6730501,51.6529836 15.4290838,54.4974665 C15.1839515,57.3570259 14.9094773,60.1825286 14.7884171,63.0597222 C14.6941728,65.3015478 14.6511314,67.9091139 13.8882387,69.9540025 C13.2815777,71.5802482 11.7396638,71.8185111 11.3305272,69.8461784 C11.103175,68.7497649 11.1318369,67.5256048 11.156904,66.398769 C11.1890636,64.9530378 11.2734948,63.5094603 11.3165363,62.0639983 C11.4895765,56.2635739 11.2652363,50.4620726 11.3825072,44.6593597 C11.4970577,38.9899126 12.2286653,33.3266576 11.4191362,27.6950364 C10.7506821,23.0444664 9.05243934,19.0509368 7.10080587,15.2224412 C5.22311042,11.5390573 3.17946734,7.94519024 1.91057038,3.75539654 C1.54622401,2.55210124 1.26455998,1.30519172 1.12941176,0.0113026518 C1.18848446,-0.016023553 1.2362867,0.00618740161 1.2728185,0.0780701274 Z" id="Thi-Succs!" fill="#C1DEE2"></path>
                    <path d="M0.366527399,15.6063584 C1.02500307,16.079997 1.39294563,16.7728415 1.83801462,17.4564562 C2.39148514,18.3063599 3.04217741,19.0736575 3.59550642,19.9241764 C4.74928939,21.6973599 5.76297115,23.5794541 6.81472081,25.4244757 C8.81151679,28.92654 10.3275817,32.6590398 11.0784675,36.7105803 C11.8568076,40.9093349 12.0666763,45.2431511 12.3931546,49.504514 C12.7394452,54.0210787 13.0881415,58.5705627 13.1339928,63.10451 C13.1545127,65.1358181 13.2647539,67.292189 13.0199306,69.309191 C12.8675175,70.5648947 12.2986217,71.635081 11.0160588,71.625 C8.29172717,71.6033923 7.01270221,68.5977332 6.4783364,66.1326282 C5.69178841,62.502886 5.53484676,58.6473232 5.65938116,54.9352827 C5.80981307,50.4593288 6.58970978,46.050598 6.92722632,41.5918729 C7.28469668,36.8717928 7.08275282,32.2350879 5.45361636,27.7908227 C4.63055715,25.5449235 3.67532165,23.3528645 2.81759093,21.1218867 C2.45233718,20.1719944 2.15317157,19.1962589 1.65984551,18.3117439 C1.11104502,17.3278554 0.429785217,16.434726 -3.0475622e-14,15.375 C0.122128628,15.452222 0.244398771,15.5292902 0.366527399,15.6063584 Z" id="Thi-Succs!" fill="#89C5CC"></path>
                    <path d="M31.7493243,6.19412632 C31.8328521,6.12946386 31.9164827,6.06481506 32,6 C31.7594126,7.00974657 31.3248222,7.82996019 30.9926226,8.75298996 C30.6940082,9.58279752 30.5426499,10.5218344 30.3415211,11.4288564 C29.8692298,13.5591588 29.3234547,15.6414434 28.8773665,17.7898939 C27.9943135,22.0412821 28.1613283,26.6213191 28.7404741,31.3380572 C29.2874356,35.7936098 30.1524623,40.2422673 30.5646476,44.6968533 C30.9063228,48.3911512 31.0531799,52.2006527 30.7272632,55.7253749 C30.5057825,58.1191384 29.7797853,60.9772477 27.8016518,60.7356598 C26.8703856,60.6219387 26.38459,59.5054234 26.1888712,58.2450769 C25.874489,56.2206166 25.8086778,54.0921757 25.6861348,52.0791349 C25.4126512,47.5859657 25.3581736,43.1066147 25.3041755,38.659687 C25.25305,34.4640026 25.1122893,30.1851908 25.3937383,26.0952262 C25.6651997,22.1486455 26.5142545,18.5924022 27.7282177,15.3111467 C28.3676063,13.5824327 28.976825,11.8132689 29.6952156,10.1656651 C30.0397306,9.37537261 30.4606243,8.67703161 30.8052838,7.88736312 C31.0824273,7.25218731 31.3029037,6.60041158 31.7493243,6.19412632 Z" id="Thi-Succs!" fill="#C1DEE2"></path>
                    <path d="M1.20802173,28.6131834 C1.56827166,28.0107469 2.36124806,29.9975285 2.48193231,30.2474157 C2.43088938,30.1231156 2.37964344,29.998994 2.32794431,29.8749803 C3.04300712,31.0593475 3.69717641,32.2922735 4.10389945,33.650307 C4.50637188,34.9946673 4.85206626,36.3662016 5.22970729,37.7201172 C5.93829254,40.2603748 6.85239178,42.7285335 7.49438593,45.291675 C8.11993668,47.7893339 8.27766435,50.244709 8.12622988,52.8281991 C7.96884295,55.5133092 7.87255478,58.2396162 8.05616492,60.9232782 C8.14385545,62.2050069 8.56196633,63.3989127 8.8485341,64.6328673 C9.13545095,65.8680384 9.36142829,67.1196782 9.70062239,68.3395346 C9.77848283,68.1806234 9.7884012,68.7118894 9.78823529,68.752218 C9.78610447,69.0569691 9.74338412,69.3125182 9.6449514,69.6014856 C9.39201401,70.3445769 8.91882166,70.9758723 8.19876674,71.1808319 C6.89751193,71.5511696 5.68931552,70.3721372 5.26968467,69.1271281 C4.66769883,67.3407319 4.33598011,65.3666072 4.04909263,63.4890208 C3.78607596,61.7672913 3.72383665,60.0352844 3.80197696,58.2898451 C3.95590247,54.8477441 4.58125698,51.4507067 4.75041995,48.0096539 C4.93453254,44.2633945 4.18938005,40.7434789 3.56548669,37.0968099 C3.26497251,35.339697 2.97778584,33.5991632 2.39296165,31.9251252 C2.15618613,31.2472466 1.84747959,30.6490185 1.52380016,30.0230366 C1.3396265,29.6668906 0.96717225,29.0316057 1.20802173,28.6131834 Z" id="Thi-Succs!" fill="#C1DEE2"></path>
                    <path d="M11.7654937,22.761393 C11.6162401,27.0531822 11.3588787,31.3124154 10.7844474,35.5589798 C10.1981877,39.8926056 9.52482897,44.2113529 8.9607356,48.5488088 C8.4116246,52.7709194 7.83606373,57.0631505 7.91279721,61.3441859 C7.96930993,64.4975476 7.44438242,69.8320115 10.9603273,71.3883632 C14.5212555,72.9644548 15.2850901,66.2337674 15.518914,64.0121544 C15.9669974,59.7498276 15.8219317,55.4425707 15.6044712,51.1569686 C15.3812199,46.7585255 15.0085392,42.3824738 14.5466529,38.0000878 C14.033632,33.1323085 13.6310997,28.2425797 13.3080332,23.3609531 C13.1481939,20.9463613 13.1088169,18.535747 13.1529182,16.120566 C13.1946056,13.8415013 13.1076746,11.5388667 12.2942096,9.375 C12.2515868,9.40578822 12.2092472,9.43657644 12.1666216,9.46721734" id="Thi-Succs!" fill="#69A1AC"></path>
                    <path d="M30.1487987,36.3582094 C29.5083988,37.2874857 28.8628494,38.20772 28.2580744,39.1920707 C27.1759583,40.9532158 26.197429,42.9118475 25.903053,45.430059 C25.2870157,50.7001368 25.7812416,56.3921084 25.9005265,61.8235046 C25.924925,62.9334165 25.7840007,64.0098317 26.2231794,65.0661077 C26.6213719,66.0239487 27.3658449,66.7538889 28.0754848,66.75 C29.5946555,66.7413534 29.362872,63.0357561 29.3653755,61.4046932 C29.3699566,58.5459663 29.0481405,55.6582637 29.0758389,52.8022083 C29.1034944,49.9726626 29.2762429,47.1353078 29.6880939,44.4479689 C30.1050617,41.7279552 30.7156941,39.1160352 31.5215566,36.6785857 C31.633387,36.3403308 32.435931,33.7265613 31.6777024,34.1770199" id="Thi-Succs!" fill="#89C5CC"></path>
                    <path d="M23.4398852,8.25 C22.4410922,8.25 22.4472154,13.209749 22.4171691,13.8468049 C22.3086603,16.1457728 22.3341499,18.4453557 22.2655132,20.7447848 C22.1152813,25.7628114 21.930731,30.8248153 21.1740179,35.7848718 C20.7666118,38.4550328 20.2942713,41.1133537 19.7861884,43.7632174 C19.2766815,46.4207694 18.5927348,49.0750924 18.2575254,51.7663194 C17.9357016,54.3534462 18.1175463,56.9914699 18.1616903,59.5913594 C18.2058343,62.2069331 18.285151,64.8277349 18.6291892,67.4203974 C18.7140595,68.0603749 18.8135971,68.6980459 18.9201122,69.3341793 C19.0088273,69.8642135 18.9571362,70.5215667 19.1072257,71.0253068 C19.3478815,71.8321214 20.3794264,72.096139 21.0740532,71.9700502 C22.9535895,71.6282266 24.1541631,69.2774393 24.7962443,67.5598639 C25.6161829,65.3666876 26.0512147,62.9877611 26.4805504,60.6764919 C26.9669884,58.0579966 27.2520731,55.399522 27.3857866,52.7336665 C27.657628,47.3156924 27.3087482,41.8918751 26.9191421,36.4912766 C26.7024094,33.4877492 26.4520704,30.4974457 26.0690146,27.5125241 C25.6875253,24.5403651 25.1980968,21.5814301 24.8794058,18.6005064 C24.6478636,16.4342393 24.4197389,14.2650507 24.2697918,12.0904803 C24.2339071,11.5719785 24.2037183,8.25 23.4398852,8.25" id="Thi-Succs!" fill="#69A1AC"></path>
                    <path d="M22.1894749,44.3020135 C22.0266748,39.0947606 19.9252814,16.2220904 19.4471833,9.92517461 C19.327627,8.34906361 18.1765793,1.78673966 18.027261,-1.2490009e-14 C17.622423,0.50502825 17.657018,8.36604204 17.6614695,10.1723229 C17.6661755,11.9590626 17.4437244,13.71617 17.3292556,15.4932993 C17.2126245,17.3066278 14.5213351,40.7253308 14.172078,42.4677022 C13.4772522,45.9340252 13.0122544,49.4911668 12.6535854,53.0353343 C12.3042011,56.4898044 11.7609829,60.1342407 12.2285245,63.6068105 C12.335998,64.4062384 12.5060478,65.1928523 12.7829352,65.9272495 C13.0820804,66.720751 13.2871068,67.4545075 13.5272369,68.2848489 C13.9136328,69.6223008 14.6126558,70.796055 15.686755,71.3481744 C17.888881,72.4802834 19.071344,69.9175013 19.6707791,67.6862791 C20.6281201,64.1230509 21.2425633,60.5016796 21.5306432,56.7595372 C21.8493753,52.6193627 22.3198422,48.470699 22.1894749,44.3020135" id="Thi-Succs!" fill="#89C5CC"></path>
                </g>
                <g id="Planter" transform="translate(0.000000, 60.000000)">
                    <rect id="Vase" fill="#FFFFFF" x="3.78378378" y="0" width="34.4324324" height="34.0325203" rx="2"></rect>
                    <rect id="Leg" fill="#C5CFD6" x="0" y="3.7398374" width="3.78378378" height="42.2601626" rx="1.89189189"></rect>
                    <rect id="Leg" fill="#C5CFD6" x="18.9189189" y="3.7398374" width="3.78378378" height="42.2601626" rx="1.89189189"></rect>
                    <rect id="Leg" fill="#C5CFD6" x="38.2162162" y="3.7398374" width="3.78378378" height="42.2601626" rx="1.89189189"></rect>
                </g>
            </g>
            <g id="Big-Leaf-Plant" transform="translate(1.000000, 91.000000)">
                <g id="Big-Ass-Leaf" transform="translate(9.000000, 0.000000)">
                    <path d="M9.24939157,0.451189644 C10.2983915,0.316585168 11.417993,0.364099998 12.3935323,0.798986966 C14.4679166,1.72384936 15.0575637,4.29774754 15.0291175,6.38981471 C14.9984503,8.64155429 14.5431736,11.1010232 16.1731411,12.9153042 C16.9224048,13.7494059 17.8544305,14.3877366 18.5901572,15.2371539 C19.3762931,16.1448709 19.9931319,17.1834795 20.4498548,18.2987804 C21.2884524,20.3473766 21.7000507,22.756499 20.9331991,24.9054899 C20.2579997,26.7975503 18.5592737,28.5052969 18.9263272,30.6567526 C19.3091963,32.9011217 21.4636262,34.6169607 22.8105851,36.2886633 C24.334962,38.180507 25.7384993,40.5984566 25.9690687,43.0794111 C26.1901619,45.4570476 25.2047689,47.8616849 23.692507,49.6589837 C20.6710037,53.2502839 16.1292158,55.0108581 11.5496995,55 C9.60536159,54.9952187 7.40397633,54.9029879 5.72606508,53.8055823 C5.2074823,53.4663824 4.93389656,53.0858307 4.62561362,52.5568099 C4.3492049,52.082432 3.98407109,51.7738693 3.56143604,51.4381995 C2.63290825,50.7009208 1.96234647,49.7072475 1.53441079,48.5949344 C-0.127355979,44.2746243 1.20082163,38.929871 3.52691897,35.0934021 C4.07810134,34.1844642 4.52936308,33.3097934 4.26159644,32.2263929 C3.98217384,31.0954541 3.29541376,30.0754088 2.68798225,29.1032707 C2.08774338,28.1424952 1.40249077,27.2259283 0.933347841,26.1871193 C0.441997398,25.0988928 0.30363705,23.9593368 0.390453168,22.7683635 C0.553618113,20.531198 1.47311328,18.4667233 2.77491831,16.6675481 C4.02879744,14.9345489 5.50106085,13.2763371 5.50435975,11.005586 C5.50798239,8.59889918 3.97607067,6.45800281 4.6286877,4.01114582 C4.89891386,2.9979467 5.44167339,1.95839829 6.31637038,1.3509704 C7.15522116,0.768402371 8.26281962,0.577783552 9.24939157,0.451189644 Z" id="leaf" fill="#DDE3E9"></path>
                    <path d="M8.5639458,4.29862729 C8.58361721,3.9754001 8.94866864,3.78154044 9.23604509,3.86588503 C9.61431164,3.97696046 9.60703689,4.34818137 9.59705017,4.67891014 C9.56643648,5.69549168 9.70653103,6.68344298 9.93919792,7.66981535 C10.422771,9.72059329 11.3164791,11.6100482 12.0245201,13.579983 C12.731944,15.5482687 13.0640237,17.5804641 12.6490191,19.6631914 C12.2577937,21.6269128 11.6431665,23.5397368 11.242785,25.5059368 C10.8898812,27.2388896 10.5143746,29.0663855 11.051802,30.7949255 C11.5689393,32.4587709 12.7122587,33.813791 13.5355479,35.3174207 C15.2398514,38.4300298 15.9959569,41.8830977 16.0970894,45.4366091 C16.1439578,47.0867233 16.1017517,48.7520111 15.7372757,50.370414 C15.5274955,51.3022946 15.2455861,52.5616898 14.4852678,53.2050628 C14.1346656,53.5017558 13.5350244,53.6043478 13.2399396,53.1649791 C12.9628979,52.7528861 13.2059388,52.1149249 13.29389,51.6756985 C13.6747825,49.7743584 13.7514095,47.8312644 13.6602184,45.9006524 C13.5719601,44.030601 13.3615937,42.1636728 12.8012215,40.377696 C12.2811209,38.7202839 11.4909918,37.2316057 10.5610577,35.7817224 C9.61346124,34.3041899 8.62835158,32.8235051 8.23680811,31.0727812 C7.83898843,29.294667 8.16217701,27.4853788 8.59432447,25.7412228 C9.05133094,23.8963977 9.64993792,22.1044952 10.2687908,20.3096547 C10.8718843,18.5607165 11.0856513,16.9059099 10.7527185,15.0754428 C10.0950257,11.4590499 8.33457545,8.06466025 8.5639458,4.29862729 Z" id="middle-thing" fill="#C5CFD6"></path>
                </g>
                <g id="Big-Ass-Leaf" transform="translate(12.000000, 4.000000)">
                    <path d="M34.0846246,0.592247618 C35.4139431,0.995120246 36.7342061,1.64513779 37.681805,2.66438401 C39.6967154,4.83184463 39.0784857,8.1077146 37.9661768,10.5003766 C36.7689134,13.0756267 34.9546001,15.6641753 35.9773629,18.6189673 C36.4474485,19.9773562 37.2379392,21.2076109 37.6838727,22.5764287 C38.160308,24.0391487 38.3659463,25.5624924 38.3397469,27.0889628 C38.291244,29.8926316 37.5440773,32.8841842 35.5155367,34.9497239 C33.7294877,36.7682937 30.8090699,37.8304887 30.1411887,40.5018031 C29.4444207,43.2884624 31.1478455,46.4088316 31.9041651,49.0490424 C32.7601316,52.0369561 33.1998305,55.5661173 32.1982122,58.5440827 C31.2384567,61.3980992 28.8156798,63.6416597 26.0730729,64.906071 C20.5931866,67.432705 14.230752,67.0439424 8.73593181,64.5962955 C6.40303202,63.5569768 3.80648643,62.2802719 2.35669836,60.125048 C1.9086362,59.4589094 1.77614977,58.8754521 1.6785019,58.1026699 C1.59097789,57.4097258 1.31143402,56.8604421 0.976795175,56.2493851 C0.241498462,54.90711 -0.0518236944,53.4069165 0.00741234555,51.8991919 C0.237932175,46.043269 4.58760892,40.5981609 9.35859268,37.4195869 C10.4890352,36.6665615 11.4818038,35.8998433 11.7185183,34.5105622 C11.9657316,33.0603707 11.6665445,31.5212122 11.4379497,30.0793726 C11.2121384,28.6544348 10.8614345,27.2351726 10.8332965,25.7901334 C10.8039522,24.2764106 11.2250358,22.8913093 11.9430758,21.5667655 C13.2919711,19.0787426 15.4602963,17.1916397 17.951091,15.8131614 C20.3502185,14.4853619 22.9731051,13.3597588 24.147294,10.7480754 C25.391926,7.98011388 24.6552582,4.70155569 26.7000968,2.23245526 C27.5468145,1.21003984 28.7344502,0.302214392 30.0980825,0.0682251687 C31.4058486,-0.156213201 32.8344164,0.213350707 34.0846246,0.592247618 Z" id="leaf" fill="#DDE3E9"></path>
                    <path d="M31.3692203,5.16943601 C31.5578255,4.80746194 32.0939354,4.77961155 32.3949758,5.030773 C32.7911998,5.3614337 32.5929314,5.7853608 32.4120922,6.16116866 C31.856335,7.31635715 31.5196064,8.53000333 31.2945317,9.79142357 C30.826376,12.413967 30.9316998,15.0703105 30.773607,17.719938 C30.6156173,20.3673343 29.9755497,22.8873023 28.4151075,25.0652721 C26.9439071,27.1188292 25.2311915,28.9940452 23.7477618,31.0455538 C22.4402864,32.853685 21.0574692,34.7586662 20.8183448,37.0386884 C20.58796,39.2332815 21.2650725,41.4074241 21.4830905,43.5813864 C21.9344524,48.0816496 21.0765766,52.4663069 19.3831353,56.6158347 C18.596654,58.5426659 17.6957652,60.4392645 16.4329259,62.1091797 C15.7058828,63.0707673 14.7252314,64.3711671 13.486286,64.705316 C12.9149677,64.8594206 12.1445603,64.6564103 12.0155767,63.9919612 C11.8942704,63.3686133 12.5110556,62.7635803 12.8406533,62.304499 C14.2676269,60.3172995 15.3515888,58.1189752 16.2282287,55.8451311 C17.0774561,53.6426531 17.7788744,51.3783575 18.0198533,49.0198484 C18.2434049,46.8310821 18.0574587,44.6921159 17.6842975,42.5229621 C17.3041059,40.3124812 16.8806049,38.0782702 17.3057409,35.8508359 C17.7373482,33.5884724 19.0482215,31.6764469 20.4563053,29.8978574 C21.9455607,28.0165667 23.577347,26.2721277 25.2348763,24.535149 C26.8500957,22.8426289 27.9510624,21.05002 28.4870994,18.7620827 C29.5462153,14.2419194 29.1715086,9.38683043 31.3692203,5.16943601 Z" id="middle-thing" fill="#C5CFD6"></path>
                </g>
                <g id="Big-Ass-Leaf" transform="translate(0.000000, 21.000000)">
                    <path d="M5.06894343,-1.56319402e-13 C7.31438705,-1.56319402e-13 9.2885074,1.18086092 10.648796,2.85654186 C12.2411429,4.81816443 12.5627478,7.21369555 13.2093474,9.55160034 C13.5310936,10.7150775 14.0844744,11.8700682 15.0542326,12.6605483 C15.9362804,13.3794403 17.0560361,13.5233009 18.1118099,13.8745341 C20.2218037,14.5764531 21.9255895,16.2673276 22.5984599,18.3305149 C23.4193504,20.8471846 22.5498731,23.3852074 22.6995882,25.9356863 C22.8370153,28.2779713 25.1648022,29.7392986 27.037653,30.8621226 C28.8843743,31.9693423 30.5480478,33.0057951 31.1042534,35.162745 C31.6940743,37.4504149 31.8919524,40.0039052 31.0750166,42.2637886 C29.7148693,46.0266107 25.7342844,47.6835391 21.8880195,47.9404623 C18.3973984,48.1735684 14.0083457,47.8075521 11.3869195,45.293757 C9.81830102,43.7894494 9.25023119,41.6856088 9.32071027,39.5924449 C9.36449486,38.2908561 9.62437763,37.0013127 9.9603891,35.7435254 C10.1985208,34.8520281 10.520267,33.9643635 10.6119321,33.0431633 C10.8555722,30.5923328 8.57241738,30.1216036 6.62894625,29.4487031 C4.15935374,28.5934789 2.43042713,26.9781619 1.22818685,24.7277232 C0.108572336,22.6323692 -0.361194016,20.280229 0.309981481,17.973259 C0.652772502,16.7952725 1.27451378,15.7265161 2.11772037,14.8174982 C2.48890076,14.4173989 3.01205607,14.0836863 3.34707885,13.6633288 C3.65978562,13.2707579 3.59170763,12.762113 3.48394103,12.3023342 C2.98564407,10.1785092 1.43312701,8.41987922 0.877910074,6.29988687 C0.376647061,4.38630906 0.672969913,2.00473966 2.43635924,0.77022191 C3.19821122,0.236801831 4.13774393,0.00588582586 5.06894343,-1.56319402e-13 Z" id="leaf" fill="#C5CFD6"></path>
                    <path d="M8.1286443,5.53374868 C10.508574,8.04889055 11.1554677,11.4614077 11.3453184,14.768939 C11.4516629,16.6236423 11.340975,18.5799093 11.8902111,20.3789031 C12.3601442,21.918649 13.461839,23.0956669 14.5974407,24.2080782 C16.8833558,26.44741 19.4326801,28.7239727 20.101291,31.9648442 C20.4936025,33.8667705 20.2287922,35.8312503 20.7708827,37.7122342 C21.263794,39.4219832 22.1316431,41.1017558 23.1872413,42.5455499 C24.0371562,43.7081956 25.1444554,44.5983163 26.0735331,45.68212 C26.3569782,46.0129552 26.7630206,46.4999688 26.6460277,46.9669982 C26.509139,47.5139645 25.8069014,47.6871158 25.3086658,47.6011561 C24.1470034,47.4009029 23.169167,46.3004 22.4096239,45.5003454 C21.298962,44.3304451 20.3551726,43.0721213 19.5880635,41.6606306 C18.7364673,40.0930983 18.0507628,38.4297512 17.7577902,36.6711366 C17.4537487,34.8466835 17.6050689,32.9453047 16.9108176,31.1943553 C15.74257,28.2481831 12.90896,26.5095528 10.8602533,24.2132796 C8.30770648,21.3519721 8.68838875,17.790805 8.94983635,14.271112 C9.09345038,12.3368824 9.23622375,10.1525757 8.25110153,8.38656974 C7.87504293,7.71244328 7.03661719,7.08389735 6.8749288,6.31765168 C6.72683121,5.61560201 7.53513303,4.9061609 8.1286443,5.53374868 Z" id="middle-thing" fill="#AFB9C5"></path>
                </g>
                <path d="M11,69 C11,82.7797979 13.3889342,90 26.0000358,90 C38.6111374,90 41,82.7797979 41,69 L11,69 Z" id="Base" fill="#89C5CC"></path>
            </g>
        </g>
    </g>
</svg>