<?xml version="1.0" encoding="UTF-8"?>
<svg width="227px" height="233px" viewBox="0 0 227 233" version="1.1" xmlns="http://www.w3.org/2000/svg" xmlns:xlink="http://www.w3.org/1999/xlink">
    <!-- Generator: Sketch 57.1 (83088) - https://sketch.com -->
    <title>Group 4</title>
    <desc>Created with Sketch.</desc>
    <defs>
        <path d="M21.0268806,4.60568009 C20.9526675,4.14136285 21.0995965,3.9134739 19.2475381,2.60537723 C17.3954796,1.29728056 14.4052492,-0.245510607 11.3935203,0.425919998 C7.48499769,1.29728056 5.93260364,3.89611067 4.42540014,5.15955228 C3.06669669,6.29854785 1.70343306,6.43137732 0.895518779,7.84468459 C0.0876044947,9.25799187 -0.342236179,13.3240103 0.360283391,14.9405315 C1.32937266,17.1704387 3.24042903,17.7709715 4.6354867,18.4134121 C7.02803283,19.5152079 10.4098431,18.3515648 10.4917651,18.1588051 C11.125467,16.6677256 14.5365508,12.4614793 16.5882353,10.6942903 C18.0969397,9.39478938 21.3751963,6.78493037 21.0268806,4.60568009 Z" id="path-1"></path>
    </defs>
    <g id="UI" stroke="none" stroke-width="1" fill="none" fill-rule="evenodd">
        <g id="Landing-page" transform="translate(-61.000000, -1284.000000)">
            <g id="Group-8" transform="translate(0.000000, 1242.000000)">
                <g id="Group-4" transform="translate(61.000000, 42.000000)">
                    <path d="M253.726719,137.601972 C253.768429,138.420384 253.856675,139.222294 254,140 C253.772559,139.306316 253.698215,138.486204 253.726719,137.601972 Z M242.934395,99.6937059 C243.279613,100.033002 243.539076,100.49455 243.668978,100.923867 C243.420253,100.515465 243.175484,100.105416 242.934395,99.6937059 Z M220.335415,96.1808059 C220.453096,96.2314333 220.560352,96.2827097 220.651365,96.3355237 C220.675762,96.3928137 220.698783,96.4488401 220.718208,96.5018981 C220.58665,96.4024746 220.461208,96.2910534 220.335415,96.1808059 Z M225.531157,93.6222866 C225.817868,93.7567421 226.124401,93.935602 226.438829,94.1406975 C226.311288,94.1890135 226.198155,94.3013168 226.109549,94.4470127 C225.692856,94.3484961 225.245295,94.3026691 224.835281,94.2290005 C225.06732,94.026877 225.299101,93.8247402 225.531157,93.6222866 Z M212.599277,85.1486954 C212.668751,85.1880712 212.750729,85.2253172 212.840323,85.2621654 C212.826686,85.2630442 212.815063,85.2636307 212.801426,85.2645095 L212.599277,85.1486954 Z M214.854331,84.02639 C214.879153,84.0332451 214.903974,84.0401002 214.92955,84.0477892 C214.825564,84.1019674 214.723424,84.1590229 214.620529,84.2152444 C214.698204,84.152147 214.776278,84.0890704 214.854331,84.02639 Z M202.687072,67.0052114 C202.792883,67.0945732 202.915386,67.2108953 203.071697,67.2915519 C203.004185,67.3317596 202.936979,67.3719833 202.868863,67.4119797 C202.859602,67.3139719 202.80365,67.1815034 202.687072,67.0052114 Z M196.614563,64.7453195 C197.079478,64.7486679 197.544185,64.755943 198.007992,64.7749839 C197.468481,64.8547696 196.929657,64.9641229 196.392588,65.0881364 C196.46604,64.9734423 196.54137,64.8604209 196.614563,64.7453195 Z M197.189037,57.5845659 C197.430335,57.9397037 197.673714,58.3008208 197.931746,58.6400981 C197.903559,58.6955778 197.876427,58.7516996 197.848022,58.807168 C197.695225,58.5165237 197.475483,58.1407863 197.244217,57.7688519 C197.204781,57.6370502 197.183416,57.5631378 197.189037,57.5845659 Z M190.173618,40.5155979 C188.723214,43.1169176 184.421631,42.7015526 182,42.3940088 C182.244285,42.4067336 183.290647,39.9916467 183.598378,39.6423371 C184.505946,38.6118615 185.728616,37.9240677 186.990979,37.4570377 C189.044167,36.6990982 191.527732,38.0863504 190.173618,40.5155979 Z M191.036797,37.4421875 C191.019438,38.0766729 191.052138,38.9504136 190.664296,39.3626221 C190.691486,38.9378801 190.73335,38.5206363 190.817034,38.1286585 C190.892106,37.9000097 190.964445,37.6712185 191.036797,37.4421875 Z M191.070729,37 C191.051023,37.1139304 191.042537,37.2553809 191.037707,37.4119325 C190.976519,37.5634641 190.922685,37.719868 190.877697,37.8817208 L190.817034,38.1286585 L190.817034,38.1286585 C190.74028,38.3632321 190.661818,38.5977168 190.58199,38.8321303 C190.614282,38.6678703 190.650635,38.5045434 190.69994,38.3423722 C190.69865,38.3473554 191.013746,37.1843779 191.070729,37 Z" id="Leaf-Bottom" fill="#F2F2F2"></path>
                    <path d="M35.0707171,77.4259877 C35.1831588,77.9676673 35.3401609,78.4942965 35.549495,79 C35.2643333,78.5576101 35.1194876,78.0176412 35.0707171,77.4259877 Z M82.7057944,2.37422209 C82.6189369,3.75461145 81.9913378,5.01058133 81.2442189,6.1253307 C81.1640596,6.24338231 81.1869194,6.23764439 81.1662457,6.07326242 C81.1547327,6.15452269 81.1274579,6.21450364 81.0870207,6.25796156 C81.1251817,6.98453743 81.1998838,7.72839571 81.1634969,8.37136771 C81.0591861,10.2126693 80.8432635,12.0647569 80.5302053,13.8824621 C80.4540575,14.3245428 80.3668678,14.763038 80.269168,15.1977382 C81.0072619,14.5702798 82.0022812,14.0126282 82.3916017,13.8382001 C83.4020548,13.3859411 84.9591816,12.8973898 85.9622096,13.6621966 C86.7943579,14.2966502 86.8334936,15.417556 86.1530865,16.1766312 C85.3428804,17.0803026 83.8643253,17.0481677 82.7606619,16.9607172 C82.2614215,16.9211026 79.5957142,16.7095045 80.2278197,16.2739579 C80.1792004,16.2922928 80.0776654,16.3368014 79.9690003,16.3972733 L79.8789935,16.7164111 L79.8789935,16.7164111 L79.7848495,17.0342721 L79.8306342,17.0623035 C79.8124915,17.0543805 79.7997428,17.0458102 79.7837652,17.0377729 C79.141614,19.1512393 78.2280721,21.1637642 77.0322434,23.0467429 C77.4793856,22.8708933 77.9424971,22.7376986 78.4121609,22.6782858 C79.8029854,22.5020937 82.7280959,23.5788364 81.1715042,25.4270327 C79.6789643,27.1988072 77.3577083,25.2999715 75.6649656,25.0388185 C74.0217537,27.3260236 72.2102175,29.5180829 70.3118307,31.6369748 C70.4280619,31.6732489 70.5300573,31.748879 70.588473,31.866683 C71.3498216,31.4810416 72.1432476,30.929502 72.8477649,30.7799375 C73.8643825,30.5644169 75.9488464,30.4329817 76.7166711,31.3403373 C77.6610613,32.4560422 76.6476774,33.3631907 75.5311436,33.5778241 C73.9121466,33.8891255 71.7934193,33.1011193 70.2360104,32.5687526 C70.0578116,32.600272 69.8633321,32.5483737 69.7472029,32.4062492 C69.7127857,32.3950168 69.678378,32.3839652 69.6448912,32.3732275 C67.7224469,34.4817901 65.726549,36.5208278 63.7428004,38.5151825 C63.7639106,38.514068 63.7850113,38.5127727 63.8070236,38.5116106 C64.3243964,38.1729232 64.879304,37.8949638 65.480712,37.7492118 C66.8719336,37.4102439 68.5086241,37.4077501 69.6369712,38.4113416 C70.7609333,39.4106336 71.1583809,41.1591106 69.994498,42.282451 C67.6648416,44.5310441 64.2367017,39.4085449 63.062263,39.1952433 C61.0463459,41.2007208 58.9148448,43.0745571 56.7498994,44.9106484 C56.9956843,44.8358689 57.2477455,44.7808759 57.508252,44.7560668 C59.6303856,44.5523212 64.6098839,47.1452513 62.0043351,49.7002088 C59.733774,51.9266516 57.1092549,47.644915 55.2811179,46.1479563 C53.2410328,47.8592862 51.1898434,49.558878 49.1961942,51.3246661 C50.2831955,51.0361954 51.3335776,50.9932464 52.4985161,51.3438868 C53.70392,51.7072527 55.6488285,52.6144491 54.8858836,54.2387787 C54.1098961,55.8906206 51.7742137,55.1403486 50.5577536,54.616624 C49.8942833,54.3310357 48.56425,53.366547 47.3962537,52.9606082 C44.2148313,55.9573868 41.4588151,59.2577595 39.3716313,63.1450233 C38.068598,65.5721302 37.079407,68.1649967 36.3827122,70.8297793 C35.9380143,72.5306465 35.0620601,75.3874032 35.2360086,77.6007833 C34.4037804,73.1705945 35.9153435,67.8485647 37.5427603,63.8875225 C39.0391206,60.2451347 41.2774108,57.0471291 43.8986712,54.1681887 C43.2422504,52.1957766 37.7100719,49.3532757 41.0190828,47.5187684 C42.7762337,46.5487916 44.5746392,48.1558836 44.9577713,49.8587186 C45.2209204,51.028876 44.8183416,52.4995178 44.3913022,53.6356106 C45.2158908,52.7580036 46.0730646,51.9085811 46.9563093,51.0873245 C48.1769367,49.9522887 49.4267758,48.8501465 50.6885537,47.7618733 C48.6112172,45.8149991 46.6471118,40.2472865 49.4341955,39.3351231 C53.5498177,37.9919682 51.5646215,45.5889346 51.2768447,47.0127361 C51.1953192,47.0175839 51.1318037,46.993026 51.0851011,46.9403943 C51.1081662,47.0707579 51.1349587,47.210168 51.1674196,47.3507287 C53.5824301,45.2786896 56.03321,43.2473537 58.403311,41.1258505 C58.1899602,40.9685597 57.8509306,40.367338 57.584429,40.0473799 C56.9829637,39.3260759 56.4075055,38.5725879 55.9870967,37.7286304 C55.3230164,36.394955 54.6829515,34.2674429 56.4455342,33.4818643 C58.3624058,32.6259743 59.2718898,35.0321487 59.2845218,36.4678201 C59.2931177,37.4607506 59.0215983,38.404129 58.8799114,39.3774449 C58.835637,39.6810057 59.0048734,41.0491433 58.5907049,40.4607693 C58.610136,40.6777769 58.612885,40.8349493 58.6031228,40.9463845 C59.0286446,40.5636112 59.4508735,40.176662 59.870426,39.7869542 C59.8510415,39.7377737 59.8366732,39.6841598 59.8334385,39.6219836 C59.8111722,39.1939794 60.2429539,39.0289091 60.5456403,39.1541159 C61.0992791,38.6291914 61.6475086,38.0976653 62.1859626,37.5555995 C63.3271915,36.4071751 64.4849887,35.2259774 65.6347843,34.0196472 C65.3855771,33.806071 65.4848864,33.5101167 65.2518197,33.2833639 C65.0191421,33.0571343 64.5606929,32.9321763 64.2870603,32.7220646 C63.5988167,32.1932894 63.0282577,31.4226872 62.615734,30.6642219 C61.9346716,29.4110081 61.0550153,26.781782 63.0467917,26.1832875 C65.0997987,25.5654299 66.1404246,28.0962619 66.2716048,29.6788237 C66.2971432,29.9854046 66.0656347,32.7481471 65.8889587,33.7514026 C68.0165088,31.5094924 70.1091094,29.1835188 72.0051165,26.8171767 C71.4306028,26.812166 69.8023892,25.6386803 69.4732713,25.3184032 C68.6702181,24.5372391 67.3939061,22.8108751 68.8029438,21.8962501 C70.0557955,21.0850226 71.5989632,22.2582859 72.1339593,23.3990482 C72.2218904,23.5868843 72.5314147,25.3354722 72.5552259,26.120078 C73.3399771,25.1166177 74.0885991,24.1072715 74.7851278,23.0946946 C75.2496376,22.4215078 75.6837314,21.730534 76.089924,21.0249028 C75.9922483,20.9697061 75.9003957,20.8734227 75.8136545,20.7536706 C73.7249954,20.4010501 71.0635002,17.1508982 73.5176163,16.0183438 C74.6860508,15.4798104 75.9523579,16.5895755 76.5241373,17.4984004 C76.641279,17.6843319 76.8306798,18.6193254 76.984838,19.3568139 C78.1535806,17.0192617 79.0470672,14.5447238 79.7274297,12.0076725 C79.5456143,11.9627177 79.3916797,11.8242203 79.3714999,11.5858658 C78.357654,11.0095775 77.5570667,10.5296877 76.8496832,9.42086294 C76.410212,8.73214834 75.6189426,7.15851827 76.9114382,6.77546496 C78.5934327,6.27705889 79.6485334,8.83920645 79.785481,10.1013914 C79.8014253,10.2478989 79.8006174,10.6740401 79.7948804,11.0645558 C79.8532658,11.0565799 79.9122924,11.0574509 79.9701746,11.0676256 C80.3572221,9.49667109 80.6663275,7.90554513 80.9123334,6.31176951 C79.9945748,6.01749476 79.8382755,1.20816794 80.4497987,0.523051096 C81.8166605,-1.0110054 82.7793161,1.20350817 82.7057944,2.37422209 Z M86.8177195,6.47404544 C85.9887129,8.44200785 82.923646,8.46631954 81.1926298,8.42731286 C81.3658833,8.41816599 81.9237929,6.61351308 82.1147941,6.34081515 C82.6780803,5.53636509 83.4891799,4.95336074 84.344743,4.52521267 C85.7364099,3.83003765 87.5916428,4.63628602 86.8177195,6.47404544 Z" id="Leaf-Top" fill="#C1DEE2" opacity="0.2"></path>
                    <g id="Plant-Left" opacity="0.5">
                        <path d="M71.680424,44.2813773 C73.3418099,41.9092194 76.4248666,35.8847173 78.7632361,35.0370741 C80.2693623,34.4911135 79.8302299,40.1386575 79.8488296,41.2155202 C79.9212625,45.3817325 79.5162181,49.5215278 79.0160211,53.652761 C78.1148665,61.1034232 75.1681699,67.7388042 71.1265571,74.0800843 C69.0468289,77.3430588 66.6074726,80.6455983 63.22885,82.6815381 C61.6736668,83.6191295 59.8023909,83.7761134 58.2665498,84.5839246 C56.4778387,85.5243225 57.4519672,84.7641096 56.645856,86.6305734 C55.5264,89.2219088 55.1683342,92.5650076 54.6503795,95.3300546 C52.2721855,108.023123 46.5146223,175.121992 47.512763,188.033269 C47.6014138,189.177668 46.0078654,189.451333 45.9283146,188.054261 C45.5054881,180.646596 49.1643023,129.348626 51.0102361,112.572715 C52.8561699,95.7968041 54.7241706,80.9761257 56.5972115,75.1721857 C58.8694892,68.130773 62.9733528,59.6629305 66.3895326,53.0965083 C67.9763224,50.0458968 69.7059547,47.1003771 71.680424,44.2813773 Z" id="Leaf" fill="#69A1AC"></path>
                        <path d="M84.2318954,125.906072 C88.624602,122.712587 93.379377,128.739646 89.4044301,131.933623 C87.2069851,133.69906 84.9096848,133.071046 83.6163673,131.599814 C82.776798,132.61322 81.9909895,133.672835 81.2359296,134.567841 C78.9354551,137.295094 76.7611589,140.087441 74.683162,142.944897 C70.3664445,148.881191 66.6670955,155.15276 62.7991628,161.309648 C58.9820191,167.386161 55.1953976,173.493798 51.7355899,179.724265 C48.8046416,185.002982 44.89806,191.212968 43.8945946,197 C45.4171177,184.726706 51.1944029,172.929898 58.0741419,162.110049 C64.8979001,151.379085 72.7289555,139.659681 83.2946649,131.191038 C82.2193343,129.625122 82.1894829,127.389895 84.2318954,125.906072 Z" id="Leaf" fill="#C1DEE2"></path>
                        <path d="M1.65648705,96.0121889 C4.09335414,96.4862756 8.07516749,101.970108 10.0838726,104.05949 C12.4710837,106.542429 14.6368766,109.188888 16.6783913,111.961718 C21.0733543,117.930121 25.0038763,124.275772 28.3461571,130.893175 C33.7949497,141.680866 38.1601412,152.754804 41.3281474,164.501995 C43.2673989,171.692876 44.5229839,179.145943 45.2671112,186.546964 C45.4076428,187.942752 46.8787008,198.704015 44.7589963,198.99406 C42.8525456,199.255228 43.4413771,190.822813 43.3494046,189.675797 C42.3097559,176.735309 39.1952631,164.144322 34.8630322,151.947264 C33.9194102,149.29025 33.042752,146.035883 31.5336778,143.644828 C30.4469329,141.922588 31.5258844,142.523188 29.6160733,141.871404 C27.976196,141.311408 26.1077893,141.448247 24.4285179,140.762766 C20.7804667,139.274524 17.8594242,136.385403 15.2989305,133.479287 C10.3229938,127.831506 6.37981702,121.721491 4.32440558,114.484693 C3.18420542,110.472125 2.13641966,106.436217 1.55496291,102.299572 C1.40455017,101.230371 0.0869193486,95.7068333 1.65648705,96.0121889 Z" id="Leaf" fill="#69A1AC"></path>
                        <path d="M11.466078,5.42457818 C20.5990672,21.2341177 28.1041835,38.6004823 32.9502913,56.1899832 C35.8864541,66.8472713 37.939801,77.7832149 39.9799645,88.6401613 C43.1387899,105.450789 46.1266763,122.26012 46.9765885,139.369354 C47.8316547,156.577742 49.5224904,176.425594 43.8771893,193 C46.6970455,176.172475 44.012351,158.260885 43.5370006,141.328925 C43.309842,133.245881 42.6515787,125.241863 41.7880603,117.206052 C40.9501017,109.410884 39.5811144,101.652835 38.3062788,93.9189373 C37.6852827,90.1523892 37.0330969,86.3915082 36.3690813,82.6326844 C36.1708498,81.5112348 36.0871126,78.1835022 35.3744099,77.4173905 C34.6570913,76.6462344 30.9972372,76.3318603 29.8482125,75.766032 C27.5344715,74.6263847 25.3580858,73.0075983 23.4319279,71.2971431 C19.739458,68.0182437 16.5271951,63.7339633 13.9918202,59.510637 C8.12562019,49.7385244 5.78031631,37.8129888 5.89885745,26.495639 C5.92163361,24.2983211 9.4619787,0.636722549 8.04011917,0.310882765 C8.12572717,0.210808749 8.20670579,0.107479319 8.28306184,0 C9.35953135,1.79900699 10.4158598,3.61020562 11.466078,5.42457818 Z" id="Leaf" fill="#89C5CC"></path>
                        <path d="M110.247807,62.5396279 C110.388805,62.3364521 111.30648,60.9234246 110.844367,61.0137301 C111.785245,60.8298649 109.55025,62.572149 111.894595,61.5030914 C110.781483,62.5533397 111.423896,63.9176287 111.438753,65.3311478 C111.462992,67.6260748 111.078646,69.9021829 110.645999,72.1478696 C109.962349,75.6976149 108.943895,79.1490048 107.465628,82.4506943 C104.243698,89.6458268 98.7726962,96.5724566 92.2776004,101.070801 C89.0711513,103.291814 85.9286885,104.047987 82.2717314,105.070458 C79.9618424,105.71642 79.7786646,106.910138 78.5525699,109.149465 C75.999933,113.813504 73.4927559,118.460766 71.2415567,123.28217 C68.5534756,129.039434 65.9439971,134.803044 63.4825015,140.661657 C55.1901643,160.396083 48.4409709,180.841244 44.8965008,202 C44.8097173,189.53121 47.6969525,176.689422 51.3389204,164.804591 C53.991875,156.145572 57.4455236,147.798541 61.1291771,139.536009 C62.0218009,137.534313 63.3744912,134.959454 63.7535596,132.749496 C64.0189833,131.20109 63.2075045,129.711977 62.8359646,128.08085 C61.3874965,121.728942 61.4911681,114.612758 62.7631385,108.226887 C64.1655833,101.185252 68.221389,97.9169901 75.0823082,96.919588 C77.5914837,96.5547484 80.7807103,96.6884645 83.0815007,95.6196305 C85.5881772,94.4557051 86.6222191,90.6298972 88.0476072,88.1740292 C91.876151,81.5770491 96.4250153,75.2501423 101.648368,69.6916394 C103.094665,68.1524192 104.650022,66.7323841 106.300083,65.4161859 C107.34061,64.585738 109.538694,63.5626273 110.247807,62.5396279 Z" id="Leaf" fill="#89C5CC"></path>
                        <path d="M36.680263,188 L54.1089262,188 C56.87035,188 59.1089262,190.238576 59.1089262,193 C59.1089262,193.242491 59.0912856,193.484661 59.0561442,193.724593 L58.2834835,199 C57.3582293,205.317253 51.939665,210 45.555013,210 L45.2341762,210 C38.8495242,210 33.4309599,205.317253 32.5057057,199 L31.733045,193.724593 C31.3328636,190.992319 33.2233974,188.452963 35.9556705,188.052782 C36.1956018,188.017641 36.4377718,188 36.680263,188 Z" id="Base" fill="#C1DEE2"></path>
                    </g>
                    <g id="Maceta" transform="translate(4.000000, 176.000000)" fill="#F2F2F2">
                        <path d="M6.89459459,19 C6.89459459,27.2842712 7.55329488,34 16.3945946,34 C25.2358943,34 25.8945946,27.2842712 25.8945946,19" id="Base"></path>
                        <path d="M19.5022045,13.873962 C19.170424,14.4376264 18.8745884,15.0125641 18.6132788,15.5961329 C18.6040561,14.3942947 18.6716892,13.1836492 18.8563795,11.9564461 C19.1720794,9.85433021 19.6542607,7.76313528 20.107355,5.67528711 C20.432987,4.17488293 20.4124133,1.4798625 21.6482541,0.284189389 C21.9871289,0.0257844896 22.0687143,0.532730161 22.0687143,0.752735423 C22.0729709,0.799237737 22.0677684,-0.145252427 21.7388257,0.0192671199 C19.7836149,1.01149261 19.1500868,4.13137508 18.5241261,5.69343005 C17.6108431,7.97345256 16.8337721,10.3042049 16.5138156,12.6763513 C16.4329397,13.275597 16.3889546,13.8746666 16.378786,14.4726793 C16.3123353,14.3127395 16.2499047,14.1515667 16.1808528,13.9921554 C15.0523736,11.3915487 13.5294469,8.85400205 11.6300452,6.51373791 C11.1625256,5.93791949 5.28388681,0.256182314 4.8236981,1.1258108 C4.86910213,1.25210685 4.9641668,1.3569132 5.10912861,1.44022985 C5.11764187,1.44974169 5.11787835,1.44445733 5.11291228,1.43036572 C5.45817205,1.97835321 6.43979761,2.82473054 6.74556534,3.30490215 C7.51506897,4.51325771 8.11312511,5.79559423 8.7208769,7.05344657 C10.0049595,9.71165266 11.1961057,12.3966328 12.3508341,15.0872496 C12.6197111,15.713974 12.899939,16.3371754 13.1858425,16.9584393 C10.238601,12.7815099 6.30689625,8.98945765 0.894594595,6.81864512 C2.74315325,7.74270245 3.95510965,9.48125484 5.20348385,10.8123836 C6.70914753,12.4179464 8.29497769,13.9803536 9.80347912,15.584155 C11.5827493,17.4761298 13.6763006,19.4685073 15.3877012,21.5621683 C17.0454211,24.9818498 18.6563181,28.4052303 19.6507135,32 C19.2432597,30.7580007 19.6187888,29.0416426 19.5490274,27.7381687 C19.4936912,26.7006739 19.3702491,25.6716341 19.2011664,24.6445318 C19.4102141,25.1077935 19.5904113,25.5714075 19.6719966,26.0026108 C19.5975057,25.2793589 19.5116637,24.5606868 19.4194367,23.8457137 C19.6561525,23.1763622 19.8886117,22.5517516 20.0456339,22.0372317 C20.850373,19.3978731 21.8085871,16.80396 23.1134798,14.275749 C24.3209431,11.9370702 25.7060024,9.62815987 27.2152132,7.38970762 C27.9192121,6.34604775 28.6329066,5.30626307 29.342108,4.26471694 C29.8063169,3.58285916 30.2482967,2.49111167 30.8945946,1.8377894 C26.7169513,5.59073745 22.1526645,9.37081184 19.5022045,13.873962" id="Fill-27"></path>
                    </g>
                    <g id="Top-Leaves" transform="translate(87.000000, 50.000000)" fill="#F2F2F2">
                        <path d="M84.7250552,53.9967406 C84.8139716,49.9010818 83.1251812,46.1241475 81.2565961,42.5591456 C77.6190042,35.6189545 75.7987371,31.4672142 76.3746393,23.2310563 C76.7134997,18.387232 77.1192854,13.2694166 74.6322481,8.86719405 C72.8215098,5.66152398 69.0273633,2.22971007 65.0262507,2.80388495 C58.693277,4.23357959 55.1645679,10.243758 53.8164053,16.2141433 C52.1455659,23.6140466 54.0768287,29.1390741 59.6923436,33.8891878 C62.8566657,36.5650036 64.643078,39.3195001 65.5102674,43.3895694 C66.2042546,46.6442842 66.0131605,50.3754278 67.19693,53.5061548 C68.9668252,58.1862665 72.1551307,61.0470656 76.9464484,61.9219767 C75.2058605,52.6476647 72.7651836,43.0640689 68.860299,34.4629052 C68.5097536,33.6118314 65.9932258,29.9726482 67.0372281,29.0555343 C68.187173,28.0458829 70.0946696,33.861914 70.0795843,33.825614 C71.1866664,36.410455 72.1213078,39.0786781 73.0199498,41.757897 C73.0152017,41.7586796 73.0100564,41.7582787 73.0049126,41.7590608 C73.932537,44.5100895 74.8364528,47.2894813 75.700025,50.0869618 C76.0355513,51.2605989 76.3497155,52.4409126 76.6290737,53.6369559 C77.0389585,55.3919679 77.0931891,60.0126971 78.2509511,61.3861441 C78.4986747,61.6798621 78.7506323,61.8809121 79.0044793,62.0125581 C79.4700015,63.9478618 79.9046606,65.8874638 80.2858981,67.8309409 C81.2814189,72.9067805 81.8599837,78.1126167 81.2255064,83.2719403 C81.0402539,84.7777451 79.1240314,90.0131124 79.7629159,91.3511904 C80.930767,93.7984794 81.5808832,90.0277005 81.827972,88.906077 C83.871157,79.6169013 83.1170971,70.892403 80.8630467,61.792526 C82.9227046,60.3802219 84.6888036,55.6561407 84.7250552,53.9967406" id="Leaf" transform="translate(68.982288, 47.450988) rotate(-18.000000) translate(-68.982288, -47.450988) "></path>
                        <path d="M46.9022314,39.6013134 C43.9012344,40.0469054 41.0617849,43.851686 39.6594613,46.3875444 C37.9241909,49.5253905 36.7112401,53.1041717 35.7959652,56.549142 C34.28804,62.2239605 34.0734119,68.5196205 34.0434756,74.3286221 C34.0398414,75.0286306 33.8772853,83.5794701 34.8753454,83.4372339 C35.8641367,83.2963799 35.2555447,74.4221783 35.3434505,72.5841325 C35.5305938,68.6615743 35.2699272,64.7940055 36.1957628,60.9197833 C37.1541857,56.9081794 38.9045069,53.1260024 41.1136646,49.6582531 C41.3972616,49.2132319 41.9987249,47.5594637 42.6775538,47.939844 C43.3414833,48.3118418 41.4959493,50.5168727 41.2336287,50.9452557 C40.1505636,52.7143269 39.2094473,54.5872437 38.4293677,56.5109968 C36.9677691,60.1152753 36.2046302,63.8855072 36.2227755,67.7660571 C38.5053516,68.1128183 40.4972227,66.7693719 41.2675147,64.5357641 C41.9330268,62.6051886 42.0020682,60.3609107 42.7573216,58.535193 C43.2775513,57.2778503 44.1031855,56.2092869 45.1120072,55.3051897 C47.7732942,52.9205415 50.5479198,52.3198894 51.3475724,48.3692994 C51.9744689,45.2722825 51.2159752,38.9637591 46.9022314,39.6013134" id="Leaf" transform="translate(42.785877, 61.497689) scale(-1, 1) rotate(58.000000) translate(-42.785877, -61.497689) "></path>
                        <path d="M12.4231862,16.0205025 C16.7585751,15.6984862 21.6001601,19.222276 23.6913999,22.8892977 C25.3772386,25.8458811 25.0932356,29.7282614 24.0519585,32.8693504 C23.3546766,34.9722638 21.8328567,37.9705295 19.2950089,37.999748 C16.1198713,38.0363222 15.9667602,34.0826325 15.9053541,31.7713076 C15.8237487,28.6984632 15.4383449,26.0216007 13.0350249,23.9270646 C12.4748966,23.4391364 11.862654,23.0098495 11.2968698,22.528664 C10.4109259,21.7755218 9.43186281,21.0043991 9.31773642,19.758425 C9.16018141,18.0394383 10.123287,17.7300902 11.5938005,18.0494502 C11.8444745,18.1038007 14.3695967,19.2453648 13.9957065,18.3430653 C13.8815801,18.0674309 13.4646653,17.8490074 12.9384719,17.685343 C11.576833,17.5361857 9.95300634,17.3631224 9.4859971,17.4665109 C4.44787241,18.5800824 2.48631243,25.6111117 1.9653709,30.0782702 C1.90642661,30.5838014 1.85930713,31.0910614 1.81831941,31.5990943 L0.894594595,31.599169 C0.959300047,30.405607 1.0435927,29.2139884 1.24162779,28.0337938 C1.98415631,23.6089305 4.3058709,17.1099637 9.39792789,16.3917611 C9.58578195,16.3649945 10.2768021,16.3604994 11.1138636,16.4099461 C11.5105791,16.1866188 11.954965,16.0515599 12.4231862,16.0205025 Z" id="Leaf-Me-Alone!" transform="translate(12.894572, 27.000000) scale(-1, 1) translate(-12.894572, -27.000000) "></path>
                    </g>
                    <g id="Group-2" transform="translate(40.000000, 81.000000)">
                        <g id="Group" transform="translate(0.905808, 22.307692)">
                            <g id="Head/Front/Wavy" transform="translate(26.230638, 0.000000)">
                                <g id="Head" stroke-width="1" transform="translate(19.058824, 11.028846)" fill="#B28B67">
                                    <path d="M13.4623558,3.24957229 C15.5075831,7.09227908 15.2645569,16.8396235 12.6212828,17.5264224 C11.5670833,17.8003339 9.32125085,17.1293018 7.03558774,15.7405039 L8.47058824,25.9711538 L0,25.9711538 L2.9155185,12.2698417 C1.28951478,10.3456998 0.189069371,7.98772967 0.372979883,5.34559417 C0.902940078,-2.26803617 11.4171285,-0.593134497 13.4623558,3.24957229 Z"></path>
                                </g>
                                <path d="M33.3208574,16.0037924 C33.2369522,15.5056978 33.0318929,14.9525691 32.8664343,14.4813248 C32.6531158,13.8738288 32.3302938,13.3260944 31.9750364,12.8098773 C31.3062008,11.8379928 30.5038496,10.9603571 29.6179761,10.2319437 C27.9998184,8.90142863 25.9399819,8.13398228 23.9143858,8.38321142 C22.8916603,8.50903819 21.898854,8.90227717 21.0538392,9.55680671 C20.2903777,10.1481804 19.556015,11.0187247 18.5674204,11.0812745 C17.4917481,11.1492791 16.5057242,10.192244 15.6430423,9.60117338 C14.6703645,8.93482485 13.6356056,8.44927654 12.498782,8.26053637 C10.5943398,7.94445418 8.80525382,8.59304393 7.49274325,10.1680606 C6.09605391,11.8441144 5.08076714,14.3020399 5.99798209,16.5227976 C6.16847281,16.9356136 6.38780801,17.2836374 6.70258957,17.5720813 C6.99128063,17.8365843 7.43219361,18.1179974 7.54924531,18.5406323 C7.67357172,18.9898751 7.3021787,19.5694299 7.15816135,19.9747909 C6.95184406,20.5555578 6.78244727,21.1651752 6.84266873,21.7964304 C6.94161571,22.8331073 7.58791613,23.8227506 8.2703713,24.5041305 C8.96485983,25.1975112 9.81961073,25.5951141 10.7325593,25.7783993 C11.342158,25.9007713 11.9651575,25.9682911 12.584711,25.9223485 C12.8922726,25.8995591 13.1636794,25.813432 13.4616689,25.7449425 C13.7514539,25.6783319 13.9134119,25.7559129 14.1592752,25.9161057 C15.3014044,26.6603989 16.5294628,26.948358 17.8482635,26.8376838 C18.9612939,26.7442229 20.2441587,26.4723255 21.1521298,25.7036063 C22.16047,24.8498511 22.1403962,23.6725585 21.9031204,22.4147151 C22.154508,22.5402994 22.8499811,22.6180623 22.4343929,22.1174827 C22.2697547,21.9192267 21.9586926,21.8385545 21.7474526,21.7219405 C21.5014799,21.5861736 21.2517331,21.4107071 21.060731,21.1892374 C20.2895025,20.2949946 21.0684433,18.4751127 22.0377845,18.1752134 C23.477958,17.7296679 23.8003972,19.7827172 24.8284831,20.3137837 C25.4195941,20.6191379 26.0379444,20.2017761 26.4808264,19.7756258 C27.0740707,19.2047383 27.4783914,18.4484442 27.827468,17.6788159 C28.1150104,17.045015 28.3825884,16.4023045 28.6756552,15.7716554 C28.8125073,15.4771504 29.2862932,14.6446087 29.048361,14.3116163 C30.0798928,14.1042688 31.2288044,14.5363589 32.117194,15.1030036 C32.4843754,15.3372621 32.7643149,15.5955221 32.9601851,16.0090655 C33.0021377,16.0976776 33.0934818,16.3610896 33.2081815,16.3718782 C33.4217188,16.3920008 33.3419158,16.1289525 33.3208574,16.0037924" id="hair" fill="#191847"></path>
                            </g>
                            <g id="Bottom/Sitting/Baggy-Pants" transform="translate(0.000000, 66.787246)">
                                <g id="Objects/Seat/Cube-2" transform="translate(3.533333, 14.937238)" fill="#C5CFD6">
                                    <path d="M51.1551724,0 C59.9917284,-1.623249e-15 67.1551724,7.163444 67.1551724,16 L67.1551724,28 C67.1551724,36.836556 59.9917284,44 51.1551724,44 L31.1982759,44 C22.3617199,44 15.1982759,36.836556 15.1982759,28 L15.1982759,16 C15.1982759,7.163444 22.3617199,1.623249e-15 31.1982759,0 L51.1551724,0 Z M53.2586207,9.93548387 L29.0948276,9.93548387 C26.8856886,9.93548387 25.0948276,11.7263449 25.0948276,13.9354839 L25.0948276,13.9354839 L25.0948276,30.0645161 C25.0948276,32.2736551 26.8856886,34.0645161 29.0948276,34.0645161 L29.0948276,34.0645161 L53.2586207,34.0645161 C55.4677597,34.0645161 57.2586207,32.2736551 57.2586207,30.0645161 L57.2586207,30.0645161 L57.2586207,13.9354839 C57.2586207,11.7263449 55.4677597,9.93548387 53.2586207,9.93548387 L53.2586207,9.93548387 Z" id="Seat"></path>
                                </g>
                                <path d="M105.702834,57.2594142 C98.7365602,48.6968822 94.023013,42.3490039 91.5621922,38.2157793 C87.3486696,31.1386952 83.9001028,24.8413975 82.811821,22.4358581 C80.2166736,16.6995409 88.7862698,14.0134834 90.7257641,16.689092 C93.6612657,20.7387319 99.9304554,33.4818085 109.533333,54.9183217 L105.702834,57.2594142 Z" id="LegLower" fill="#B28B67"></path>
                                <path d="M91.4276737,54.7698745 L78.4630363,21.9210294 C75.6901584,15.932904 89.080901,11.9967636 91.1187569,14.7835172 C95.7453204,21.1103105 106.741592,46.0685926 108.12,47.9535557 L91.4276737,54.7698745 Z" id="LegLower" fill="#2F3676"></path>
                                <g id="Lower-Leg" stroke-width="1" transform="translate(77.794446, 35.031126) rotate(39.000000) translate(-77.794446, -35.031126) translate(68.077779, 9.424431)" fill="#B28B67">
                                    <path d="M1.6996965,49.0635056 C1.3440183,44.5821152 0.683212277,29.0684752 1.34437556,21.8877859 C1.53436737,19.8243438 1.7345365,17.8293263 1.93625884,15.9578229 C2.53584903,10.3950526 12.7832565,10.5708953 11.9694839,15.8558059 C9.94286842,29.0173219 6.37579415,47.4624246 6.12012855,49.0561853 C5.7618023,51.289909 1.92322916,51.8799197 1.6996965,49.0635056 Z" id="LegLower"></path>
                                </g>
                                <g id="Accessories/Shoe/Flat-Sneaker" transform="translate(66.956667, 49.790795) rotate(30.000000) translate(-66.956667, -49.790795) translate(56.180000, 42.677824)" fill="#E4E4E4">
                                    <path d="M0.488475145,10.3548057 C0.403262207,10.7044441 0.360655738,10.9985038 0.360655738,11.2369848 C0.360655738,11.868135 0.469001844,12.78914 0.685694057,14 C1.4401637,14 8.22070943,14 21.0273312,14 C21.5559383,12.3040775 21.2507956,11.3885036 20.1119033,11.2532781 C18.973011,11.1180526 18.0269138,10.9959549 17.2736117,10.8869848 L8.40402539,7.04970483 C7.89714408,6.83041101 7.30846282,7.06354673 7.089169,7.57042805 C7.0882925,7.57245401 7.08742271,7.57448287 7.08655964,7.5765146 L6.73099489,8.41354327 L6.73099489,8.41354327 C5.67667847,8.89092825 4.81993693,9.12962075 4.16077025,9.12962075 C3.85195574,9.12962075 3.47529525,9.05982902 3.03078878,8.92024557 L3.03078887,8.92024531 C1.97695598,8.58932181 0.854389134,9.17535566 0.523465637,10.2291885 C0.510439845,10.2706695 0.498770146,10.3125641 0.488475145,10.3548057 Z" id="shoe"></path>
                                </g>
                                <g id="Accessories/Shoe/Flat-Sneaker" transform="translate(101.760000, 46.945607)" fill="#E4E4E4">
                                    <path d="M0.488475145,10.3548057 C0.403262207,10.7044441 0.360655738,10.9985038 0.360655738,11.2369848 C0.360655738,11.868135 0.469001844,12.78914 0.685694057,14 C1.4401637,14 8.22070943,14 21.0273312,14 C21.5559383,12.3040775 21.2507956,11.3885036 20.1119033,11.2532781 C18.973011,11.1180526 18.0269138,10.9959549 17.2736117,10.8869848 L8.40402539,7.04970483 C7.89714408,6.83041101 7.30846282,7.06354673 7.089169,7.57042805 C7.0882925,7.57245401 7.08742271,7.57448287 7.08655964,7.5765146 L6.73099489,8.41354327 L6.73099489,8.41354327 C5.67667847,8.89092825 4.81993693,9.12962075 4.16077025,9.12962075 C3.85195574,9.12962075 3.47529525,9.05982902 3.03078878,8.92024557 L3.03078887,8.92024531 C1.97695598,8.58932181 0.854389134,9.17535566 0.523465637,10.2291885 C0.510439845,10.2706695 0.498770146,10.3125641 0.488475145,10.3548057 Z" id="shoe"></path>
                                </g>
                                <path d="M73.7979387,23.5617341 C63.0223962,21.7947594 55.8047916,20.5865089 52.145125,19.9369826 C41.7136327,18.0855768 38.6717208,12.4353686 40.4702615,0.10748718 L59.6901088,0.10748718 C62.2335467,0.846796892 72.8610169,5.41918762 91.5725196,13.8246594 C94.939088,15.5068215 94.3121222,20.4666835 93.6967734,22.1007386 C93.6716771,22.1673816 87.9962879,31.9560931 76.6706057,51.4668732 L60.9479602,41.3852162 L73.827466,24.7497194 C74.1676015,24.0601524 74.157759,23.6641573 73.7979387,23.5617341 Z" id="Leg-and-Butt" fill="#5C63AB"></path>
                            </g>
                            <g id="Body/Turtle-Neck" transform="translate(7.089362, 29.130607)">
                                <path d="M21.6728557,23.8057706 L29.4566942,23.8347752 C23.5282749,42.9055305 20.3812797,52.8906756 20.0157088,53.7902107 C19.1931742,55.8141645 20.933768,58.8966112 21.678115,60.553095 C19.2538016,61.6301895 19.5121148,57.641269 16.4539087,59.0539384 C13.6625199,60.3433576 11.5391175,62.6796988 8.31407111,60.7038958 C7.91757061,60.4609824 7.48307066,59.5463698 8.53287747,58.8316484 C11.1483291,57.0510166 14.9173533,53.9345903 15.4266078,52.9087944 C16.1210673,51.5099385 18.20315,41.8089306 21.6728557,23.8057706 L21.6728557,23.8057706 Z M70.9135712,32.6330592 L80.983256,42.3865968 C83.913163,43.6274712 86.3138045,44.9976471 88.1851805,46.4971245 C88.6060249,47.0011499 89.0641826,47.9668886 87.0841305,47.5347344 C85.1040784,47.1025802 83.001786,46.7364359 82.6296388,47.3757847 C82.2574917,48.0151335 83.3540536,48.9948431 82.6662796,49.8315861 C82.2077635,50.3894149 80.665738,48.6150709 78.0402029,44.5085542 L67.5690625,38.3789258 L70.9135712,32.6330592 Z" id="Skin" fill="#B28B67"></path>
                                <path d="M43.6530737,3.43912606 L46.6695355,2.64974916 C52.9744395,19.1578338 78.7681827,28.5297404 80.843354,34.7255306 C81.6043742,36.9976906 80.0246573,38.3181494 80.955537,38.9490663 L77.2285175,42.1901645 C76.4862108,41.468349 75.1728594,43.0224185 72.0818125,42.2861535 C68.9907657,41.5498885 45.4069303,23.485799 43.6530737,3.43912606 Z" id="Clothes-Back" fill="#DB2721" transform="translate(62.355578, 22.569678) rotate(5.000000) translate(-62.355578, -22.569678) "></path>
                                <path d="M42.2033967,-1.50801691 L47.2202728,-1.15969724 C48.8404401,-1.04720968 50.1445285,0.0915533489 50.541581,1.57745272 L50.6568488,1.59734928 L50.6342206,2.04284742 C50.666482,2.28599425 50.6749294,2.53597904 50.6572805,2.79017877 C50.6571956,2.79140147 50.6571101,2.79262413 50.657024,2.79384674 C50.6444792,2.97196938 50.6195557,3.14626855 50.5831532,3.31596217 C49.8882797,26.5026302 63.3428204,32.2711837 60.3896128,41.4064395 C57.9800675,48.8599668 34.9167466,56.8724773 30.9257812,49.5662613 C29.3102837,46.6087879 28.5773289,43.0319306 28.4941704,39.1431141 C27.474128,42.1308921 26.6674385,44.7028092 26.0740334,46.8591102 C25.0765531,50.4837292 21.283113,51.1380446 21.0892335,52.4948607 L21.081522,52.6035042 L15.8527083,51.1704252 C16.2073664,49.2235278 13.7423773,48.2755049 14.4033051,43.9259664 C17.3664756,24.4254659 25.331062,10.2934733 38.2970643,1.52998843 C38.6279781,-0.308658405 40.2975961,-1.64033587 42.2033967,-1.50801691 Z" id="Clothes-Front" fill="#FF4133"></path>
                            </g>
                        </g>
                        <g id="Head/Front/Turban-1" transform="translate(155.501553, 18.292308) scale(-1, 1) translate(-155.501553, -18.292308) translate(131.373893, 0.000000)">
                            <g id="Head" transform="translate(19.058824, 11.028846)" fill="#B28B67">
                                <path d="M13.4623558,3.24957229 C15.5075831,7.09227908 15.2645569,16.8396235 12.6212828,17.5264224 C11.5670833,17.8003339 9.32125085,17.1293018 7.03558774,15.7405039 L8.47058824,25.9711538 L0,25.9711538 L2.9155185,12.2698417 C1.28951478,10.3456998 0.189069371,7.98772967 0.372979883,5.34559417 C0.902940078,-2.26803617 11.4171285,-0.593134497 13.4623558,3.24957229 Z"></path>
                            </g>
                            <g id="Turban" transform="translate(10.941176, 8.182692)">
                                <mask id="mask-2" fill="white">
                                    <use xlink:href="#path-1"></use>
                                </mask>
                                <use fill="#5C63AB" xlink:href="#path-1"></use>
                                <path d="M2.82296787,5.81403157 C3.86514343,10.1636531 6.57121296,14.2737195 10.9411765,18.1442308 C5.88470893,15.067623 2.70823834,11.0973603 1.41176471,6.23344278 L2.82296787,5.81403157 Z M4.39659657,4.26923077 C5.03192118,8.31777402 6.69974917,12.0205053 9.40008055,15.3774245 C6.25139691,12.9147701 4.17686025,9.47133583 3.17647059,5.04712164 L4.39659657,4.26923077 Z" id="SHade" fill-opacity="0.2" fill="#000000" mask="url(#mask-2)"></path>
                            </g>
                        </g>
                        <g id="Bottom/Standing/Shorts" transform="translate(157.735595, 109.307692) scale(-1, 1) translate(-157.735595, -109.307692) translate(104.565382, 66.923077)">
                            <polygon id="Leg" fill="#997659" points="45.2266667 9.9475983e-14 58.522896 43.7533662 64.9639211 80.9627859 70.0141295 80.9627859 63.2081442 9.9475983e-14"></polygon>
                            <path d="M40.469997,0 C41.3731091,24.0229497 40.3102682,36.4144222 40.1081409,38.5970116 C39.9060136,40.7796011 37.1382294,54.9316278 30.5858362,81.6954808 L35.9672106,79.835165 C46.322657,55.288751 49.851424,42.5315461 51.0391153,39.3083087 C52.2268066,36.0850713 55.3812558,22.9823017 60.5024628,0 L40.469997,0 Z" id="Leg" fill="#B28B67"></path>
                            <g id="Accessories/Shoe/Flat-Sneaker" transform="translate(29.680000, 70.774059)" fill="#E4E4E4">
                                <path d="M0.488475145,10.3548057 C0.403262207,10.7044441 0.360655738,10.9985038 0.360655738,11.2369848 C0.360655738,11.868135 0.469001844,12.78914 0.685694057,14 C1.4401637,14 8.22070943,14 21.0273312,14 C21.5559383,12.3040775 21.2507956,11.3885036 20.1119033,11.2532781 C18.973011,11.1180526 18.0269138,10.9959549 17.2736117,10.8869848 L8.40402539,7.04970483 C7.89714408,6.83041101 7.30846282,7.06354673 7.089169,7.57042805 C7.0882925,7.57245401 7.08742271,7.57448287 7.08655964,7.5765146 L6.73099489,8.41354327 L6.73099489,8.41354327 C5.67667847,8.89092825 4.81993693,9.12962075 4.16077025,9.12962075 C3.85195574,9.12962075 3.47529525,9.05982902 3.03078878,8.92024557 L3.03078887,8.92024531 C1.97695598,8.58932181 0.854389134,9.17535566 0.523465637,10.2291885 C0.510439845,10.2706695 0.498770146,10.3125641 0.488475145,10.3548057 Z" id="shoe"></path>
                            </g>
                            <g id="Accessories/Shoe/Flat-Sneaker" transform="translate(62.893333, 70.774059)" fill="#E4E4E4">
                                <path d="M0.488475145,10.3548057 C0.403262207,10.7044441 0.360655738,10.9985038 0.360655738,11.2369848 C0.360655738,11.868135 0.469001844,12.78914 0.685694057,14 C1.4401637,14 8.22070943,14 21.0273312,14 C21.5559383,12.3040775 21.2507956,11.3885036 20.1119033,11.2532781 C18.973011,11.1180526 18.0269138,10.9959549 17.2736117,10.8869848 L8.40402539,7.04970483 C7.89714408,6.83041101 7.30846282,7.06354673 7.089169,7.57042805 C7.0882925,7.57245401 7.08742271,7.57448287 7.08655964,7.5765146 L6.73099489,8.41354327 L6.73099489,8.41354327 C5.67667847,8.89092825 4.81993693,9.12962075 4.16077025,9.12962075 C3.85195574,9.12962075 3.47529525,9.05982902 3.03078878,8.92024557 L3.03078887,8.92024531 C1.97695598,8.58932181 0.854389134,9.17535566 0.523465637,10.2291885 C0.510439845,10.2706695 0.498770146,10.3125641 0.488475145,10.3548057 Z" id="shoe"></path>
                            </g>
                            <polygon id="Bottom" fill="#69A1AC" points="43.46 0 49.1133333 22.2918795 66.3808456 22.2918795 63.8061892 0"></polygon>
                            <path d="M40.28,-3.55271368e-15 C38.4198552,5.6123281 38.0665218,13.0429546 39.22,22.2918795 L56.8408456,22.2918795 L61.6861892,-3.55271368e-15 L40.28,-3.55271368e-15 Z" id="Bottom" fill="#89C5CC"></path>
                        </g>
                        <g id="Body/Pointing-Up" transform="translate(157.476762, 62.526316) scale(-1, 1) rotate(8.000000) translate(-157.476762, -62.526316) translate(112.139430, 29.368421)">
                            <path d="M66.8661087,24.4122795 L78.2049472,32.6794319 C81.2802737,33.5033654 83.8496095,34.5284778 85.9129548,35.7547692 C86.4003527,36.1957357 86.989419,37.088766 84.9680617,36.934428 C82.9467044,36.78009 80.813549,36.7080112 80.5346409,37.3925625 C80.2557329,38.0771138 81.4789488,38.8957621 80.9151542,39.8194011 C80.5392912,40.4351604 78.7635631,38.8911668 75.58797,35.1874201 L64.3595453,30.5643836 L66.8661087,24.4122795 Z M89.0229902,-5.9918766 C87.6823644,-4.48191053 86.3406225,-2.83378863 86.7233936,-2.20065335 C87.1061648,-1.56751807 88.5007983,-2.04480058 88.9044318,-1.04187601 C89.1735208,-0.373259638 86.8629421,0.10561741 81.9726956,0.394755129 L71.4966989,6.51619781 L68.0567113,0.826172713 L81.5303193,-3.18973965 C84.0438319,-5.13248508 86.414651,-6.55292934 88.6427766,-7.45107243 C89.2907936,-7.57217766 90.3636159,-7.50184267 89.0229902,-5.9918766 Z" id="Skin" fill="#B28B67"></path>
                            <path d="M45.1712321,5.5448549 C54.0942984,14.9887955 64.9870409,21.1423661 79.8482856,26.5912971 L76.5341361,33.1600321 C61.1932116,31.7495607 52.9923567,30.6158662 46.578683,21.1528716 C44.968981,18.7778518 42.0977711,10.6011105 40.3765372,6.35532575 L45.1712321,5.5448549 Z" id="Coat-Back" fill="#2026A2" transform="translate(60.112411, 19.352444) rotate(15.000000) translate(-60.112411, -19.352444) "></path>
                            <path d="M31.9921875,40.2352941 L59.3632812,40.2352941 C53.1632702,21.4607227 49.9960692,8.57502408 49.8616782,1.57819817 C49.8548268,1.22149322 49.1913221,0.592928726 48.897773,0.675244842 C46.7510806,1.27721373 44.4539503,1.05213211 42.0063821,0 C35.5175435,10.3617906 33.2735906,23.1192529 31.9921875,40.2352941 Z" id="Shirt" fill="#F2F2F2"></path>
                            <path d="M79.5975135,-3.17647059 L81.046875,4.01416953 C69.9515352,11.0994006 58.7165734,16.5879455 48.871958,15.8084929 C53.1470088,34.0149127 52.9500756,48.9197528 43.5120312,48.9197528 L43.5120312,48.9197528 L28.9177834,48.9197528 C26.5998799,33.4531578 32.6917837,12.0083348 38.3394215,1.19173916 C38.5550878,0.778685953 39.014263,-1.28341782e-13 40.0958088,-1.28341782e-13 L40.0958088,-1.28341782e-13 L44.3364666,-1.28341782e-13 C44.3383626,0.00566793109 44.3402582,0.0113358573 44.3421536,0.0170037783 C52.1869003,0.0804077818 64.9165639,1.50323406 79.5975135,-3.17647059 Z" id="Coat-Front" fill="#1F28CF"></path>
                        </g>
                    </g>
                </g>
            </g>
        </g>
    </g>
</svg>