<?xml version="1.0" encoding="UTF-8"?>
<svg width="375px" height="300px" viewBox="0 0 375 300" version="1.1" xmlns="http://www.w3.org/2000/svg" xmlns:xlink="http://www.w3.org/1999/xlink">
    <!-- Generator: Sketch 57.1 (83088) - https://sketch.com -->
    <title>Group 9</title>
    <desc>Created with Sketch.</desc>
    <defs>
        <rect id="path-1" x="0" y="0" width="375" height="300"></rect>
        <path d="M6,30 C2.6862915,30 3.95852593e-15,27.3137085 0,24 L0,6 C-4.05812251e-16,2.6862915 2.6862915,6.08718376e-16 6,0 L64,0 C67.3137085,-6.08718376e-16 70,2.6862915 70,6 L70,24 C70,27.3137085 67.3137085,30 64,30 L46,30 L35,37 L24,30 L6,30 Z" id="path-3"></path>
        <filter x="-10.0%" y="-13.5%" width="120.0%" height="137.8%" filterUnits="objectBoundingBox" id="filter-4">
            <feOffset dx="0" dy="2" in="SourceAlpha" result="shadowOffsetOuter1"></feOffset>
            <feGaussianBlur stdDeviation="2" in="shadowOffsetOuter1" result="shadowBlurOuter1"></feGaussianBlur>
            <feColorMatrix values="0 0 0 0 0   0 0 0 0 0   0 0 0 0 0  0 0 0 0.5 0" type="matrix" in="shadowBlurOuter1"></feColorMatrix>
        </filter>
        <path d="M6,30 C2.6862915,30 4.05812251e-16,27.3137085 0,24 L0,6 C-1.29399067e-15,2.6862915 2.6862915,6.08718376e-16 6,0 L88,0 C91.3137085,-6.08718376e-16 94,2.6862915 94,6 L94,24 C94,27.3137085 91.3137085,30 88,30 L58,30 L47,37 L36,30 L6,30 Z" id="path-5"></path>
        <filter x="-7.4%" y="-13.5%" width="114.9%" height="137.8%" filterUnits="objectBoundingBox" id="filter-6">
            <feOffset dx="0" dy="2" in="SourceAlpha" result="shadowOffsetOuter1"></feOffset>
            <feGaussianBlur stdDeviation="2" in="shadowOffsetOuter1" result="shadowBlurOuter1"></feGaussianBlur>
            <feColorMatrix values="0 0 0 0 0   0 0 0 0 0   0 0 0 0 0  0 0 0 0.5 0" type="matrix" in="shadowBlurOuter1"></feColorMatrix>
        </filter>
        <path d="M6,30 C2.6862915,30 4.05812251e-16,27.3137085 0,24 L0,6 C-4.05812251e-16,2.6862915 2.6862915,6.08718376e-16 6,0 L71,0 C74.3137085,-6.08718376e-16 77,2.6862915 77,6 L77,24 C77,27.3137085 74.3137085,30 71,30 L51,30 L39,37 L27,30 L6,30 Z" id="path-7"></path>
        <filter x="-9.1%" y="-13.5%" width="118.2%" height="137.8%" filterUnits="objectBoundingBox" id="filter-8">
            <feOffset dx="0" dy="2" in="SourceAlpha" result="shadowOffsetOuter1"></feOffset>
            <feGaussianBlur stdDeviation="2" in="shadowOffsetOuter1" result="shadowBlurOuter1"></feGaussianBlur>
            <feColorMatrix values="0 0 0 0 0   0 0 0 0 0   0 0 0 0 0  0 0 0 0.5 0" type="matrix" in="shadowBlurOuter1"></feColorMatrix>
        </filter>
    </defs>
    <g id="UI" stroke="none" stroke-width="1" fill="none" fill-rule="evenodd">
        <g id="Landing-page" transform="translate(0.000000, -942.000000)">
            <g id="Group-9" transform="translate(0.000000, 942.000000)">
                <g id="svg_map_20190924">
                    <mask id="mask-2" fill="white">
                        <use xlink:href="#path-1"></use>
                    </mask>
                    <use id="Mask" fill="#D8D8D8" xlink:href="#path-1"></use>
                    <g mask="url(#mask-2)">
                        <g transform="translate(-1.000000, 0.000000)">
                            <rect id="Rectangle" fill="#D0EEEC" x="0" y="0" width="446" height="430"></rect>
                            <g id="Group" stroke-width="1" fill="none">
                                <path d="M237.874491,123.60122 L236.990561,122.216339 L238.442891,121.20061 L238.849611,122.01722 M234.743812,148.889847 L233.967856,147.336051 L235.026894,147.232576 M204.84796,96.3751017 L206.345606,97.1229153 L206.485468,98.4205424 L205.239574,100.283085 L203.37437,101.189186 L202.585547,102.089695 L201.296016,102.328525 L200.697406,103.029356 L198.196667,102.830237 L195.919708,101.382712 L195.10571,98.6224576 L195.495646,97.037339 L193.630442,97.4344576 L193.305961,96.3297966 L194.559128,94.362661 L195.211446,94.213322 L196.787974,95.6541356 L196.635804,96.5949153 L198.017643,96.7850847 L199.718369,95.0757966 L201.629448,95.6742712 L203.384441,94.0617458 M150.880123,280.246068 L151.50223,280.930119 L149.37968,282.012407 L149.991717,280.355695 M439.652193,258.146136 L440.038213,256.421186 L439.467574,254.505508 L437.963775,252.559068 L438.870083,252.132864 L439.582821,252.857186 L439.963247,254.851729 L441.303128,255.058678 L441.418374,256.102373 L442.918817,256.72322 L444.641921,256.252271 L443.823447,258.39839 L443.090568,258.471102 L442.251394,260.732441 L440.775567,262.512203 L439.760166,262.037898 L440.465073,260.902475 L440.149543,259.772644 L438.935538,259.192068 M235.383822,150.720508 L235.084517,152.861034 L233.596382,152.73239 L233.741839,151.030373 L233.30323,150.295424 L235.078922,149.718203 M138.911264,289.225424 L136.519059,287.950169 L138.278527,287.584932 M359.313593,180.408203 L360.847603,180.855661 L360.290951,181.967034 L359.227997,182.697508 L358.004482,182.346254 L357.939026,181.322695 M55.6568148,118.114271 L54.7505069,118.330169 L54.0590275,117.264102 L54.7807171,116.262915 L55.8436708,116.817763 M56.0288486,120.645763 L54.9446358,118.415186 L55.8425519,118.364847 M59.3547747,123.706932 L57.7799249,122.272271 L58.9072153,121.894729 M243.444368,86.4907627 L243.698358,87.4007797 L242.605753,88.2755593 L242.094976,87.3716949 M12.7582416,104.264898 L11.2393367,102.734034 L12.041587,102.402915 L13.2455219,103.810729 M8.68433166,100.273576 L7.45018648,100.337339 L6.47003129,99.3305593 L5.22637547,98.8031186 L5.06077847,97.4238305 L3.71977847,96.7766949 L1.94520526,97.2605085 L1.4249174,95.9416271 L1.7985613e-13,98.5284915 L1.7985613e-13,86.015339 L1.39750438,86.725678 L2.99081602,88.2917797 L5.79030038,90.3707797 L6.43031039,91.3115593 L6.36988986,93.7278305 L7.65102879,94.0824407 L7.38976596,92.629322 L7.9268373,92.2098305 L10.2317685,92.6886102 L10.7162516,93.570661 L12.7235557,95.1826271 L11.7892753,96.6295932 L9.9598761,97.0955085 L9.79763579,98.4630508 M121.355745,105.376271 L120.130551,106.545254 L119.101164,105.844983 L119.705369,104.648034 L121.227071,104.32922 M117.810514,97.3958644 L118.377237,97.2224746 L121.864284,100.207576 L121.995195,101.182475 L123.435218,101.943153 L122.710731,103.076339 L120.87294,101.644475 L119.573899,102.031525 L117.526314,104.005932 L116.343638,101.289305 L116.082935,99.8647119 L116.722945,96.2850508 M74.401164,64.9820339 L77.7673705,65.3304915 L80.2132829,68.2971356 L75.4478936,72.2067966 L75.2895695,73.2527288 L73.8590576,74.9474746 L73.8277284,76.4576441 L72.3955382,76.8357458 L70.9823692,78.2866271 L70.1577409,77.8179153 L69.4808073,76.0515763 L67.1853867,74.908322 L67.3644105,73.7633898 L68.2595294,72.419339 L68.0441414,71.1754068 L69.4522753,68.1198305 L68.6623329,64.5921864 L72.4738611,63.6804915 M102.621466,76.0789831 L101.029273,77.5108475 L98.2683905,73.9110508 L96.9559224,73.4311525 L95.895766,71.9042034 L96.6638899,70.2631525 L97.6060025,71.7996102 L99.1221101,71.0406102 L98.4983242,69.3945254 L97.2955081,68.6841864 L97.8124393,67.4268305 L99.2781965,66.462 L100.184504,67.4072542 L102.686921,66.8775763 L103.019234,67.5912712 L102.091667,69.2367966 L101.859496,70.4152881 L103.585956,72.0244576 L103.829876,73.062 L103.516584,75.3915763 M91.8895494,70.0064237 L90.5149825,68.5130339 L91.3776533,67.453678 L92.8187947,67.3267119 L93.6064994,68.0219492 L93.0442528,70.5808475" id="Shape" fill="#73CEC6" fill-rule="nonzero"></path>
                                <path d="M70.2556446,141.08339 L69.6010889,140.868051 L68.5370163,137.355508 L71.6296521,137.603288 L71.3185982,136.274339 L69.5602491,134.867085 L67.7828786,132.960915 L64.748985,131.590576 L64.7590551,129.377339 L63.7319061,127.56178 L61.9153742,126.040424 L60.8457071,124.105169 L60.8971765,122.133559 L57.7228611,118.425254 L57.3608974,117.297661 L56.117801,115.997237 L53.6730075,116.280814 L51.857035,114.513356 L49.2192315,112.867271 L45.8401577,111.860492 L44.7850363,112.145746 L43.1514443,111.377797 L40.9505707,109.768068 L39.2118023,110.161831 L39.7544681,110.999695 L38.8985106,112.318017 L37.6005882,112.242508 L36.1040613,113.903695 L34.8861402,112.677661 L35.8662954,110.139458 L34.4201189,110.737932 L33.8589912,112.29061 L32.1045582,113.825949 L33.0847134,114.836085 L31.9042753,116.63039 L30.2902641,117.420712 L29.2200375,119.035475 L26.6577597,120.698898 L26.1486608,121.644153 L22.7108448,122.795237 L22.565388,121.724695 L23.8504431,121.804119 L24.3444368,120.902492 L26.0160713,119.67478 L27.6653279,117.836288 L27.9282691,115.802034 L26.3338385,114.845593 L24.9251452,115.101203 L24.1682103,114.523983 L22.7790976,115.517898 L22.0316733,111.899085 L19.7110776,112.527763 L19.011766,111.35878 L19.8050651,110.202661 L17.9085319,109.356407 L17.2388711,107.486034 L18.7829512,104.756542 L21.0347347,104.134576 L22.0965695,102.843661 L23.1746283,103.012576 L23.8124005,102.269797 L23.5461026,100.096831 L22.6957397,99.2992373 L21.6495695,100.009576 L20.8411652,99.6739831 L18.5888223,100.285322 L17.1152328,99.8714237 L16.4494881,98.4787119 L16.7415207,97.6598644 L14.7957559,96.9305085 L15.4967459,96.1709492 L18.0511915,94.4202712 L20.1519237,93.9537966 L20.1782178,95.4639661 L22.5351777,95.651339 L22.9916884,94.0393729 L22.4747572,92.3854576 L20.1575181,92.1248136 L19.651776,90.5396949 L17.4067059,88.8477458 L16.9233417,87.8577458 L17.0978899,86.3196102 L19.4615632,86.1708305 L20.970398,84.5678136 L21.1572541,83.1124576 L22.4915407,81.247678 L23.7290426,81.1335763 L25.2339612,79.4354746 L27.6239287,79.085339 L28.9722015,77.3458475 L31.5355982,79.4119831 L33.1524068,78.9701186 L34.877189,80.7901525 L36.4251852,81.0882712 L38.2450738,80.5815254 L39.7209011,81.5133559 L41.8507247,81.7370847 L43.3802591,82.4401525 L45.6012728,82.0055593 L47.7708173,83.4374237 L50.6547785,84.1511186 L53.0827885,86.1590847 L55.1734506,86.5741017 L54.7281289,84.9867458 L55.4296783,84.4369322 L58.3533605,84.3821186 L61.1964819,81.9826271 L62.5861539,82.3898136 L63.4331602,83.3071017 L64.4026859,81.7622542 L65.2765457,81.1016949 L66.0888661,83.2914407 L67.055035,84.5409661 L68.4743579,82.4725932 L68.8256921,84.6282203 L70.4794243,84.1751695 L70.7446033,83.0140169 L73.2632441,83.5878814 L74.4845219,84.7087627 L76.1388135,85.1802712 L77.9133867,86.2508136 L79.3522904,86.576339 L79.8647459,85.9750678 L81.6270113,87.3935085 L81.5095269,88.5401186 L80.3710476,89.362322 L82.032612,90.2924746 L85.6209199,90.0391017 L86.7621965,89.2588475 L87.165,90.206339 L88.5748123,90.5687797 L88.9300626,92.4425085 L90.1328786,92.7148983 L89.6372065,89.2398305 L88.2850175,88.4097966 L88.964189,87.1720169 L91.4884243,86.213339 L92.4708173,86.8157288 L92.66103,88.1066441 L93.6948924,89.2141017 L94.8344906,88.9344407 L95.7145044,89.8478136 L97.3229212,90.3472881 L98.3142653,89.8886441 L100.175553,90.2259153 L101.551798,89.9921186 L100.887732,88.1799153 L102.558248,87.6373729 L103.060074,88.4696441 L105.005839,89.0429492 L106.420126,88.4109153 L107.003073,87.1983051 L105.917741,86.5852881 L106.448099,85.6355593 L106.356909,84.3921864 L104.549887,83.1191695 L103.578683,82.0284915 L104.10009,80.188322 L103.456723,79.4740678 L103.62232,77.5589492 L104.268484,76.4458983 L106.086695,75.3328475 L107.668258,76.8844068 L108.017354,79.1932881 L108.94604,80.155322 L109.155274,81.9199831 L108.457641,83.1862881 L110.313894,84.9705254 L111.077542,86.3184915 L110.871665,87.7542712 L111.608459,88.0697288 L112.378262,85.1248983 L113.819962,86.1859322 L114.37102,88.0205085 L113.755626,88.7828644 L113.940244,90.3601525 L114.749767,91.3686102 L116.034263,90.652678 L116.733574,89.0977627 L117.013299,86.8660678 L117.905061,86.7486102 L117.21582,84.8497119 L117.319877,83.3417797 L118.366048,82.8585254 L120.739791,83.5157288 L122.477441,87.151322 L121.282457,88.1676102 L121.426795,89.5994746 L122.534504,91.081678 L122.200513,92.5554915 L121.361339,93.4800508 L119.19627,94.2642203 L118.606051,94.9812712 L116.69721,95.0455932 L114.610464,99.9368644 L113.424432,101.525339 L112.152244,101.279237 L111.316986,102.599237 L110.36872,103.000271 L110.838657,104.078085 L108.192462,105.754373 L107.06629,107.317119 L107.480283,107.755627 L106.014526,110.536576 L105.629625,112.253695 L106.015645,114.979271 L107.653153,115.156017 L108.561139,118.194814 L108.530369,119.156847 L110.174031,118.671356 L113.074217,119.601508 L114.548365,121.263814 L118.137792,123.167746 L120.677692,123.265068 L121.290849,124.090627 L121.010005,125.368678 L121.397144,126.261356 L121.183434,127.894576 L122.343732,129.740339 L124.268238,131.610712 L125.819591,129.57478 L125.293708,127.906322 L125.205315,125.882695 L124.564186,124.269051 L126.098196,123.584441 L127.588569,122.219695 L128.200048,121.132373 L128.289559,119.019254 L127.61822,117.068339 L125.859871,115.436797 L127.373741,112.626203 L126.702402,110.177492 L126.71471,108.452542 L126.26715,106.593915 L127.128702,105.442831 L130.532951,106.419407 L131.647934,105.752695 L133.67314,107.321034 L134.270073,108.862525 L136.519059,110.090237 L136.958786,113.113932 L138.465942,115.513424 L139.523302,116.27522 L141.75998,114.408763 L142.666288,111.463373 L143.337627,111.434288 L143.907146,113.00822 L144.905204,114.482034 L145.611229,116.397153 L146.407325,117.127627 L146.255155,118.186424 L146.97125,118.860407 L146.361451,120.998695 L148.398965,122.051339 L148.482882,123.125237 L151.306982,123.965898 L151.078727,125.311068 L153.923527,127.123271 L154.148426,129.745373 L152.758753,130.967492 L151.497755,131.130814 L150.091299,131.927288 L148.951141,133.321119 L147.52063,133.438576 L143.317487,133.262949 L140.920247,133.520237 L139.670996,135.177508 L140.44975,135.621051 L142.702652,135.399559 L143.587701,136.028237 L142.840836,138.019424 L142.743492,139.958034 L143.216227,140.867492 L144.724502,141.786458 L146.214875,141.683542 L146.996426,142.806661 L143.488678,144.270966 L142.028516,145.679339 L141.107103,144.62222 L142.75524,142.843576 L142.777618,141.955373 L137.555718,144.735203 L136.388148,145.05122 L135.205472,147.579356 L135.722403,148.577186 L134.138043,149.337864 L132.766273,149.432949 L131.195339,150.459305 L131.118695,152.128322 L130.353927,152.83978 L130.104413,154.170966 L128.458513,155.823203 L128.245922,155.704627 L128.171516,155.629678 L128.113892,155.588847 L128.056829,155.492644 L128.017667,155.556966 L128.02494,155.559763 L128.097668,155.610102 L128.205083,155.780136 L128.55362,156.049729 L128.987752,157.96261 L128.540193,159.506339 L125.572314,161.136203 L125.012865,162.051254 L122.598841,164.186186 L122.034916,165.430678 L123.357454,168.861559 L123.949352,171.087661 L123.775922,172.628593 L123.136472,173.461983 L121.705401,171.655373 L120.487479,169.721237 L120.74035,168.226729 L119.062003,166.52639 L117.973874,167.040966 L116.228392,166.158915 L112.845402,166.117525 L111.295727,167.728373 L107.418743,166.928542 L105.701234,167.351949 L104.93311,168.28378 L103.352106,169.046695 L102.462582,170.743678 L102.67797,172.807576 L102.012225,173.666136 L102.084954,178.17539 L104.336178,181.918373 L106.029071,182.810492 L109.939622,181.850695 L110.712781,181.229847 L111.065234,179.424356 L112.023011,178.673746 L113.946398,178.244746 L115.633138,178.901949 L114.7369,180.281237 L114.382768,182.462593 L113.744996,183.363102 L113.882621,186.007017 L116.725742,185.590322 L118.670388,185.83978 L119.804951,186.562983 L119.478792,191.191373 L119.713761,192.649525 L121.222036,194.490814 L122.684996,194.740271 L124.482507,193.727898 L126.427712,194.191017 L127.873889,194.975746 L129.374891,193.995814 L129.575174,192.527034 L131.273662,191.557729 L133.982516,191.448661 L134.444061,192.409017 L133.77496,193.454949 L135.099176,194.106 L134.573294,192.062237 L136.254439,191.202559 L137.863975,191.422932 L138.668463,192.59639 L141.07969,192.425797 L142.540971,193.168017 L144.435267,192.453203 L147.724829,193.911915 L147.806508,194.929881 L149.854093,195.684966 L150.691588,196.988186 L152.194829,197.98378 L153.761287,198.498356 L156.020343,198.403271 L157.562745,198.937424 L159.341793,200.199814 L160.386285,203.078644 L161.357489,204.27839 L160.441671,205.810932 L163.106887,205.997746 L167.911438,207.872593 L168.743899,208.887763 L169.604332,208.641661 L170.895541,209.212169 L173.632367,209.238458 L175.519389,210.314034 L177.14403,211.856644 L179.210076,212.118407 L180.032467,214.422814 L179.439451,217.159017 L177.37788,219.274932 L175.657573,221.923881 L174.76693,222.540814 L175.033787,225.638339 L174.625389,227.905271 L173.95405,229.091034 L174.003282,230.122983 L172.424516,232.845203 L172.387033,233.713271 L171.034844,234.980136 L167.814094,235.127237 L167.530453,235.493034 L163.159476,238.120169 L162.751078,242.674729 L161.313293,244.186017 L160.267123,246.347237 L158.428213,248.050373 L157.748482,249.563898 L156.524966,251.199356 L155.071517,252.067983 L152.801272,254.081542 L152.947847,254.996034 L151.858599,256.900525 L150.038711,257.817814 L146.568447,258.31561 L146.003403,258.853678 L145.947458,261.352729 L144.12701,261.829831 L142.454257,261.330915 L142.528663,263.252746 L143.153568,264.046983 L142.173413,266.211559 L142.321108,267.287136 L140.09338,268.918119 L139.354907,270.271678 L140.395483,271.930068 L141.559138,272.130305 L141.410884,273.88378 L139.973099,275.041576 L138.837417,277.684932 L137.802436,278.195593 L137.460053,279.49322 L138.008313,281.44078 L135.434846,283.033169 L135.20715,285.160831 L133.891325,284.993034 L133.575796,284.044424 L134.959314,283.132729 L133.73412,282.544322 L132.285146,283.435322 L132.002065,281.544814 L131.148905,279.420508 L131.014637,274.893356 L130.602323,273.193017 L131.28597,271.921119 L130.004831,271.225881 L130.10721,269.922661 L131.907518,270.071441 L132.581655,265.697542 L133.239008,263.558136 L133.153971,262.735932 L131.794509,262.775085 L131.532687,261.650847 L131.829195,259.929254 L132.438995,258.919119 L131.892972,255.486 L132.501094,255.362949 L133.146139,253.033932 L133.677616,252.286119 L134.664484,248.216492 L134.284059,245.619 L134.833438,244.592085 L134.531335,243.19378 L134.9733,242.423593 L135.848839,238.283492 L135.692193,235.184847 L136.053038,234.880576 L136.224788,230.676153 L136.032897,228.991475 L134.684625,227.622814 L130.012104,225.024203 L128.619075,223.369729 L128.742154,222.553119 L126.916111,219.376169 L125.27133,215.936339 L124.034947,214.107356 L122.65031,213.265576 L122.475203,210.991373 L123.387105,210.064576 L122.88472,208.468831 L123.399413,206.210288 L124.446702,204.47639 L125.442522,204.052983 L125.610357,203.021593 L126.792473,202.286085 L127.549408,200.985102 L127.327866,197.579949 L125.082237,194.492492 L123.411161,195.648051 L123.470463,196.707966 L121.142035,195.334271 L120.325239,195.457322 L118.144506,193.38 L117.028964,193.38 L116.979732,191.907305 L114.47228,189.56039 L108.846458,187.494254 L106.774817,185.495237 L106.135367,185.237949 L103.471269,186.03778 L97.9002728,183.951508 L96.7791364,183.053797 L94.8781277,182.578373 L93.0862115,181.294729 L92.6050851,179.704576 L92.7751577,178.450576 L91.9583617,176.809525 L89.3513279,173.716475 L87.5929787,172.583847 L87.755219,171.669356 L86.3929599,170.656983 L84.124393,168.134441 L82.2463217,164.487661 L80.8476984,164.040203 L81.0183304,166.387119 L83.2085745,168.840864 L83.3708148,169.689356 L84.8712578,171.329847 L85.1879061,172.60678 L87.021781,174.947542 L86.3280638,175.573983 L84.1797785,173.85239 L84.0913855,172.316492 L81.2426696,170.590424 L81.7909299,168.852051 L79.7411076,167.024186 L77.4954781,161.808508 L76.2311227,160.771525 L73.8221339,160.146763 L73.62297,159.147814 L72.0050426,157.064339 L71.3074093,154.965763 L69.7840288,153.22739 L69.6301802,151.760288 L68.9980025,151.070085 L69.367239,149.133153 L68.7563204,146.803017 L69.2452791,145.083102 L69.5652841,140.994458 M127.558359,91.3635763 L127.382133,90.1800508 L128.144662,88.438322 L129.231672,88.1642542 L130.186093,88.7375593 L129.976859,91.1381695 L128.147459,91.8820678 M122.700661,58.4508305 L124.478591,59.3602881 L124.419849,61.4801186 L123.587388,62.5294068 L123.746831,63.4450169 L121.830717,64.0966271 L119.737258,63.540661 L118.822558,63.9031017 L114.417454,64.1570339 L112.641762,63.4970339 L111.626921,63.8147288 L109.071357,62.6608475 L108.504075,60.5577966 L109.130658,58.3557458 L107.76728,54.9707288 L105.029895,55.1793559 L104.200232,54.4231525 L103.284972,51.5454407 L104.900103,51.0045763 L106.293131,51.9235424 L106.99524,51.7490339 L107.759448,53.5108983 L109.790249,53.0086271 L110.861035,53.6725424 L111.179921,54.5786441 L112.478962,55.6329661 L111.003695,56.1687966 L113.864718,59.0739153 L114.952847,58.559339 L115.530758,59.2528983 L118.228982,58.4513898 L119.114591,57.5564746 L119.849707,57.9770847 L121.097279,57.4815254 M0.698192741,76.5118983 L2.38884856,76.8463729 L3.17767209,77.7899492 L2.58465582,78.5646102 L0.667423029,79.0456271 L-9.50350909e-14,78.7430339 L-9.50350909e-14,76.5879661 M75.7589474,57.6828814 L77.1447034,57.4804068 L76.2132203,59.1248136 L75.1418748,58.5850678 M101.685507,61.0444068 L100.881019,61.6451186 L99.1355369,61.6607797 L98.5497935,59.4559322 L99.5545645,58.2282203 L96.2090576,58.9598136 L95.6591189,58.4877458 L97.1489324,56.7667119 L96.6773166,55.539 L97.5936946,54.4651017 L98.8356721,56.3556102 L99.2647697,55.1894237 L97.986428,54.0232373 L98.9134355,53.2580847 L101.191513,53.3979153 L101.938937,53.9382203 L102.316566,55.6016441 L102.218662,58.1650169 L101.737536,59.1169831 M93.4425807,53.5466949 L94.8456796,53.9583559 L93.8420275,54.9427627 M96.082622,55.820339 L95.2126783,56.381339 L93.8946158,55.4696441 L95.8213592,54.9785593 M80.1260088,61.1227119 L79.7534155,61.7418814 L77.319811,60.4196441 L77.927373,59.2450678 L78.6099011,56.0250508 L79.8653054,54.3873559 L81.3405732,54.055678 L82.231776,55.589339 L83.1173842,55.2336102 L84.3246758,56.6095424 L85.161612,58.8759153 L87.7485056,59.0571356 L88.0097685,57.963661 L86.77898,57.2085763 L87.7154981,56.1011186 L86.320791,54.4091695 L87.9264105,52.2798305 L89.0883867,55.0540678 L88.7443254,56.1357966 L89.4464343,57.1297119 L91.8408773,56.5435424 L92.4820063,57.3976271 L91.7743029,61.3475593 L90.3018323,62.0176271 L88.5731339,61.3621017 L84.7834243,63.9254746 L83.2001827,64.4109661 L82.2312165,64.183322 L81.3047685,63.0389492 L83.27403,61.6853898 L84.7062203,61.6451186 L85.5565832,60.7267119 L81.2851877,61.3067288" id="Shape" fill="#73CEC6" fill-rule="nonzero"></path>
                                <path d="M86.8668135,71.8616949 L87.9017947,71.6122373 L88.9328598,75.4922542 L89.9678411,75.2881017 L89.5739887,73.9378983 L89.107408,70.3291525 L89.2987397,69.1042373 L90.7180626,69.2742712 L92.3477384,70.9746102 L93.2803404,74.8658136 L93.8677622,76.3172542 L93.5041202,78.2178305 L94.8031615,80.1100169 L96.1066783,80.6402542 L97.3598448,81.873 L98.0714643,83.5129322 L96.2308761,83.0738644 L96.1133917,83.9408136 L97.0734068,85.3374407 L95.4879274,86.5925593 L92.8562778,86.2709492 L92.115567,85.2787119 L90.6257534,85.1405593 L89.9174906,85.9683559 L88.0897697,86.8129322 L85.327209,87.5366949 L83.3803254,87.7212712 L82.2726158,86.5506102 L82.2983504,85.1802712 L79.4485156,84.874322 L77.805413,83.1236441 L77.6795369,82.2231356 L79.2851564,81.5491525 L81.2286834,81.1872712 L83.6723579,81.6459153 L84.1478899,80.4864407 L81.6751239,79.8767797 L79.3153667,80.2615932 L77.6068085,80.2129322 L76.3749011,78.7419153 L77.1245632,78.0075254 L75.5860776,75.0543051 L76.7665156,73.4171695 L76.2725219,72.6721525 L77.7349224,70.9281864 L81.2538586,69.0024407 L81.9363867,70.0741017 L84.2916683,71.066339 L85.901204,72.4400339 M110.390538,47.7605085 L111.339364,47.8712542 L112.066648,49.4949661 L111.52622,50.1627966 L110.400608,49.5900508 M103.847219,47.4344237 L105.772844,46.8180508 L107.646999,47.2190847 L107.172586,48.8467119 L104.388207,48.7203051 M101.556834,42.0408814 L101.198786,41.1420508 L102.300901,40.6420169 L103.509312,41.3971017 L105.61396,43.4761017 L105.516056,45.1999322 L103.118257,46.8476949 L102.309293,45.5847458 L102.189011,44.402339 L101.249136,42.8507797 M111.515031,42.1040847 L112.096859,43.8905593 L110.964533,43.6813729 L110.354733,44.7301017 L108.897368,44.0309492 L107.528955,42.0296949 L106.279705,39.4551356 L108.79387,38.0064915 L107.799169,36.9381864 L106.631039,36.8811356 L105.351019,37.5981864 L103.884143,34.007339 L103.377282,33.3764237 L103.539522,30.4399831 L104.408347,28.5735254 L106.032428,28.131661 L105.772844,27.1517288 L104.808353,26.5292034 L105.121645,24.9871525 L107.900429,24.1727797 L107.654272,23.3226102 L106.21313,23.0530169 L106.495652,22.0999322 L107.740986,22.1541864 L109.061287,23.2180169 L110.68369,28.4174746 L112.39001,28.5752034 L112.866661,29.2654068 L114.581932,29.5886949 L114.669207,31.1950678 L115.406561,33.3272034 L115.114528,35.5029661 L116.184755,35.0185932 L117.959328,37.6048983 L115.95538,38.9825085 L114.084582,42.6891356 L112.659105,44.3402542 M398.881765,130.143051 L399.022746,127.118797 L400.405705,126.092441 L400.957322,128.295051 L400.814103,130.913797 L401.207955,131.481508 L401.953141,134.373203 L400.526546,135.560644 L399.99395,137.521068 L400.732423,140.207492 L399.080929,140.222593 L399.56765,137.69278 L399.157014,136.397949 L399.495481,134.805 L399.629748,131.644831 M288.273041,76.8693051 L287.235263,76.5806949 L287.16701,74.4944237 L288.22325,74.399339 L288.826337,72.6934068 L288.453184,71.2699322 L289.524529,69.6031525 L291.34274,68.7949322 L293.348365,70.1512881 L291.894916,73.5279153 L291.879252,74.8221864 L292.931016,77.9432034 L293.984459,79.2240508 L292.459401,80.0160508 L291.22022,79.993678 L289.631384,79.3269661 L290.202023,78.1244237 L289.318093,76.9397797" id="Shape" fill="#73CEC6" fill-rule="nonzero"></path>
                                <path d="M291.79925,67.4844407 L290.231673,67.2003051 L291.168751,65.8467458 L292.174081,63.4399831 L293.400394,63.1027119 L292.843742,60.9940678 L296.242956,57.421678 L298.641315,56.6526102 L298.937824,55.3169492 L301.394925,55.6581356 L304.584905,53.8023051 L305.104074,52.7642034 L306.36731,51.6640169 L308.174332,51.6008136 L308.79532,52.5348814 L308.314194,54.5394915 L306.641441,56.1212542 L305.023513,56.7834915 L303.354116,57.9664576 L302.233539,58.3188305 L298.654183,60.9001017 L297.822282,62.3397966 L296.742544,63.1183729 L295.988407,65.2258983 L294.981398,66.6745424 L294.631183,68.046 L293.554243,69.5186949 L291.990582,69.2334407 L290.668603,68.212678 M446.433278,76.5879661 L446.440551,78.7430339 L445.028501,79.4254068 L444.738706,78.3761186 M431.469687,82.6879322 L432.138788,82.2460678 L433.332653,82.8848136 L432.216552,83.7819661 M408.093657,60.5108136 L409.413957,60.6170847 L410.032708,62.2547797 L408.795207,62.7592881 L406.893079,62.5758305 L406.374469,61.8274576 L404.67766,60.8050169 L406.284957,59.4592881 M396.675297,69.1389153 L398.044829,67.1225593 L399.397577,66.658322 L401.201801,68.5432373 L400.842635,69.8419831 L397.509436,68.7926949 M396.761452,57.0676271 L397.305796,58.3389661 L398.127068,58.0201525 L398.136578,56.6274407 L399.049599,56.0770678 L400.13605,57.4250339 L401.372433,57.4194407 L403.359597,58.821661 L402.697209,60.8877966 L401.401524,61.9348475 L399.762338,62.4902542 L398.763161,61.9398814 L395.708568,63.3348305 L394.574564,62.7598475 L393.078597,60.391678 L393.692872,59.7518136 L393.316363,58.0207119 L393.926163,56.7018305 L395.40199,55.6089153 M363.927372,64.5390508 L363.147499,65.8903729 L362.369865,65.6330847 L362.136574,63.7448136 M248.891166,44.2457288 L248.368641,42.4558983 L250.420141,42.040322 L250.671894,43.9095763 M371.565533,210.934881 L370.499782,209.134983 L371.24385,208.011864 L372.05673,204.879661 L373.067655,204.082627 L377.591921,205.131915 L372.410302,205.193441 L372.10708,206.494424 L373.399408,207.496729 L374.912718,209.336898 L373.972844,210.725136 L372.507086,209.687593 L372.59492,212.516644 L371.244409,212.445051 M251.088124,30.3242034 L252.13821,29.4292881 L252.66633,31.1424915 L253.942994,30.8281525 L256.393382,31.4814407 L256.947237,32.0072034 L256.857725,33.7019492 L254.996437,35.638322 L255.162034,36.4403898 L253.037805,37.5567966 L251.598901,36.8800169 L249.207255,37.0545254 L248.032412,36.1875763 L247.727512,35.2188305 L250.331189,34.3675424 L250.012303,33.8473729 L248.039125,34.3227966 L245.868462,33.7299153 L245.325796,31.3891525 L247.026522,31.2325424 L247.767792,30.5311525 L249.859014,30.6687458 M252.953328,47.4797288 L250.251188,48.527339 L249.105995,48.1044915 L249.935099,46.0238136 L249.046693,45.0718475 L250.183494,44.2927119 L251.530089,44.0432542 M191.048583,80.4109322 L188.584768,80.8595085 L189.643247,79.1491017 L190.38172,79.0372373 L191.351805,78.3157119 L191.892233,79.9500508" id="Shape" fill="#73CEC6" fill-rule="nonzero"></path>
                                <path d="M158.376184,98.0547458 L156.664269,95.3420339 L156.913783,93.6472881 L156.512099,92.6416271 L156.537834,90.6895932 L157.29309,88.6335254 L158.15632,87.7285424 L159.938726,87.3593898 L159.852571,85.1025254 L160.596638,82.1733559 L158.765001,82.3327627 L157.467079,81.2057288 L156.183143,80.8293051 L156.097547,79.2894915 L157.939814,79.6642373 L160.306284,81.1855932 L160.141806,79.8398644 L158.475766,78.1311356 L158.554089,76.2501356 L156.261466,76.0079492 L155.766912,77.2194407 L154.37724,76.8167288 L154.101991,75.7165424 L155.194036,73.7365424 L155.611945,70.7967458 L154.649692,70.4622712 L154.858926,68.8391186 L153.745622,67.8301017 L153.450233,65.4652881 L153.641564,64.5681356 L152.951204,62.4276102 L151.52293,61.4834746 L150.900822,59.9498136 L150.976907,58.4424407 L149.88766,57.2997458 L147.419369,55.4785932 L144.469952,54.6798814 L142.229358,56.0423898 L140.16499,55.2571017 L140.856469,57.0458136 L138.247198,56.1743898 L136.881023,54.7050508 L138.009991,53.5584407 L135.665899,52.4437119 L134.722667,51.2557119 L135.39065,50.2125763 L137.537816,49.8182542 L138.486083,49.2382373 L140.496184,49.3277288 L141.314099,48.8422373 L141.039969,47.7442881 L140.137577,47.4131695 L139.277703,48.4328136 L137.448304,48.7605763 L136.068143,48.1061695 L133.661392,45.9527797 L132.922919,44.7401695 L133.40964,42.3977288 L134.28238,42.1924576 L136.617522,40.6498475 L138.23433,39.0803898 L139.986526,38.347678 L141.219552,38.6480339 L143.533994,35.0124407 L143.566442,33.4194915 L143.077483,32.1833898 L142.209218,31.8265424 L140.152682,32.1565424 L139.55575,31.1665424 L140.139255,29.5825424 L141.312421,27.621 L142.263484,26.9011525 L142.739016,25.2175932 L144.466596,23.4322373 L145.399198,23.6335932 L146.651245,25.6499492 L147.829446,25.163339 L146.492362,22.2548644 L147.126218,20.8202034 L146.387745,18.9895424 L149.667237,15.6973729 L151.215792,15.181678 L154.695567,13.5462203 L155.711527,16.0072373 L157.747922,17.8753729 L160.075232,18.3977797 L160.649786,18.1270678 L159.198574,15.3192712 L159.309345,12.409678 L160.577617,12.4728814 L163.224931,15.8142712 L164.518378,16.7298814 L165.074471,18.2210339 L166.347777,20.2301186 L166.965969,19.6159831 L166.370155,17.6007458 L167.077299,16.9687119 L166.601767,15.9283729 L168.261094,13.9192881 L165.570143,10.1298814 L169.545589,9.91398305 L171.240721,10.5236441 L172.168288,11.9471186 L173.164108,11.3570339 L170.666726,9.32333898 L166.955899,9.21147458 L166.998417,7.83777966 L165.892945,6.59161017 L166.285678,6.01550847 L168.412705,5.88127119 L168.507811,4.83198305 L169.583073,4.61272881 L172.011083,7.73933898 L173.441594,7.82659322 L175.231832,5.95174576 L174.020065,4.50701695 L173.853909,2.47667797 L175.319666,1.35691525 L177.39802,0.719288136 L179.621272,0.56379661 L181.800327,0.0548135593 L183.743854,0.591762712 L184.58023,0.0906101695 L185.945287,0.621966102 L187.217474,2.02027119 L188.182524,1.06830508 L189.539189,1.3099322 L191.65167,2.99069492 L191.077675,3.99747458 L188.821975,5.02550847 L186.401797,4.68264407 L186.172423,5.26210169 L189.91402,5.85386441 L192.526648,4.48688136 L193.657855,7.52232203 L194.977036,8.44632203 L197.006159,8.86581356 L198.655416,11.3122881 L196.623496,13.7995932 L194.787383,14.0669492 L192.798541,15.3142373 L188.975824,14.8925085 L186.457183,15.3399661 L186.138297,15.8131525 L182.655165,18.1432881 L183.405946,19.6171017 L184.381626,18.1393729 L188.010214,16.5408305 L189.865907,16.3282881 L192.679937,16.6443051 L192.643573,18.6438814 L190.277103,20.5287966 L191.008303,20.9874407 L194.331432,18.759661 L194.445,16.6308814 L196.856227,16.2253729 L197.182945,18.6931017 L196.785736,21.2995424 L195.851456,22.8415932 L195.312146,25.6874237 L197.52365,22.7621695 L198.756116,20.4846102 L201.05825,21.814678 L201.941061,21.1395763 L203.475631,18.0655424 L206.246024,18.8161525 L208.613613,20.7927966 L208.922989,22.5244576 L206.623652,25.2170339 L205.258596,25.4239831 L205.453284,27.0258814 L204.260538,27.3301525 L202.438412,28.5852712 L203.775496,29.5008814 L202.396453,31.3371356 L200.822722,31.4042542 L199.267453,30.7146102 L198.12282,32.5212203 L197.705471,34.4989831 L198.41765,34.5258305 L198.788005,32.8758305 L199.72788,32.1559831 L201.056013,31.9725254 L201.878403,32.6974068 L201.137133,34.4162034 L199.272488,34.6695763 L198.845069,36.6417458 L198.984931,38.7973729 L197.595259,39.7622034 L197.063782,41.4261864 L197.304345,42.2651695 L196.857905,45.2687288 L195.96838,48.2308983 L196.837205,47.9557119 L197.220987,46.085339 L198.45737,47.5731356 L197.989671,48.7868644 L199.254026,50.0878475 L200.641461,50.2081017 L200.343834,52.5259322 L197.751345,51.9050847 L196.255937,53.2754237 L196.429367,55.4165085 L197.164483,55.0853898 L198.719752,56.0798644 L199.215424,60.1506102 L197.7161,60.6976271 L197.659036,62.7861356 L199.689837,64.0462881 L199.19976,64.994339 L197.956663,64.2224746 L196.208384,64.2056949 L195.708796,65.7734746 L197.659036,66.7914407 L197.612043,68.6908983 L195.71439,69.5337966 L193.46988,68.0812373 L191.737265,68.6685254 L191.289706,69.5175763 L190.756551,69.5902881 L191.351245,70.123322 L192.005801,70.9287458 L192.764414,73.0530508 L195.265153,75.0554237 L194.847804,75.9850169 L196.278315,77.0673051 L196.229643,79.4556102 L195.912995,80.4998644 L194.116044,80.6100508 L193.387081,79.891322 L192.607768,77.5046949 L191.660061,77.2893559 L191.408309,78.1143559 L190.078498,78.9421525 L188.651902,79.1972034 L188.299449,81.0737288 L190.400741,80.6989831 L191.851393,80.8533559 L194.90263,82.5201356 L194.723606,83.2204068 L192.183706,85.1612542 L190.51319,86.8761356 L187.934129,87.7061695 L185.443461,88.999322 L183.470283,88.8108305 L182.189144,90.4720169 L181.761165,91.7081186 L180.199183,94.5343729 L178.456498,95.8991186 L173.980904,97.1531186 L173.796285,98.126339 L172.30815,98.9888136 L172.922426,100.089559 L172.639344,102.957203 L171.625063,104.489746 L170.514556,104.939441 L170.992885,106.968102 L169.587548,111.922576 L167.953956,112.140712 L165.311677,109.875458 L162.91164,109.019695 L162.022115,107.143169 L160.911608,105.680542 L161.132031,105.025017 L159.945999,103.928746 L159.279135,102.25078 L160.392439,100.089559 L158.63409,99.2802203 M100.885494,84.8894237 L101.73306,82.7108644 L104.270722,85.3508644 L104.694785,86.6876441 L103.845541,87.6977797 L100.20912,86.4751017 L99.8751289,85.4839831 M92.2666183,47.1603559 L93.6786683,49.5318814 L92.6716596,50.4625932 L91.9219975,48.2398475 M86.5266683,48.4261017 L84.2972628,49.5 L82.8639537,48.378 L82.6972378,46.5042712 L83.5140338,45.7391186 L85.5241352,44.9868305 L86.9305907,44.9085254 L87.1577272,45.887339 M81.5397372,45.4991695 L82.4001702,46.6049492 L81.5788986,47.3275932 L80.5551064,46.0730339 M75.3857947,49.5727119 L76.784418,49.3098305 L77.9312891,49.6342373 L78.7665469,48.1811186 L80.0230701,49.2885763 L79.2588623,50.2383051 L79.2997021,53.3727458 L76.8605031,54.4488814 L75.2895695,55.936678 L74.7413091,57.2371017 L71.3062904,56.3332373 L71.1462879,54.8823559 L72.4705044,54.3845593 L72.8984831,53.13 L73.9726258,52.3357627 M100.07709,34.2741356 L99.0063041,33.297 L99.2787559,31.7348136 L100.665071,31.9932203 L100.895564,34.1577966 M97.6742553,39.5854576 L98.781965,40.459678 L99.6519086,42.2327288 L99.5008573,43.7977119 L100.557098,45.2424407 L100.051915,46.596 L98.9374919,46.696678 L97.8667059,44.3810847 L95.3458273,43.3295593 L93.7150325,43.9962712 L92.9950213,42.4861017 L94.9721151,42.3211017 L93.0319449,39.0882203 L92.2447997,39.1340847 L92.440607,37.1417797 L93.9030075,36.7922034 L95.3944994,37.5165254 L95.9830401,38.9237797 M84.5249587,42.1712034 L86.2956158,40.8651864 L87.7854293,42.670678 L87.5773141,43.6696271 L85.0139174,43.9615932 L84.1299875,43.3250847" id="Shape" fill="#73CEC6" fill-rule="nonzero"></path>
                                <path d="M155.892229,81.2012542 L156.869587,81.475322 L158.919409,83.656678 L158.39017,84.3435254 L156.778956,85.0611356 L155.043544,83.4167288 L155.23096,81.5866271 M298.197672,82.8104237 L297.371925,83.5028644 L296.135542,82.4932881 L295.785886,81.4490339 L296.448274,80.7068136 M106.543205,74.5710508 L105.376194,74.8261017 L105.261507,72.865678 L104.581776,71.4360508 L104.578419,68.6752373 L105.262626,66.1174576 L107.180418,65.4479492 L111.397547,66.6370678 L109.370103,71.165339 L108.761981,71.8421186 L106.93426,71.8437966 L107.348253,72.914339 M137.915444,181.729322 L138.2858,182.566068 L135.368831,182.552085 L134.64882,183.523627 L133.032011,182.450847 L132.963758,180.446797 L133.86615,180.791898 L135.363237,180.503847 M389.197697,208.316695 L387.297248,208.541542 L385.981423,206.729339 L387.438229,206.138136 L389.334762,206.59678 L389.614487,208.63439 L390.463171,209.744644 L391.263184,209.876085 L392.403342,208.447017 L393.967562,207.576712 L396.602568,208.662915 L398.625537,209.108136 L402.45217,210.447153 L404.036531,211.732475 L403.94534,212.446729 L406.071248,213.127424 L406.44496,214.051983 L405.69362,214.88761 L406.919932,215.746729 L407.687497,217.063373 L408.919964,217.667441 L408.921642,218.616051 L406.40412,218.262559 L404.482971,215.858593 L402.884065,215.359678 L401.261662,215.971576 L400.110315,217.339678 L398.237839,217.21439 L396.688164,215.804898 L395.586049,215.913966 L395.354437,214.011153 L394.368128,212.545729 L391.798577,211.298441 L390.883877,211.254814 L388.878811,210.145119 L387.954041,210.659695 L387.43711,209.423593 M69.6133967,135.52261 L69.9714443,137.078644 L68.0609249,136.294475 L67.2709825,135.366 L64.7501039,133.445847 L65.559627,132.729915 L67.4869299,133.165068 L68.4536583,134.876593 M404.244646,261.701186 L407.033501,261.315254 L407.127488,263.433407 L406.543423,264.703068 L405.381447,265.818356 L404.363249,265.854712 L403.649392,264.862475 L402.580844,261.439424 M446.440551,364.347966 L446.440551,428.268407 L445.200252,429 L3.41060513e-13,429 L3.41060513e-13,364.347966 L1.16365457,364.282525 L4.08397997,365.742356 L4.01348936,366.715576 L8.90531414,367.833102 L10.2955457,367.757593 L16.1518611,368.484712 L18.5686821,369.081508 L20.3410175,370.300831 L21.4733429,368.312441 L23.4274994,367.132271 L24.5396846,365.964407 L26.455239,364.879322 L27.1120325,363.220373 L26.8681126,362.053627 L27.3324556,360.396356 L28.3976471,362.023983 L29.3218573,360.476339 L31.9165832,360.437186 L34.5045957,361.941763 L35.6883905,361.188915 L36.5611314,357.739576 L38.485637,356.207034 L39.3807559,354.923949 L39.1664869,353.468034 L41.9732441,352.585424 L43.1721439,351.795102 L44.8124493,351.588153 L46.5914981,351.953949 L48.4125056,351.870051 L49.4894456,350.60878 L50.7118423,350.096441 L51.8699024,350.317932 L53.5639149,349.615983 L53.5118861,348.789305 L55.8632516,347.816085 L59.732403,346.641508 L60.676194,347.157203 L64.2549912,346.591169 L64.9515056,345.776797 L65.5372491,344.005424 L65.1120676,342.681508 L66.6925119,341.996339 L68.0335119,343.590407 L69.5535357,344.537898 L70.6108949,343.728 L75.4501314,344.183288 L76.5466521,345.22922 L77.7561815,345.483712 L78.8935419,344.558034 L80.4023767,345.711356 L81.5156809,344.568661 L82.5769562,345.944593 L84.8058023,345.961373 L86.5400951,346.908864 L86.6206558,348.214322 L87.4922778,348.538729 L88.1266934,349.767559 L87.5985732,350.848729 L88.8769149,351.133983 L89.8951126,350.744136 L89.6545494,348.412881 L90.9485557,348.145525 L91.4537384,349.404 L92.3074581,348.855864 L93.9455257,350.325763 L96.6448686,350.461119 L97.3811039,348.139932 L96.8356408,347.071627 L97.5405469,346.244949 L97.1797021,345.151475 L95.5852716,344.678288 L95.4940814,343.403034 L97.5388686,343.668712 L96.9469712,342.111 L95.614363,342.108203 L94.9502966,340.174627 L95.7419174,339.549864 L96.3136746,336.915458 L97.8448874,336.210712 L100.233736,336.348305 L100.736121,335.650831 L101.888587,336.275593 L103.738126,336.039559 L104.563314,336.951254 L104.890033,338.626983 L105.965854,338.62139 L108.530929,339.382068 L110.081722,338.86078 L110.753061,339.794847 L111.855176,339.147153 L113.783598,339.542593 L114.671444,340.456525 L115.860274,340.515254 L117.35792,341.826864 L118.10926,343.200559 L119.384805,343.256492 L121.425116,344.689475 L122.358278,344.085407 L122.593247,341.836932 L123.182347,340.891678 L124.414254,340.936424 L125.573992,342.361017 L126.004768,340.794915 L124.890345,338.455831 L126.884223,338.309288 L128.176551,339.054305 L129.260763,340.332915 L131.034218,340.467153 L131.076736,341.202102 L133.963494,341.526508 L132.480954,338.461424 L132.928513,337.765068 L131.960666,336.817017 L130.383019,336.952373 L129.70161,336.295729 L130.101616,334.831983 L132.402071,333.991881 L132.802637,333.001881 L131.963463,331.858627 L131.06275,332.651746 L128.528444,333.236237 L128.295154,332.659017 L130.031685,331.88939 L130.342179,331.213729 L131.881783,331.219322 L133.393975,330.064881 L133.6737,325.776 L134.376927,325.053356 L135.859468,324.762508 L137.234594,327.70622 L137.532781,329.511153 L138.330556,329.460814 L138.481607,327.981407 L137.84831,326.923169 L139.72806,326.768797 L140.323314,325.505847 L139.877992,323.837949 L140.394364,323.18578 L140.355203,320.483136 L139.406936,319.492017 L140.700383,317.746932 L141.707392,317.951644 L141.740959,316.262492 L143.291752,315.68639 L143.735955,313.281305 L146.693763,311.625712 L148.428056,309.656898 L149.530171,309.595373 L150.114796,308.630542 L151.991189,307.756322 L152.338048,308.443169 L150.959564,309.131136 L150.163468,310.910898 L148.315607,311.546288 L147.329857,312.754424 L146.608168,312.738763 L146.093474,314.163356 L148.035882,316.297729 L148.735194,318.319678 L147.92679,319.194458 L147.965951,321.010576 L148.473931,322.282475 L147.912244,325.664136 L146.699358,327.194441 L148.282599,331.257356 L147.931265,332.360898 L148.59701,335.663695 L148.44484,337.136949 L149.270587,338.645441 L148.670857,342.113237 L147.593358,344.994864 L148.037561,346.398763 L147.142442,347.695271 L147.425523,348.745678 L148.809041,350.08022 L151.697478,351.906407 L154.696126,354.149288 L156.512099,355.970441 L158.650314,358.782153 L161.129793,360.963508 L162.138481,363.371949 L163.318919,364.208695 L165.93826,364.614203 L167.52374,365.525898 L168.623617,366.60539 L171.805205,364.832339 L172.985643,364.879322 L173.785656,365.692576 L178.68811,366.977898 L179.068536,366.782136 L179.563089,364.381525 L181.414866,361.814237 L184.852682,359.480186 L187.418876,356.60639 L190.210528,355.200254 L189.922971,353.826 L188.809667,352.876271 L190.448854,352.004847 L191.571109,350.678136 L191.859785,349.392814 L191.734468,347.280814 L191.150962,346.011153 L192.058389,344.80861 L193.683589,344.498186 L195.441939,346.170559 L197.083922,344.855034 L197.835263,342.00361 L199.417385,339.460373 L202.605128,338.638169 L204.528514,337.196237 L207.202682,336.315305 L208.185635,335.611678 L207.849965,334.374458 L209.792373,332.608119 L213.022074,330.90778 L214.299297,330.899949 L216.979059,330.258407 L219.0507,330.458085 L220.855483,329.701322 L221.331015,328.16878 L222.919851,327.499831 L223.826159,328.823746 L226.241861,329.654339 L227.810557,329.262814 L229.09729,329.816542 L230.230175,329.11739 L233.178473,329.044678 L234.460731,329.405441 L235.876138,328.701814 L239.070593,329.332729 L240.396488,327.397475 L242.283511,327.237508 L243.148419,328.007136 L245.273208,328.029508 L246.513507,328.687271 L248.149337,328.075373 L249.605583,328.371814 L250.470492,329.524017 L251.784079,329.317068 L253.72313,330.283017 L254.530975,329.036847 L255.697986,329.419983 L258.109213,328.740966 L259.317623,328.065305 L259.604621,326.88122 L261.458076,325.641763 L263.476569,325.945475 L264.419801,324.390559 L265.756885,324.502424 L266.920539,325.639525 L268.737071,326.651898 L269.302115,327.484169 L270.588849,326.727407 L270.706333,328.701814 L271.48173,328.856746 L272.242581,327.043424 L272.644265,324.997424 L275.176892,323.495644 L276.452437,322.427339 L278.346732,322.013441 L278.710374,321.367983 L280.691944,320.818729 L280.7367,319.817542 L282.756312,320.893678 L284.187383,320.068678 L283.175899,319.328695 L284.11969,318.512085 L285.218448,319.393017 L285.681113,316.885017 L287.342677,315.941441 L289.942997,315.32339 L291.67729,315.551034 L293.073676,317.008627 L294.22726,317.496356 L294.632861,318.863339 L296.64576,320.053576 L298.706771,320.238153 L300.920512,321.019525 L302.58879,320.58661 L305.243936,321.364068 L308.67336,321.730983 L309.592536,322.643797 L310.508354,324.502424 L312.645451,323.719373 L313.64127,323.909542 L314.802687,324.86039 L315.574727,326.380627 L314.981711,328.03622 L317.358252,327.385729 L318.326099,326.439356 L319.799688,325.731814 L319.758849,324.401746 L321.233557,322.683508 L323.939054,321.597305 L324.100175,320.501034 L325.006483,319.515508 L327.850164,318.830339 L327.175468,317.78161 L328.726821,317.425322 L329.877049,316.615983 L331.370778,316.943186 L334.227886,318.464542 L337.275207,317.315695 L338.212284,317.753644 L340.951348,317.272627 L341.496811,316.510271 L341.66017,313.529085 L342.807041,312.671644 L343.57013,313.196288 L343.41796,314.747288 L345.071692,315.183559 L346.08989,314.37422 L347.611592,314.800983 L348.516222,313.958085 L350.317648,315.472729 L351.563542,314.93578 L352.064249,315.697576 L354.063721,316.592492 L357.11272,317.565712 L358.045322,318.634017 L360.527598,317.038831 L360.788861,315.928017 L363.586108,315.065542 L365.477046,317.038271 L367.692466,317.558441 L368.847169,318.877322 L372.895904,318.609966 L374.426557,317.504186 L375.232164,318.318 L379.737409,316.553898 L381.21995,317.528237 L381.807372,318.985831 L383.569637,318.890746 L384.089925,317.137271 L384.867559,316.089102 L386.677937,316.534322 L388.259501,316.091339 L389.626235,316.45378 L390.278553,315.873203 L395.287303,317.551169 L400.331857,318.955068 L401.120681,318.399661 L404.132196,319.898644 L404.873467,321.697983 L406.498108,322.342881 L407.837989,323.670153 L413.953889,323.026932 L415.000059,323.832356 L415.903569,325.409644 L417.084008,325.353712 L417.656324,326.055661 L420.374129,326.58478 L421.321836,327.373424 L423.043821,329.677831 L424.218665,330.394881 L425.006369,330.133119 L425.63519,331.548203 L426.792131,330.871424 L429.554133,331.238898 L430.873314,331.854153 L431.848434,333.483458 L433.463005,334.814644 L434.888482,335.555186 L433.890424,337.77961 L434.377145,339.097932 L433.063558,342.68878 L431.732069,342.767085 L429.866865,343.64522 L428.031871,345.464695 L428.132572,347.729949 L427.450044,347.849644 L426.291984,349.245153 L426.388209,351.279966 L428.285861,351.75539 L428.271875,352.616746 L425.408613,352.145797 L424.966648,354.479288 L425.327493,358.534373 L424.630419,360.116136 L425.556308,360.282814 L426.415622,362.835559 L426.186248,363.766271 L429.862949,365.305525 L430.241136,363.958678 L429.248673,363.170034 L430.47107,362.038525 L433.055726,362.610712 L435.690732,362.183949 L441.019487,362.933441 L443.275746,364.217644 M365.951459,199.696983 L366.508111,199.417322 L367.869252,197.373 L369.128013,197.632525 L370.813074,198.995593 L368.899757,200.645593 L368.782273,201.702712 L369.677392,202.877288 L369.632636,204.591051 L369.058081,205.130797 L368.919338,206.752831 L367.806034,207.479949 L367.790929,208.605864 L367.03791,210.188746 L362.782179,209.985153 L361.382437,209.316763 L360.027451,209.407373 L359.346041,206.954746 L358.773725,206.835051 L358.195254,204.701237 L358.811767,203.300695 L360.866065,203.759339 L361.654889,202.180373 L363.206242,201.863797 L364.57913,200.008525 M437.696358,266.389424 L435.590591,267.253576 L434.830859,269.65978 L433.760632,270.965797 L432.609285,271.312576 L429.635812,270.093254 L430.079456,268.901898 L432.040325,266.619864 L432.572921,266.556102 L435.099954,264.626441 L435.844021,262.829339 L437.376912,261.121729 L438.753158,261.521085 L439.340579,262.79522 L437.532439,265.134864 M242.62981,154.263814 L242.084347,155.068119 L241.965184,156.748881 L241.193144,156.575492 L238.62695,154.99261 M385.186446,162.681051 L384.259997,161.498644 L386.580034,161.433203 L386.920179,162.405305 L386.129118,164.621339 L384.642661,164.081034 M398.095179,155.833831 L397.303558,159.038746 L395.045061,159.159 L393.499862,159.606458 L391.119406,161.424254 L390.319393,159.661271 L386.007717,160.93261 L385.503094,160.66078 L388.342859,158.462644 L390.912969,158.125932 L392.62824,156.831102 L394.645615,155.973102 L396.053189,154.524458 L396.866069,152.432593 L396.662989,151.520898 L397.261599,149.452525 L398.465534,149.278017 L399.392542,152.341983 L397.989443,154.528932 M400.858299,148.305356 L399.196735,147.234814 L396.984113,148.19461 L396.616554,147.172729 L398.602599,145.960119 L399.238134,142.146661 L401.160402,144.32578 L402.782805,144.925932 L403.431766,145.926 L401.846287,146.624034 M151.254954,135.849814 L150.978026,135.247424 L152.879035,131.317627 L154.096956,131.724814 L153.575549,133.572814 L154.224511,134.972237 L156.156289,134.884983 L156.697836,137.337051 L156.455594,138.211831 L157.94373,138.597763 L157.380924,140.139254 L156.181464,139.855119 L155.224806,138.772831 L154.547872,139.718085 L153.710936,138.213508 L152.735257,138.511068 L149.54192,137.847712 M58.2890238,126.358119 L58.264408,125.439712 L59.7838723,125.660644 L59.5226095,127.392305 M284.345707,86.6792542 L283.023728,86.3347119 L283.156877,85.008 L284.400533,84.1936271 L285.36838,84.9878644 M381.001765,216.267458 L378.618511,217.318983 L377.495696,218.390644 L376.589388,217.713864 L379.28985,216.262983 M398.448751,226.669729 L398.900227,224.547661 L398.66302,223.163898 L399.471424,219.419797 L400.289899,219.537254 L401.229773,221.777898 L401.524603,223.767407 L402.437625,223.467051 L403.331065,224.714339 L403.538061,226.384475 L404.461153,227.959525 L404.841578,229.822068 L407.690294,231.387051 L408.875208,234.222814 L410.266558,234.612102 L410.316909,235.687678 L411.562802,236.627339 L413.157233,239.062068 L412.994992,240.772475 L413.684234,242.280407 L412.363934,248.302627 L411.67693,248.608576 L410.384602,251.087492 L409.422349,253.471322 L409.20864,255.96478 L406.486919,256.675119 L405.431797,257.684136 L404.16912,258.120407 L402.687698,257.015746 L401.188374,258.100831 L399.776884,257.293169 L398.579662,257.325051 L397.299642,256.583949 L396.538791,255.487678 L396.574036,254.364559 L394.901283,252.641847 L393.672732,251.973458 L393.859588,250.42078 L390.971711,250.635 L389.802462,249.414 L388.987344,247.804831 L387.250814,247.696881 L385.835407,246.866847 L383.258024,247.174475 L380.990016,248.05261 L379.42132,248.06939 L377.382128,249.084559 L376.440015,250.501881 L372.085821,250.490695 L369.453612,252.164746 L367.853587,252.180407 L365.895514,251.018695 L366.676506,249.538729 L366.6821,247.139237 L365.904466,245.472458 L365.830618,244.025492 L364.809064,242.070102 L364.141641,239.981034 L364.919275,239.358508 L363.858559,237.052983 L364.181921,234.541627 L365.12739,234.463322 L365.556488,233.419068 L368.062821,231.80039 L369.185636,231.953085 L373.230454,230.552542 L374.964747,228.58261 L374.699009,227.577508 L376.454001,226.060068 L377.492339,226.253034 L378.103817,224.681339 L379.54384,223.287508 L381.155054,223.133695 L382.640951,224.239475 L383.638449,223.796492 L385.17134,221.220254 L389.305671,220.407559 L390.910171,221.095525 L392.991323,221.205153 L391.118846,224.21822 L392.716074,225.581847 L395.593881,226.975678 L396.883412,228.051814 L397.851259,227.725169 M322.472178,197.914983 L322.11413,195.763831 L322.692601,193.450475 L323.43499,194.132847 L324.645079,196.256593 L324.529273,197.649305 L323.167014,198.356288 M285.180406,222.397627 L285.593279,225.661271 L284.631026,228.016017 L282.23994,236.107169 L281.637972,237.710746 L279.218354,238.586644 L277.812458,237.736475 L277.49525,235.664186 L276.823911,234.062288 L277.167972,232.881 L278.408831,231.077186 L277.705044,227.718458 L278.956532,226.048881 L280.383128,225.622119 L282.486657,224.015746 L283.95633,221.871864 M224.558478,130.393068 L224.934428,131.643153 L223.541399,132.444661 L222.064453,132.241068 L217.78019,133.170661 L218.009564,131.531847 L217.664384,130.469136 L218.08509,129.283373 L218.107468,127.407966 L219.449028,126.980644 L219.634765,125.940305 L218.279219,124.174525 L216.943254,123.611847 L217.156964,121.886339 L216.142123,121.559136 L215.939043,118.08239 L217.009269,115.449661 L219.228045,116.206983 L219.074756,117.568373 L220.962338,117.840203 L220.47282,119.505305 L219.284549,121.344356 L220.578556,121.686661 L221.202901,122.458525 L221.775777,124.43461 L222.48404,124.775797 L223.892174,127.947153 L225.324364,128.463966 M342.478085,200.588542 L342.366195,199.135424 L344.113915,199.195271 L345.066657,200.492898 L346.931861,201.780458 L347.934394,203.035017 L349.90925,204.021661 L350.345621,204.783458 L351.836553,205.333271 L351.474589,206.536932 L352.681322,207.041441 L353.233498,208.610339 L354.203583,208.678576 L354.783173,209.749119 L354.568904,211.483017 L353.940083,212.696746 L352.892234,212.99878 L350.061421,210.632847 L348.338317,208.599153 L346.919553,205.757797 L346.20178,205.430593 L345.32736,203.245881 L344.334338,202.730186 L343.515864,201.30839 M166.503304,16.4787458 L164.101588,14.2168475 L163.328429,11.2826441 L165.205941,11.2753729 L166.638131,12.7547797 L167.264715,14.5429322 L166.35561,15.6492712 M166.318686,8.28467797 L165.203703,9.26908475 L164.254877,8.16442373 L165.365944,6.82764407 M158.198279,16.7981186 L157.630438,17.2824915 L156.125519,15.8841864 L157.076583,15.4087627 M301.36975,27.820678 L300.745404,26.7523729 L301.811715,25.3233051 L302.671029,25.3154746 L302.875228,23.7812542 L304.064617,23.9691864 L304.107135,26.1617288 L303.078867,27.2792542 M293.846835,30.0160169 L293.941941,32.0251017 L292.938849,32.1257797 L292.582479,30.3448983 M293.875367,29.2346441 L296.237362,29.4667627 L294.32964,31.431661 M289.492641,31.6056102 L288.211502,31.2431695 L289.040606,29.8224915 L290.103559,30.8874407" id="Shape" fill="#73CEC6" fill-rule="nonzero"></path>
                                <path d="M138.177267,321.309254 L137.402989,320.608424 L138.321605,318.465102 L139.287773,319.348831 M129.713917,328.192271 L130.948063,328.944 L130.172666,329.701322 L129.175168,329.107322 M138.237128,287.488729 L135.355964,287.378542 L135.378342,286.183271 L136.574444,286.294017 L135.854433,284.308424 L136.929695,282.552153 L137.962438,282.602492 L138.223141,283.827407 L139.737011,285.714 L142.189078,287.587729 L140.722202,287.871305 M281.585944,31.3589492 L281.790143,29.7855763 L283.084149,29.6211356 L284.184026,28.7905424 L284.131438,26.6791017 L285.91776,25.8764746 L287.459602,27.2635932 L286.310493,28.6115593 L283.835489,29.7760678 L283.866259,31.3365763 L282.60526,30.7789322 M290.919237,25.1560678 L292.783881,24.9155593 L293.825576,26.2719153 L292.751433,26.5487797 M292.831434,22.7560169 L293.828373,21.8907458 L294.952866,22.686661 L293.082068,23.2415085 M299.501189,24.4479661 L298.937264,25.7651695 L297.708154,25.3792373 L298.994887,24.1084576 M31.7935044,119.112102 L31.4690238,118.066169 L32.5879224,117.180763 L34.0838899,117.14161 L34.3289287,118.122661 M262.251935,31.7118814 L263.921891,30.2967966 L264.566936,31.4635424 M340.584349,31.598339 L339.556081,32.5659661 L337.925287,31.5273051 L336.860655,30.1664746 L338.457882,29.1149492 L338.09424,27.2859661 L338.789636,25.3764407 L340.885892,24.3120508 L341.990805,22.8594915 L343.812931,26.2394746 L344.783016,27.5818475 L343.708874,28.3112034 L343.908038,30.8796102 L342.042834,30.9987458 M338.940128,34.2657458 L336.359388,33.7332712 L336.605546,32.1783559 L338.895372,32.5217797 L339.639439,33.2181356 M345.513657,40.6084576 L344.246504,40.5748983 L342.814314,39.2437119 L341.130372,39.2045593 L340.25875,37.8079322 L340.19721,36.1775085 L339.538738,34.9358136 L340.680015,33.8384237 L340.230777,32.753339 L341.644506,31.829339 L343.378798,31.7873898 L346.331572,32.2382034 L347.364875,34.1790508 L346.958715,35.7317288 L347.216061,39.8673559 M351.08801,39.1217797 L352.309847,38.5210678 L352.873213,40.3668305 L353.813088,40.7583559 L353.945118,42.6041186 L353.307345,43.7395424 L351.314028,44.3794068 L348.808814,44.5947458 L347.320678,45.9158644 L346.492693,45.4812712 L347.416904,43.4872881 L347.680964,41.5788814 L349.275394,37.1244407 L350.099463,36.6294407 L351.23067,37.3800508 M130.752815,277.582576 L129.653497,276.18539 L130.484279,275.792746 M273.934355,208.184136 L271.310538,213.206847 L272.179363,214.265085 L271.872785,215.99339 L272.594474,218.157966 L273.485677,218.801186 L273.296583,219.859424 L273.473929,222.628068 L273.861068,224.253458 L272.718113,226.343085 L271.67474,227.132847 L269.26631,228.197797 L268.208951,229.573729 L266.588786,230.787458 L266.19885,231.581695 L267.260685,233.947627 L267.350196,235.01761 L266.811447,237.184424 L263.930283,238.567627 L263.980633,240.537559 L263.348456,242.734576 L261.823397,244.25761 L260.434284,246.62578 L258.576912,248.535305 L256.045404,250.269203 L254.01796,250.914102 L251.202811,250.602 L247.567509,251.743017 L246.149305,250.386102 L245.404119,249.06778 L245.820349,247.275153 L244.648303,245.250407 L244.077665,243.460576 L242.188404,240.967119 L241.153423,236.338169 L241.067827,234.074593 L239.858298,232.201983 L237.777146,227.878424 L237.771552,225.692593 L238.459675,224.221576 L238.785834,222.507254 L240.152568,221.018339 L240.417747,219.46622 L239.342486,217.052746 L239.833682,216.608085 L239.132133,214.409949 L238.452402,213.366814 L237.796727,211.318017 L235.499628,209.07178 L234.127859,206.785831 L234.747169,206.196305 L234.828289,204.275034 L235.591378,201.882814 L234.241427,200.022508 L231.6881,200.000136 L230.770603,200.411237 L228.922183,197.894288 L225.825631,197.849542 L223.670632,198.520729 L220.603171,199.806051 L218.28817,199.183525 L215.968134,199.456475 L214.038034,200.26861 L211.691144,199.314407 L210.726094,198.356847 L207.719054,196.518356 L206.887712,195.405305 L206.114553,193.449915 L204.848519,192.071186 L202.421628,190.201932 L202.718136,188.722525 L201.979663,187.00261 L202.725409,185.815729 L203.35479,183.032542 L202.747228,181.241593 L203.128772,180.128542 L202.228059,178.845458 L203.885707,174.968237 L204.762924,174.074441 L205.269785,172.044102 L206.332738,171.339356 L207.203801,169.57078 L208.95208,169.071305 L210.550986,167.651746 L211.233514,166.543169 L211.015329,164.663847 L211.706809,162.980288 L212.521926,162.050136 L214.806158,160.682593 L215.865755,158.113627 L217.419905,159.000712 L220.78779,159.20039 L221.754518,158.426847 L224.885756,156.939051 L229.07771,156.427271 L229.765832,156.804814 L232.238598,156.141458 L233.023506,156.488237 L235.210952,155.713576 L236.285095,156.621915 L236.224675,157.786424 L237.007904,158.972186 L235.786626,161.009237 L238.478696,162.547373 L239.633399,162.433271 L242.158753,163.306932 L242.479318,164.35678 L244.676275,165.10739 L247.017011,166.285881 L248.216471,165.167237 L247.974788,163.783475 L250.151046,162.390763 L251.87415,162.841576 L252.05709,163.474729 L254.220481,163.831017 L259.205174,165.484373 L261.827313,164.360136 L263.277406,164.891492 L263.281881,166.188 L263.977277,168.697119 L264.868479,169.719559 L265.405551,171.445627 L267.341245,174.902237 L267.485583,176.490712 L268.970362,177.633966 L269.636106,181.896 L271.048156,183.020237 L272.159223,186.211729 L274.299116,187.369525 L277.061677,190.596814 L276.73328,191.22661 L278.154282,192.70322 L282.017279,191.756288 L286.61819,191.355254 L286.601407,192.70322 L285.384605,195.509898 L282.696451,200.154508 L280.280748,202.693831 L278.182814,204.004322 L276.023339,206.098424 L274.444573,208.141068 M211.555757,127.865492 L210.772528,127.088034 L211.198829,125.137678 L212.945989,123.332746 L214.126427,122.876339 L215.603373,123.182288 L216.347441,125.134322 L215.323648,126.018051 L215.782397,127.970085 L215.225185,129.313576 L213.755512,129.765508 L212.412834,130.800254 L211.200507,130.878559 L210.466509,130.132424 M244.036265,52.2479492 L243.445487,53.5041864 L241.880148,50.6907966 L241.02419,50.3177288 L240.464741,48.3746441 L241.787279,48.1318983 L241.866721,46.7861695 L240.525161,47.2381017 L240.052986,45.291661 L241.809657,44.7043729 L242.770791,43.5297966 L241.225592,42.7377966 L240.134666,44.4068136 L239.231155,43.7132542 L237.597563,40.9804068 L237.761482,40.5508475 L236.663283,37.2452542 L236.416006,35.6819492 L237.12315,34.1124915 L238.822198,34.252322 L238.94136,35.3692881 L240.348935,35.8290508 L241.163493,33.9944746 L241.756509,34.4671017 L243.808569,32.7868983 L245.005791,33.3350339 L246.364134,35.6215424 L246.68302,37.9997797 L247.679959,38.4875085 L248.667946,40.129678 L249.872441,40.4345085 L249.695095,41.4815593 L248.34906,41.4658983 L246.639383,42.5319661 L246.891135,44.2306271 L246.013919,45.3996102 L245.833217,48.5161525 L245.14901,48.7477119 L244.647184,51.6092034 M389.475184,160.273729 L388.079917,162.636864 L387.281583,161.581983 L387.873481,160.81739 M192.769449,71.0266271 L194.279962,70.3476102 L196.067403,71.0243898 L195.205851,71.9064407 L194.52612,71.163661" id="Shape" fill="#73CEC6" fill-rule="nonzero"></path>
                                <path d="M194.210031,71.2352542 L195.177879,72.2962881 L195.093961,74.0413729 L193.444705,72.8209322 L192.805254,71.2951017 L194.210031,71.2352542 Z M191.304811,69.8386271 L191.902303,68.8626102 L193.653379,69.0483051 L192.95127,70.5204407 L191.304811,69.8386271 Z M196.449507,64.3477627 L197.740716,64.3992203 L198.188275,65.4915763 L196.806436,65.8473051 L196.449507,64.3477627 Z M362.952252,214.699119 L363.699116,215.397153 L365.149768,215.426797 L364.998717,216.455949 L360.510815,215.920119 L358.523091,215.274661 L357.525034,215.435186 L355.322482,214.926203 L354.525267,213.259424 L357.41762,213.464695 L358.081686,214.184542 L360.204796,214.335559 L360.522004,213.73261 L362.952252,214.699119 Z M229.824574,111.122746 L229.389882,108.906153 L229.967234,106.517847 L234.832765,102.775983 L236.367334,100.228271 L237.774349,99.2449831 L238.533522,96.7794915 L239.150594,95.7223729 L239.62221,93.6864407 L241.890777,90.6297458 L242.329945,88.8264915 L243.499194,89.1967627 L243.822556,87.1384576 L244.878796,86.5327119 L245.779509,84.3032542 L246.904003,83.3428983 L248.5113,82.7539322 L249.978736,82.6812203 L249.47635,81.544678 L252.047579,81.5715254 L254.213767,79.1440678 L256.845417,78.9650847 L258.247956,78.3218644 L259.661125,79.8191695 L260.643518,79.8404237 L261.715423,81.2420847 L259.966584,82.4541356 L262.217249,83.4877627 L262.972506,82.5749492 L263.939234,83.9229153 L266.549065,85.2138305 L267.721111,85.2977288 L269.796668,86.856 L270.882,88.2084407 L272.664406,89.1889322 L274.107785,90.4938305 L274.491567,92.5711525 L272.830003,94.8660508 L270.64815,95.4656441 L267.311035,94.4711695 L266.51382,93.8223559 L264.997712,94.3951017 L266.277173,95.748661 L266.355496,98.4099153 L266.761096,100.360831 L268.173146,101.507441 L269.650093,102.133881 L270.357796,101.705441 L270.083666,100.477169 L269.240576,100.379847 L268.520005,99.1213729 L269.140994,98.1425593 L272.245937,99.9547627 L272.95476,98.4110339 L272.675035,96.7766949 L274.717025,95.2777119 L275.693264,94.0863559 L276.864191,94.3827966 L277.734695,95.3504237 L278.437363,92.8575254 L277.514272,91.9161864 L277.953999,90.1375424 L277.89134,87.5187966 L280.024521,87.731339 L280.916283,89.1447458 L279.468428,90.239339 L278.925762,91.460339 L280.28914,93.0935593 L282.437426,92.5213729 L282.541483,90.6772881 L283.31632,90.4971864 L285.990488,88.3482712 L289.636419,86.1971186 L290.109154,87.9757627 L291.418265,87.9086441 L292.675348,87.1390169 L294.324045,87.5165593 L296.229529,85.9952034 L297.387589,87.2089322 L298.828731,86.0399492 L297.865359,83.9592712 L298.742576,82.8864915 L301.128068,83.4094576 L303.021804,84.2137627 L304.088114,85.188661 L306.383534,86.5517288 L307.27138,87.7637797 L308.282865,88.1049661 L308.983855,86.0914068 L307.719499,85.188661 L307.713905,84.1158814 L306.070243,83.4351864 L306.850675,79.7324746 L305.84926,79.2162203 L306.23528,77.5997797 L307.926496,76.1220508 L308.823293,71.9047627 L309.503024,71.2207119 L312.044602,71.082 L313.31679,71.7442373 L313.543926,73.7158475 L312.905035,75.9251695 L312.317613,76.6338305 L313.505884,79.2458644 L313.066716,81.2493559 L313.33693,83.0033898 L313.101961,85.4297288 L313.424763,86.5204068 L314.476528,87.5959831 L313.843232,88.6217797 L313.872323,90.204661 L313.206578,90.5939492 L312.268941,92.6522542 L308.945812,93.7574746 L310.511151,94.6490339 L312.263906,94.9242203 L313.110912,93.8184407 L314.848003,92.5040339 L315.163532,91.1180339 L315.971377,90.0816102 L315.380039,88.0887458 L315.691093,86.8134915 L318.212531,86.0377119 L317.498114,85.0611356 L315.985363,85.6568136 L314.71821,85.3419153 L314.410513,83.3020678 L315.260876,79.7895254 L314.416108,77.7832373 L313.769944,77.169661 L314.500025,75.4245763 L317.10594,73.6235593 L316.553763,75.8239322 L318.469877,74.5374915 L319.698428,75.4967288 L320.232143,75.0213051 L319.801367,73.5150508 L321.882518,73.3785763 L324.514727,75.9581695 L325.785796,75.6896949 L325.186066,73.5911186 L323.381283,72.6738305 L323.14072,68.2087627 L326.803434,67.8284237 L330.002365,66.8747797 L331.373016,66.8496102 L330.570207,64.0625085 L331.563229,61.9482712 L333.112904,60.0353898 L335.957703,58.3797966 L338.89761,57.5911525 L339.411184,56.068678 L342.309131,56.0910508 L343.897967,56.9020678 L345.711702,55.5664068 L345.830865,54.267661 L347.651872,54.3258305 L348.572726,53.8392203 L348.388108,52.1030847 L349.820298,49.432322 L351.306755,47.7739322 L352.720483,47.6368983 L354.611422,48.4479153 L354.102323,50.0386271 L354.449181,50.8384576 L356.347952,51.5225085 L355.43605,54.0987458 L357.019292,53.8862034 L357.100971,52.8234915 L360.166753,52.7530169 L361.671672,53.1736271 L363.948631,55.8639661 L364.501367,57.437339 L364.20374,60.0902034 L361.879228,63.2520508 L359.534016,64.7163559 L357.368947,67.7613051 L356.170048,67.981678 L354.944854,70.0696271 L356.872156,69.9622373 L357.494824,69.3592881 L359.36786,68.7440339 L359.076946,67.0604746 L360.033605,66.1711525 L361.676707,67.3211186 L363.926812,67.8882712 L365.809359,67.9911864 L366.269227,67.5621864 L368.71402,68.1203898 L370.333626,68.1886271 L370.188169,69.8565254 L370.96972,70.2631525 L375.316641,71.2867119 L376.564213,69.8363898 L376.161409,68.2630169 L377.543249,67.2081356 L379.083972,68.5997288 L380.107765,68.9509831 L381.712265,68.6064407 L383.101378,69.8184915 L382.299128,71.479678 L381.216593,71.8801525 L381.541074,73.2907627 L382.588922,74.5883898 L383.195925,76.4117797 L384.766859,78.8851017 L386.080446,79.6977966 L386.602971,78.769322 L387.611658,75.2590169 L388.982309,76.9509661 L389.880785,77.2574746 L391.443327,76.1880508 L392.96391,76.5885254 L393.791895,77.3816441 L394.524773,76.5180508 L396.604247,76.1186949 L396.515854,74.5788814 L395.787451,73.7298305 L396.307738,72.7789831 L397.415448,72.8416271 L399.539677,71.8460339 L402.377204,72.1777119 L404.155134,72.7677966 L404.350941,75.6483051 L405.65222,73.5430169 L407.23714,73.4479322 L409.152135,74.6650169 L409.11689,76.0845763 L411.293148,77.5746102 L412.28673,79.3085085 L413.847593,79.1910508 L416.508334,78.3833898 L419.701111,78.8084746 L421.123232,79.8163729 L421.753731,81.4014915 L421.303374,83.0067458 L423.49194,84.676322 L424.636573,83.5979492 L426.758564,83.2768983 L427.288922,83.8630678 L430.162254,84.2954237 L431.247586,83.210339 L431.994451,85.1959322 L433.297967,85.749661 L433.57937,86.7156102 L435.308069,85.7552542 L434.770997,83.8351017 L435.263313,82.0491864 L437.505026,82.6745085 L442.019782,83.3177288 L445.054235,84.596339 L446.44167,86.015339 L446.44167,98.5284915 L444.410869,99.7030678 L445.041368,103.037746 L445.986837,105.151983 L445.250043,106.102831 L442.876299,105.549102 L439.252746,107.529102 L437.150895,109.144424 L436.570186,109.997949 L434.837572,111.086949 L431.960884,110.631102 L430.480581,111.21839 L429.418746,110.926424 L428.013409,112.035559 L426.376461,112.016542 L424.269574,116.101831 L424.092788,116.903898 L425.622882,117.351356 L425.085811,119.753644 L425.79799,121.045678 L424.251113,121.259339 L423.813623,122.996593 L424.265658,124.215915 L422.363531,124.819983 L421.613869,125.563881 L421.519881,127.368254 L419.654118,127.886746 L419.868387,129.163678 L419.033129,130.688949 L417.36597,131.378034 L416.128468,122.883051 L416.826101,119.668068 L418.57438,117.341288 L420.441263,115.968153 L421.463936,114.244322 L423.914324,111.723458 L424.361884,110.807288 L425.843305,110.094153 L426.520239,109.020254 L427.069618,105.132966 L425.701205,105.586017 L425.156302,107.738288 L424.647203,107.850153 L422.619199,110.280407 L421.952335,110.263627 L421.469531,107.766254 L420.64714,107.206932 L418.538016,107.543644 L417.513105,108.250068 L417.490727,109.077864 L414.458512,112.412542 L415.622166,114.115119 L410.961954,114.932847 L411.427416,113.73478 L408.729751,112.705627 L407.879388,113.97361 L406.042716,113.906492 L404.907034,113.424356 L400.839837,113.663186 L399.415479,114.479797 L397.802028,116.213695 L397.44398,117.294864 L395.824934,118.614864 L394.006723,121.164254 L391.215071,123.550322 L390.953249,124.232695 L392.802788,124.934085 L392.775935,126.256881 L393.507695,126.791593 L394.966179,126.784881 L395.833325,125.420136 L397.080897,125.693085 L398.549452,127.373288 L398.22609,129.123966 L398.709454,129.608339 L397.456288,132.186814 L397.516149,134.713831 L397.054044,136.828068 L395.923956,138.026136 L394.482255,140.875322 L391.722492,144.10261 L390.681916,145.697797 L388.34174,147.050237 L386.538635,146.236424 L384.448532,148.166085 L384.066987,150.117 L381.343588,151.912424 L381.170159,152.668627 L382.406542,153.721831 L383.638449,155.877458 L383.742507,158.565559 L381.133795,160.114881 L380.063568,160.250237 L379.84818,158.960441 L380.327069,158.029169 L380.149723,154.994847 L378.338786,154.868441 L378.062977,154.158102 L378.742708,152.617729 L377.269678,151.622136 L374.12837,152.919763 L373.843051,151.896203 L374.827682,150.650034 L373.551019,150.038695 L372.58429,151.168525 L371.484972,151.642271 L370.700065,152.891797 L369.066473,153.773847 L371.041329,155.166559 L371.724976,156.053085 L373.203601,154.973593 L374.466837,156.330508 L372.891428,157.182356 L371.03014,159.562271 L372.376175,160.364898 L373.737875,163.148085 L373.604726,163.950712 L374.483061,165.343424 L373.723889,166.176814 L374.499845,166.927424 L374.08809,168.933153 L373.399967,169.254763 L370.977552,173.484915 L367.701417,176.457153 L365.506697,176.680881 L364.809623,177.331373 L360.18074,178.763237 L357.862382,178.131203 L355.777314,179.089322 L354.614778,180.487627 L354.225402,181.833356 L356.152145,184.426932 L358.149379,186.376729 L358.962259,189.573814 L358.680297,191.033644 L356.22879,192.761949 L355.331433,193.768729 L353.091957,194.935475 L353.530566,193.228424 L351.561304,192.456559 L350.506742,190.48439 L348.392024,188.853407 L347.307811,188.909339 L347.257461,190.474322 L346.173248,192.807814 L347.119836,194.373915 L347.853834,196.590508 L351.087451,199.010136 L351.562982,200.333492 L351.512632,202.151288 L352.499501,203.658102 L350.5901,203.410322 L349.06672,202.373898 L347.925443,200.346356 L347.358161,197.632525 L346.311991,196.178288 L345.005677,195.059644 L345.31729,192.44761 L345.765969,190.915068 L345.471698,189.240458 L344.546369,187.247593 L343.726776,184.280949 L341.638352,185.908576 L340.042243,185.524881 L340.46183,183.352475 L339.878884,181.215864 L337.369194,178.809661 L336.648623,176.702136 L335.781477,177.633407 L334.3353,177.124424 L331.24714,178.388492 L330.371043,180.368492 L328.390592,181.5 L327.544145,182.600746 L325.309705,184.226695 L325.19222,184.905712 L322.739035,186.052322 L322.496793,186.740288 L322.860436,189.085525 L322.238328,190.749508 L322.285881,192.859271 L321.666011,192.845288 L319.394647,195.658678 L317.872945,193.923661 L317.260907,191.841305 L316.020608,189.649881 L315.7448,188.339949 L314.382541,185.682051 L313.322944,180.609 L313.623368,179.624593 L312.647688,178.793441 L310.584999,179.259356 L308.733222,177.39961 L308.282305,174.742831 L305.43303,173.024034 L300.517149,173.467576 L296.524359,173.112407 L294.33971,172.592237 L293.672287,170.708441 L290.958957,171.599441 L289.85908,171.304119 L288.297098,170.034458 L286.94323,169.515966 L285.352716,166.421237 L282.813935,167.00461 L282.950441,168.088017 L285.923914,173.552593 L287.504358,175.04878 L289.985516,174.948102 L292.096318,172.904339 L294.127119,175.113661 L296.108688,175.718847 L297.395422,177.421424 L295.694696,179.918797 L294.992587,180.03178 L294.952307,181.697441 L293.946976,181.888729 L293.108921,183.109729 L292.085129,183.185797 L291.520085,184.258576 L290.248457,184.318983 L288.315559,185.034915 L287.988841,186.071898 L284.11913,187.492576 L283.596045,188.110068 L281.127755,188.902627 L279.818643,189.016169 L279.074576,189.75839 L277.162378,189.676169 L275.706131,183.747356 L274.958148,183.120915 L273.506377,180.442881 L272.493773,179.863983 L271.521451,177.819102 L271.68481,176.946559 L270.696263,175.108627 L269.729534,174.640475 L269.066028,172.832186 L266.699557,169.350966 L265.698143,169.853237 L264.422598,168.676983 L263.359645,166.076136 L263.290832,165.094525 L265.414502,164.923932 L267.850904,160.018678 L267.845309,157.771881 L266.313537,156.536898 L265.351284,157.396576 L263.90231,157.762373 L262.030952,156.529627 L261.13975,156.563186 L260.215539,157.530814 L259.303637,156.744407 L257.974945,156.572695 L256.973531,155.706864 L257.044021,154.762729 L255.635328,152.370508 L256.397298,150.835729 L258.910904,150.848034 L259.670076,149.503424 L261.365208,149.715966 L264.566377,148.168322 L267.80335,148.647661 L270.79081,150.006814 L272.983851,150.00122 L274.1531,149.493915 L275.031436,148.436797 L274.611849,146.959068 L273.175742,146.203983 L271.327881,144.321305 L269.583518,143.490712 L270.310802,141.238322 L269.773731,139.347814 L267.784329,140.108492 L265.93423,141.277475 L267.050332,143.127153 L265.542056,144.065695 L262.786768,140.116881 L261.355697,140.618034 L260.156238,142.268034 L259.938053,143.340254 L258.738593,144.238525 L258.70111,145.594322 L257.491021,147.22978 L258.283202,149.038068 L255.930717,151.157898 L255.361757,150.107492 L253.474735,149.965424 L252.84927,150.849153 L251.241972,151.468881 L251.86464,152.296678 L251.855688,156.578847 L250.139298,156.538017 L249.921113,155.356169 L248.899558,153.019881 L247.239672,150.315 L247.43436,148.469237 L244.16326,145.836508 L242.024486,144.486864 L241.631752,142.887203 L240.421104,143.405136 L239.647385,141.808831 L238.601215,142.313898 L238.562054,144.377797 L240.005433,145.462881 L240.580547,147.013322 L241.503638,148.055898 L243.180867,148.304237 L243.075691,149.146017 L244.395991,150.646119 L243.329121,153.207814 L242.79205,151.662966 L241.74588,151.118186 L240.375229,149.580051 L238.877024,149.127 L236.243696,146.626831 L235.915859,145.019898 L234.069676,144.069051 L231.457048,146.224678 L228.167486,145.588729 L226.992642,146.627949 L227.233205,148.28578 L225.796539,149.404424 L224.446588,149.792034 L222.822507,152.298915 L223.040692,153.124475 L222.088509,155.374627 L220.589185,156.661068 L217.772917,156.67561 L215.73876,157.510119 L214.490069,155.923322 L212.14262,156.072661 L212.334511,154.39078 L211.605548,152.536627 L212.502905,149.821678 L212.254509,147.085475 L211.8573,146.208458 L213.430472,145.218458 L214.341255,145.576424 L221.18332,145.830356 L221.596194,144.560695 L221.90501,141.214271 L220.765971,139.449051 L218.383836,137.966847 L217.328715,136.649085 L219.398677,136.143458 L221.309756,136.485763 L221.835638,135.108153 L223.024468,135.246305 L223.477622,134.429695 L225.126319,133.469898 L225.18618,132.182339 L227.163274,131.270644 L228.319096,129.952881 L229.470443,128.036644 L230.513816,127.096983 L231.934817,126.896746 L234.175971,125.764119 L233.91303,122.746017 L233.234977,122.456288 L233.285328,120.339254 L234.739896,119.256966 L235.9953,119.279339 L236.416566,121.099932 L235.398368,122.218576 L234.993886,123.419441 L235.656834,124.643237 L236.978253,125.394966 L238.724854,124.806 L240.354529,126.123763 L243.298352,125.161729 L244.615855,124.25339 L245.954058,124.035254 L247.277715,125.255695 L249.571457,123.755034 L249.33481,119.613254 L250.185173,117.903966 L251.116096,117.537051 L252.58521,119.323525 L253.495434,118.615983 L253.313613,116.281932 L252.668009,116.081695 L252.353598,114.049678 L253.405363,113.52839 L255.794212,113.131271 L257.838439,113.584322 L259.367414,111.71339 L258.088513,110.806169 L256.902481,110.817356 L251.937927,112.393525 L251.585474,111.632847 L249.695655,110.386678 L249.968106,108.748983 L249.376768,105.184424 L251.330365,102.05222 L252.247862,101.690898 L254.523143,98.2706441 L254.657411,97.2834407 L253.209556,96.1743051 L250.901268,96.2498136 L249.424322,99.3009153 L249.841671,100.521356 L248.845851,102.113746 L246.291965,103.897983 L244.91572,106.275102 L244.515713,107.901051 L244.837956,110.511966 L246.116298,111.272644 L246.756308,112.452814 L245.640207,113.664864 L246.117976,114.173847 L244.187876,115.492169 L243.923816,118.122661 L243.118209,120.909203 L241.417483,121.205644 L240.775795,122.859559 L239.308359,122.806424 L238.804855,121.164254 L239.264722,120.373373 L238.543033,119.416932 L237.224411,115.932356 L237.076716,114.234254 L235.241722,114.586627 L233.941003,116.124763 L232.730914,116.898305 L230.091432,115.345627 L229.69702,113.334305 L230.810324,111.876153 L229.824574,111.123305 L229.824574,111.122746 Z M282.425677,142.347458 L281.108733,143.997458 L282.235464,145.295085 L282.093364,146.518881 L284.669069,150.456508 L284.264587,152.859915 L283.751572,153.278288 L283.902623,154.837119 L285.467962,155.652051 L286.411753,156.588915 L287.645339,156.907729 L290.226079,156.546407 L289.965375,155.004356 L290.219365,153.241373 L288.621578,151.359814 L288.881722,149.870898 L288.232761,148.055898 L286.186295,144.39122 L286.772598,142.770864 L288.468849,142.176864 L289.255994,141.220424 L289.061305,139.700746 L286.330074,139.372424 L285.026557,140.953068 L282.425118,142.34578 L282.425677,142.347458 Z M107.286713,61.0869153 L107.286713,63.1396271 L105.980399,63.3650339 L104.351283,62.3862203 L103.713511,60.5331864 L104.422333,59.1387966 L106.251732,58.7047627 L107.272727,60.2680678 L107.286713,61.0869153 Z M127.86214,69.2216949 L128.840058,71.1977797 L126.891496,71.0243898 L125.083355,71.6491525 L124.020402,71.1446441 L123.881658,69.8509322 L123.066541,69.4258475 L123.044163,67.3306271 L124.619013,67.8586271 L126.314144,67.7148814 L127.86214,69.2216949 Z" id="Shape" fill="#73CEC6" fill-rule="nonzero"></path>
                                <path d="M372.395196,176.900695 L372.285544,175.271949 L373.320526,173.62922 L374.448935,173.639288 L373.852003,175.948169 M299.260626,29.5545763 L296.869539,29.1227797 L297.2343,26.6382712 L298.176413,26.7948814 L300.153507,26.1460678 L300.128332,28.2742881 M126.852894,180.484271 L127.145486,179.497627 L123.438015,177.619983 L121.718268,177.456661 L121.498404,176.129949 L123.22934,176.260831 L126.817089,177.791136 L129.448179,179.354441 L130.184414,180.504966 M141.527249,99.3719492 L142.129217,100.840169 L143.10098,101.596932 L142.911886,104.681034 L140.563318,104.203932 L139.582603,103.083051 L138.763569,103.802898 L140.443036,105.19561 L141.312421,106.398153 L140.993534,107.336695 L138.235449,106.338864 L136.982283,105.054661 L134.673436,104.168695 L134.693576,102.991322 L133.194252,101.886661 L132.532423,100.741169 L131.208207,99.8328305 L130.606798,100.481644 L129.266917,100.159475 L127.918645,100.854153 L126.802543,100.531424 L126.319738,98.7583729 L127.206466,97.3611864 L130.021615,97.8897458 L130.776871,97.6928644 L131.778285,96.3493729 L130.926804,95.3688814 L133.589782,92.0476271 L133.219427,90.0721017 L130.368473,86.5388644 L128.559214,86.9728983 L129.483424,85.0801525 L127.143807,82.8747458 L126.895971,81.6274576 L126.021552,81.6190678 L125.499026,82.7393898 L122.265409,82.0145085 L121.337842,83.1051864 L117.4189,81.9697627 L116.879591,82.3573729 L115.354532,81.3254237 L113.254359,80.6682203 L112.325673,78.9801864 L113.728213,78.8347627 L113.834508,77.7513559 L111.793637,77.3329831 L111.488737,75.0744407 L111.930702,72.2274915 L112.863304,69.4051525 L113.752829,68.1315763 L115.86475,66.9111356 L117.68296,67.087322 L117.887718,67.7249492 L116.410772,69.5164576 L115.708104,71.2447627 L116.279861,73.0457797 L116.002374,73.9160847 L116.428675,75.5705593 L117.167148,75.6488644 L116.925466,72.0831864 L117.283513,70.0332712 L117.817228,69.1115085 L120.654755,67.469339 L122.095337,67.4917119 L122.547372,69.5131017 L123.731166,71.7487119 L123.172836,72.5071525 L124.66265,73.4820508 L127.088422,71.6362881 L129.876158,72.6581695 L130.267772,74.2399322 L131.147227,74.4317797 L131.203171,75.785339 L132.286825,77.3078136 L133.252434,76.0912881 L134.479307,76.7361864 L134.991203,77.6926271 L134.812179,79.0126271 L136.54871,79.0982034 L138.293073,80.1340678 L137.750407,81.2817966 L139.624562,81.9843051 L139.979253,83.323322 L138.795458,84.2422881 L140.423456,84.761339 L139.191548,85.7821017 L138.426781,87.1748136 L139.75827,87.7565085 L141.644733,89.7588814 L143.205597,89.9177288 L143.909384,91.6840678 L144.951079,92.7115424 L146.015711,92.7059492 L147.21573,93.5600339 L145.512766,96.8096949 L143.028811,97.926661 L140.566115,94.5248644 L139.234626,94.9320508 L140.023449,98.0251017 M126.802543,52.3721186 L125.816234,54.219 L122.68164,55.9545763 L123.03689,54.4259492 L122.531148,54.0198814 L120.564124,54.6664576 L118.807453,54.2788475 L117.503936,55.1927797 L116.133285,54.6698136 L113.685695,54.6530339 L112.029725,53.6574407 L112.203154,52.1595763 L113.523454,50.7679831 L115.067534,49.8003559 L113.816046,47.6066949 L113.963741,46.6659153 L114.995925,46.1960847 L116.346995,46.8012712 L116.925466,48.8987288 L117.995692,48.2778814 L117.020572,45.8772712 L115.713698,44.8760847 L114.772705,44.862661 L114.708368,42.983339 L115.791462,40.6492881 L118.68829,39.5664407 L118.442133,36.6042712 L117.314283,34.7417288 L116.009647,34.1152881 L115.959297,30.4069831 L118.954588,30.589322 L121.435186,33.6124576 L121.956593,33.1638814 L120.048871,30.1771017 L123.614242,29.1568983 L124.900975,27.2865254 L124.674398,26.2277288 L122.88416,27.6819661 L120.348736,28.593661 L117.624218,28.8213051 L113.91339,27.522 L112.500781,26.1841017 L112.668616,25.4435593 L111.494891,24.649322 L112.819667,20.7709831 L111.097682,22.0870678 L110.619912,21.3907119 L112.21714,19.947661 L110.822992,19.5617288 L110.483966,20.4885254 L109.28115,20.0175763 L110.899637,17.7299492 L112.390569,17.4670678 L113.008761,16.4367966 L114.202626,15.7292542 L115.491597,16.1990847 L115.54922,14.6637458 L117.431767,14.0630339 L116.858332,12.4868644 L120.778393,14.0798136 L121.356304,10.4033898 L122.603876,11.1237966 L122.438279,8.90105085 L123.867113,7.85344068 L126.720304,7.82883051 L127.138772,6.60391525 L129.160063,5.66872881 L131.396181,5.7190678 L132.794805,6.14974576 L136.648292,5.973 L139.087491,7.50889831 L140.131982,7.53127119 L141.785155,8.62977966 L142.971188,8.94076271 L144.205892,9.97550847 L145.684517,11.8072881 L146.738519,12.1462373 L147.453496,13.3890508 L147.336011,14.6352203 L145.616264,17.0201695 L143.848404,18.5415254 L141.735364,19.2815085 L140.616466,20.8688644 L142.612581,20.6842881 L143.028252,21.9024915 L141.314099,23.2588475 L140.681921,24.6101695 L138.058104,27.6327458 L136.72102,30.0266441 L135.070645,34.0593559 L133.096907,34.846322 L132.548647,35.7904576 L128.822715,37.1401017 L129.011809,38.1558305 L127.436399,38.9881017 L129.341884,39.5697966 L130.579385,40.5989492 L130.126232,43.3748644 L129.163979,45.7424746 L126.0747,45.7687627 L126.861845,47.8762881 L125.642245,49.5564915 L124.785169,51.5157966 L126.384075,51.2109661 M148.291551,139.722559 L149.024429,141.376475 L148.266935,141.94139 L146.887892,141.225458 M131.734648,263.159339 L132.031156,265.016288 L130.953657,265.360831 M372.512121,187.404203 L371.951553,185.996949 L372.560234,185.387288 L372.732544,182.364153 L374.435508,182.658915 L375.159436,184.144475 L373.744029,186.50761 L374.207253,188.209627 L373.370317,188.657085 M379.811257,194.529966 L380.225249,196.646441 L378.72033,197.250508 L378.448438,198.48661 L377.393876,198.112983 L376.612325,195.989797 L377.952207,194.545068" id="Shape" fill="#73CEC6" fill-rule="nonzero"></path>
                            </g>
                        </g>
                    </g>
                </g>
                <circle id="Oval" stroke="#FFFFFF" stroke-width="2" fill="#FF9400" cx="249" cy="191" r="9"></circle>
                <g id="Group-6" transform="translate(214.000000, 141.000000)">
                    <g id="Combined-Shape">
                        <use fill="black" fill-opacity="1" filter="url(#filter-4)" xlink:href="#path-3"></use>
                        <use fill="#FFFFFF" fill-rule="evenodd" xlink:href="#path-3"></use>
                    </g>
                    <text id="Kazan" font-family="Questrial-Regular, Questrial" font-size="16" font-weight="normal" fill="#444560">
                        <tspan x="12" y="20">Kazan</tspan>
                    </text>
                </g>
                <circle id="Oval" stroke="#FFFFFF" stroke-width="2" fill="#FF9400" cx="90" cy="126" r="9"></circle>
                <g id="Group-6" transform="translate(42.000000, 76.000000)">
                    <g id="Group-7">
                        <g id="Combined-Shape">
                            <use fill="black" fill-opacity="1" filter="url(#filter-6)" xlink:href="#path-5"></use>
                            <use fill="#FFFFFF" fill-rule="evenodd" xlink:href="#path-5"></use>
                        </g>
                        <text id="Shenzhen" font-family="Questrial-Regular, Questrial" font-size="16" font-weight="normal" fill="#444560">
                            <tspan x="12" y="20">Shenzhen</tspan>
                        </text>
                    </g>
                </g>
                <circle id="Oval" stroke="#FFFFFF" stroke-width="2" fill="#FF9400" cx="319" cy="103" r="9"></circle>
                <g id="Group-6" transform="translate(281.000000, 53.000000)">
                    <g id="Combined-Shape">
                        <use fill="black" fill-opacity="1" filter="url(#filter-8)" xlink:href="#path-7"></use>
                        <use fill="#FFFFFF" fill-rule="evenodd" xlink:href="#path-7"></use>
                    </g>
                    <text id="Munich" font-family="Questrial-Regular, Questrial" font-size="16" font-weight="normal" fill="#444560">
                        <tspan x="12" y="20">Munich</tspan>
                    </text>
                </g>
            </g>
        </g>
    </g>
</svg>